<?xml version="1.0" encoding="utf-8"?>
<!-- Generator: Adobe Illustrator 22.1.0, SVG Export Plug-In . SVG Version: 6.00 Build 0)  -->
<svg version="1.1" id="Capa_1" xmlns="http://www.w3.org/2000/svg" xmlns:xlink="http://www.w3.org/1999/xlink" x="0px" y="0px"
	 viewBox="0 0 1813 900" style="enable-background:new 0 0 1813 900;" xml:space="preserve">
<style type="text/css">
	.st0{fill:#B88325;}
	.st1{fill:#F0D6AD;}
	.st2{fill:#F8B133;}
	.st3{fill:#FFE5A4;}
	.st4{fill:#D6992A;}
	.st5{fill:#EA5D47;}
	.st6{fill:#070504;}
	.st7{fill:#283136;}
	.st8{fill:#FBC163;}
	.st9{clip-path:url(#SVGID_2_);}
	.st10{fill:#FFDD00;}
	.st11{fill:#020304;}
	.st12{fill:#F8EAD6;}
	.st13{fill:#FFFFFF;}
	.st14{fill:#F19368;}
	.st15{fill:#864D2E;}
	.st16{fill:none;stroke:#F8B133;stroke-width:59;stroke-linecap:round;stroke-linejoin:round;stroke-miterlimit:10;}
	.st17{fill:#FDEAD2;}
	.st18{fill:#FCD4A4;}
	.st19{fill:#FABF75;}
	.st20{fill:none;stroke:#1D1D1B;stroke-width:3;stroke-linecap:round;stroke-linejoin:round;stroke-miterlimit:10;}
	.st21{fill:#341D10;}
	.st22{opacity:0.38;fill:#8A641C;enable-background:new    ;}
	.st23{fill:#020304;stroke:#1D1D1B;stroke-width:2;stroke-linecap:round;stroke-linejoin:round;stroke-miterlimit:10;}
	.st24{opacity:0.2;fill:#B19D80;enable-background:new    ;}
	.st25{fill:#EFB878;}
</style>
<g>
	<ellipse class="st0" cx="918" cy="706.1" rx="73.3" ry="27.4"/>
	<ellipse class="st0" cx="755.1" cy="556.7" rx="61.8" ry="53.8"/>
	<path class="st0" d="M816.7,552.6v108.8c0,0,21.5,20.8,71.8,19.8l-2.7,52.5l-87.2-7.5c0,0-62.2-14.3-62.7-50.3
		c-0.7-36-17.4-75.5-17.4-75.5L816.7,552.6z"/>
	<path class="st1" d="M1176.3,593.9L785.1,532c-20-3.2-33.8-22.2-30.7-42.2l2.8-18.2c3.2-20,22.2-33.8,42.2-30.7l391.2,61.9
		c20,3.2,33.8,22.2,30.7,42.2l-2.8,18.2C1215.4,583.4,1196.4,597.1,1176.3,593.9z"/>
	<path class="st0" d="M1425.1,434.6c0,0,43.6,131.1,112.6,166.7l69.7,43.8c0,0,23.9,8.1,68.2,7.6c84-1.2,79.3,58.2,79.3,58.2
		s-119.2,16.6-153.4,4.8c-21.4-7.3-41.6-33.4-86.4-28.8l-204.3-117.7C1310.8,569.1,1282.5,493.3,1425.1,434.6z"/>
	<path class="st1" d="M1557.5,406.8l-347.6,195.7c-12,6.8-27.5,2.5-34.3-9.6l-20.6-36.4c-6.8-12-2.5-27.5,9.6-34.3L1414,381.7
		C1414,382,1569.5,400,1557.5,406.8z"/>
	<path class="st2" d="M1459.4,244.7c0,0-80.6-16.7-135.6,8.5l-53-4.8c-23.2-17.9-52.3-28.6-84-28.6c-25.9,0-50.1,7.1-70.7,19.5l0,0
		c0,0-66.9,22.4-143.6,6.9l-186.2-48.7c-28.3-7.9-59.8-12.4-93-12.4c-123.3,0-223.3,61-223.3,136.1c0,28.6,14.4,55,39,76.9l0,0
		l40.3,41.9c17.8,62.6-67.1,73.4-67.1,73.4l0,0c-22.2,0-40,13.2-40,29.4c0,6.4,2.8,12.3,7.5,17.1l72.6,148.4l40.3,8.7l0,0
		c12.4,5.6,29.9,9.1,49.2,9.1c37.6,0,68.1-13.2,68.1-29.4c0-16.3-30.4-29.4-68.1-29.4c-5.5,0-10.7,0.3-15.7,0.8l0.5-0.8
		c-28.3-5.6-52.9-79.1-52.9-79.1c169.6-28,213.9-74.6,213.9-74.6l0,0c21-14.3,33.9-33.8,33.9-55.1c0-4.1-0.5-8.3-1.5-12.3L1196,547
		l278.8-158.4l23.2-114.6L1459.4,244.7z"/>
	<path class="st3" d="M1654.1,428c0,0-2.8,6.3,2.1,10.7c0,0-4.3,10.4-17.8,17.5c0,0,14.7,4.9,30-16.1l2.1-7.2L1654.1,428z"/>
	<polygon class="st4" points="1646.5,422.7 1581.4,390.4 1616.6,364.8 1643.6,353 1681.7,389.3 	"/>
	<path class="st2" d="M1648.2,350.9l8.8-30.6c-11.3-25.6-46.7-51.5-46.7-51.5l0,0c-8.9-6.9-19.9-12.9-32.4-17.2
		c-37.5-12.8-73.8-5.7-81.3,16c-7.5,21.8,16.8,49.7,54.3,62.6c20.3,6.9,40.3,8,55.7,4.1l-0.4,6.4L1648.2,350.9z"/>
	<path class="st4" d="M1657,320.3c0,0-12.9-29-25.5-20.7c-9.3,6.3-12.9,15.7,9.1,61.9L1657,320.3z"/>
	<path class="st1" d="M1656.8,321.3c0,0-16.3-23-20.2-8.3c-4,14.7,7.1,39.9,7.1,39.9"/>
	<path class="st1" d="M1675.3,349.2c0,0,34.2,32.4,35.1,50.1l-28.7-9.9l-38.2-36.3l13.1-31.8L1675.3,349.2z"/>
	<polygon class="st1" points="1657.6,323.7 1649.4,338.8 1681.7,389.3 1710.4,399.2 	"/>
	
		<ellipse transform="matrix(0.3248 -0.9458 0.9458 0.3248 704.4115 1642.059)" class="st4" cx="1502.3" cy="327.7" rx="35.5" ry="34.2"/>
	<path class="st4" d="M1537.1,293c-30.7-10.5-64.1,5.7-74.5,36.4c-7.2,21.1-1.7,43.5,12.4,58.9c2.7,11.2,10.5,20.7,21.9,24.6
		c12,4.1,24.7,0.9,33.8-7.1c19.4-4.3,36-18.2,43-38.3C1584,336.9,1567.8,303.5,1537.1,293z"/>
	<g>
		
			<ellipse transform="matrix(0.956 -0.2934 0.2934 0.956 -34.3166 464.8664)" class="st1" cx="1532.4" cy="346.8" rx="38" ry="36.4"/>
		<path class="st1" d="M1498.2,363.4c0,0,35.8,62.7,40.8,117.5l33-2.3l2-20.8l-17.5-52.3l12.3-49.1L1498.2,363.4z"/>
		<path class="st1" d="M1539.9,492.6l-3.2-22.8c-1.5-10.3,5.9-20,16.1-21.4l0.7-0.1c10.3-1.5,20,5.9,21.4,16.1l3.2,22.8
			c1.5,10.3-5.9,20-16.1,21.4l-0.7,0.1C1550.9,510.3,1541.2,503.1,1539.9,492.6z"/>
		<path class="st1" d="M1558.7,429.2l-5.3-38.7c-1.1-8,4.5-15.3,12.4-16.4l12.4-1.7c8-1.1,15.3,4.5,16.4,12.4l-19.5,56.9
			C1567.2,442.9,1559.9,437.3,1558.7,429.2z"/>
	</g>
	<g>
		<path class="st5" d="M1595.8,401.1c0,0,10.7,16.7-11.9,40.8c0,0-10.4,11.1-4.1,31.9l-7.1,4.4c0,0-8.7-16.3-2.8-27.8
			c0.1-0.4,0.4-0.7,0.5-1.1c6.9-11.6,15.9-51,15.9-51L1595.8,401.1z"/>
		<polygon class="st3" points="1580.4,421 1578.2,428.7 1588,428.6 		"/>
		<path class="st6" d="M1556.9,452.3c0,0-6.7,6.9-2.8,14.8l10.1,18.7l5.7-8.3L1556.9,452.3z"/>
		<polygon class="st3" points="1578.2,428.7 1582,432.2 1578,433 1582.8,436.7 1576,439.8 1580,446.3 1570.8,448.6 		"/>
		<path class="st7" d="M1575.5,435.9c0,0-22,14.1-20,21.8L1567,484l7.1-7.6L1575.5,435.9z"/>
		<path class="st3" d="M1574.3,471.2l-10,14.5c0,0,15.3,4.1,32.4-8c0,0,4-2.4-3.2-3.2C1586.2,473.7,1584,476.9,1574.3,471.2z"/>
	</g>
	
		<ellipse transform="matrix(0.3248 -0.9458 0.9458 0.3248 716.307 1722.3242)" class="st2" cx="1564.4" cy="359.5" rx="50.2" ry="54.6"/>
	<path class="st2" d="M1549.6,283.4c0.7,0.1,1.5,0.4,2.1,0.7c17.9,6.1,27.2,26.2,20.8,44.7c-6.4,18.6-26,28.6-43.9,22.4
		c-17.9-6.1-27.2-26.2-20.8-44.7C1514,288.6,1532.3,278.6,1549.6,283.4"/>
	<path class="st8" d="M1643.6,364.4l-27.1-24.8l-5.9,1.2c0,0-9.7,12,6,24.2C1621.9,368.9,1630.5,374.5,1643.6,364.4z"/>
	<g>
		<g>
			<defs>
				<path id="SVGID_1_" d="M1607.5,340.8c0,0,1.5,0,4,0.1c9.9,0.5,33.4,5.1,28.3,30c0,0-11.2,1.3-22.7-10
					C1613.3,357,1612.5,354.9,1607.5,340.8z"/>
			</defs>
			<clipPath id="SVGID_2_">
				<use xlink:href="#SVGID_1_"  style="overflow:visible;"/>
			</clipPath>
			<g class="st9">
				<circle class="st10" cx="1628.7" cy="349" r="13.7"/>
				<circle class="st11" cx="1629" cy="347.7" r="9.9"/>
			</g>
		</g>
	</g>
	
		<ellipse transform="matrix(0.3248 -0.9458 0.9458 0.3248 740.3672 1850.7471)" class="st12" cx="1666.4" cy="406.8" rx="25.4" ry="25.8"/>
	<circle class="st13" cx="1673.2" cy="413.4" r="20.3"/>
	<path class="st14" d="M1710.4,399.2l-24.3-8.3c0,0,7.9,26.2,7.9,26.6L1710.4,399.2z"/>
	<path class="st15" d="M1687.7,396.9c0.1,0,10.7,3.5,4.4,14"/>
	<path class="st16" d="M239.5,164.3c0,0-226.5-25.2-184.6,167.8c16,73.8,150.3,157.6,305.5,67.1c64.9-37.9,44-48.3,206.3-151.1"/>
	<path class="st2" d="M1439.5,684.4c-5.2,0-10.1,0.3-15.1,0.7l0,0l0,0c-3.6,0.3-7.2,0.7-10.7,1.2c-31.6,2.7-41.4-5.6-41.4-5.6
		c-92.1-81.1-63.8-211.7-63.8-211.7l-159.5,9.1l24.7,120.3l158.4,139.7c15.9,23.4,75.7,21.5,75.7,21.5l0.5-2.7
		c9.6,1.7,20,2.7,31,2.7c46.3,0,84-16.8,84-37.5C1523.3,701.3,1485.8,684.4,1439.5,684.4z"/>
	<g>
		<path class="st17" d="M972.5,742.6L972.5,742.6c-10.7,0-19.4-8.7-19.4-19.4v-3.7c0-10.7,8.7-19.4,19.4-19.4l0,0
			c10.7,0,19.4,8.7,19.4,19.4v3.7C991.8,734,983,742.6,972.5,742.6z"/>
		<path class="st18" d="M940.3,742.6L940.3,742.6c-10.7,0-19.4-8.7-19.4-19.4v-3.7c0-10.7,8.7-19.4,19.4-19.4l0,0
			c10.7,0,19.4,8.7,19.4,19.4v3.7C959.7,734,951,742.6,940.3,742.6z"/>
		<path class="st19" d="M905.3,742.6L905.3,742.6c-10.7,0-19.4-8.7-19.4-19.4v-3.7c0-10.7,8.7-19.4,19.4-19.4l0,0
			c10.7,0,19.4,8.7,19.4,19.4v3.7C924.7,734,916,742.6,905.3,742.6z"/>
	</g>
	<g>
		<path class="st17" d="M1743.9,729.3L1743.9,729.3c-10.7,0-19.4-8.7-19.4-19.4v-3.7c0-10.7,8.7-19.4,19.4-19.4l0,0
			c10.7,0,19.4,8.7,19.4,19.4v3.7C1763.3,720.6,1754.5,729.3,1743.9,729.3z"/>
		<path class="st18" d="M1711.8,729.3L1711.8,729.3c-10.7,0-19.4-8.7-19.4-19.4v-3.7c0-10.7,8.7-19.4,19.4-19.4l0,0
			c10.7,0,19.4,8.7,19.4,19.4v3.7C1731.1,720.6,1722.4,729.3,1711.8,729.3z"/>
		<path class="st19" d="M1676.8,729.3L1676.8,729.3c-10.7,0-19.4-8.7-19.4-19.4v-3.7c0-10.7,8.7-19.4,19.4-19.4l0,0
			c10.7,0,19.4,8.7,19.4,19.4v3.7C1696.1,720.6,1687.5,729.3,1676.8,729.3z"/>
	</g>
	<g>
		<path class="st17" d="M1503.7,768L1503.7,768c-10.7,0-19.4-8.7-19.4-19.4v-3.7c0-10.7,8.7-19.4,19.4-19.4l0,0
			c10.7,0,19.4,8.7,19.4,19.4v3.7C1523,759.3,1514.2,768,1503.7,768z"/>
		<path class="st18" d="M1471.5,768L1471.5,768c-10.7,0-19.4-8.7-19.4-19.4v-3.7c0-10.7,8.7-19.4,19.4-19.4l0,0
			c10.7,0,19.4,8.7,19.4,19.4v3.7C1490.9,759.3,1482.2,768,1471.5,768z"/>
		<path class="st19" d="M1436.6,768L1436.6,768c-10.7,0-19.4-8.7-19.4-19.4v-3.7c0-10.7,8.7-19.4,19.4-19.4l0,0
			c10.7,0,19.4,8.7,19.4,19.4v3.7C1455.9,759.3,1447.2,768,1436.6,768z"/>
	</g>
	<g>
		<path class="st17" d="M671.5,738.1L671.5,738.1c-11.9,0-21.6-9.7-21.6-21.6v-4.1c0-11.9,9.7-21.6,21.6-21.6l0,0
			c11.9,0,21.6,9.7,21.6,21.6v4.1C693.3,728.3,683.5,738.1,671.5,738.1z"/>
		<path class="st18" d="M635.6,738.1L635.6,738.1c-11.9,0-21.6-9.7-21.6-21.6v-4.1c0-11.9,9.7-21.6,21.6-21.6l0,0
			c11.9,0,21.6,9.7,21.6,21.6v4.1C657.4,728.3,647.6,738.1,635.6,738.1z"/>
		<path class="st19" d="M596.5,738.1L596.5,738.1c-11.9,0-21.6-9.7-21.6-21.6v-4.1c0-11.9,9.7-21.6,21.6-21.6l0,0
			c11.9,0,21.6,9.7,21.6,21.6v4.1C618.1,728.3,608.4,738.1,596.5,738.1z"/>
	</g>
	<path class="st20" d="M1617.3,341.4c0,0-9.7,15.3,10.1,21.4c0,0,4.4,2.4,12.3-4.8l2.1,8.7c0,0-0.5-11.7-8.9-18.8
		c-8.4-7.1-15.1-7.2-15.1-7.2l-7.3,1.1"/>
	<path class="st21" d="M579.4,240.1c0,0,27.4,34.4,34.4,52.7c4,10.1,20,34.6,31.9,24c11.9-10.5-19.1-30.2-27.5-39
		C609.3,268.5,582,224.8,579.4,240.1z"/>
	<path class="st21" d="M946.1,259.6c0,0,3.1,43.9-1.3,62.9c-2.5,10.7-2.9,39.8,12.8,37.8c15.7-2,1.2-35.6-0.8-47.6
		C954.6,299.9,956.7,248.4,946.1,259.6z"/>
	<path class="st21" d="M1115.3,496.2c0,0,39.2,19.9,53.3,33.5c7.9,7.6,32.7,23,39,8.4c6.4-14.5-30-19.4-41.2-23.9
		C1154.3,509.6,1111.2,481.2,1115.3,496.2z"/>
	<path class="st21" d="M480.9,308.6c0,0,7.7,44.4,25.1,53.5c0,0,28,0.5,46.3,22.7c0,0,31.9,37.6,33.8,22.2c0,0-36-61.3-45.4-67.3
		c-6.3-4-18.3,6.1-29.9,0C499.2,333.5,491.6,287.4,480.9,308.6z"/>
	<path class="st21" d="M1346.1,346c0,0-38.7-23-57-15.7c0,0-18.6,21-47.4,20.4c0,0-49.4-0.3-38.8,11.2c0,0,70.1,12.5,80.6,9.2
		c7.2-2.1,7.2-17.9,19.5-22.7C1315.1,343.6,1355.4,367.9,1346.1,346z"/>
	<path class="st22" d="M1542.3,603.8c0,0-40.6-23-58.9-15.7c0,0-18.6,21-47.4,20.4c0,0-49.4-0.3-38.8,11.2l23.2,12.5
		c9.6,6.1,29.4,17,29.4,17c14.7,1.9,35.1-38.2,47.4-43C1509.4,601.4,1551.6,625.7,1542.3,603.8z"/>
	<path class="st21" d="M1240.4,611.7c0,0,5.1,28.8,16.3,34.7c0,0,18.2,0.3,30,14.7c0,0,20.7,24.4,21.9,14.4c0,0-23.4-39.8-29.4-43.6
		c-4.1-2.5-11.9,4-19.4,0C1252.2,628,1247.2,597.9,1240.4,611.7z"/>
	<ellipse class="st21" cx="767.7" cy="303.1" rx="10" ry="7.5"/>
	<path class="st21" d="M599.4,362.1c-3.6-8-8.4-14.9-12.8-19.5c1.5-4.5,2.4-10.4,2.4-16.8c0-14.7-4.8-26.6-10.7-26.6
		c-5.9,0-10.7,11.9-10.7,26.6c0,10.7,2.5,19.8,6.1,24c0.8,4.3,2.4,9.2,4.8,14.4c6.5,14.4,16.6,25.5,22.4,24.8
		C606.6,388.5,606,376.4,599.4,362.1z"/>
	<path class="st21" d="M312.8,431.8c-8,3.5-15.2,8-19.8,12.4c-4.5-1.6-10.4-2.7-16.7-2.8c-14.7-0.4-26.7,4.1-26.8,10.1
		c-0.1,5.9,11.9,15.6,26.3,12.8c11.9-2.3,30-7.5,35.9-8.8c15.3-3.5,28.8-18.8,28.3-24.6C339.3,425.2,327.2,425.5,312.8,431.8z"/>
	<path class="st21" d="M1105.4,279.2c8.5-2.3,16.1-5.9,21.4-9.5c4.3,2.3,9.9,4.1,16.1,5.1c14.5,2.4,27.1-0.4,28-6.3
		c0.9-5.9-10-12.5-24.6-14.9c-10.5-1.7-19.9-0.8-24.7,2.1c-4.3,0.1-9.5,0.9-15.1,2.4c-15.2,4.1-27.9,12.1-28.2,18
		C1078.2,282,1090.2,283.4,1105.4,279.2z"/>
	<polygon class="st23" points="1616.5,342.2 1601.8,350.2 1609.7,341.2 	"/>
	<path class="st21" d="M1551.1,256.8c0-3.6-2.9-6.5-6.5-6.5s-6.5,2.9-6.5,6.5c0,1.7,0.7,3.3,1.7,4.5c-1.1,1.2-1.7,2.8-1.7,4.5
		c0,3.6,2.9,6.5,6.5,6.5c3.6,0,6.5-2.9,6.5-6.5c0-1.7-0.7-3.3-1.7-4.5C1550.4,260,1551.1,258.5,1551.1,256.8z"/>
	<path class="st21" d="M1481.4,296.7c-0.9,0-1.9,0-2.7,0.1c0-0.1,0.1-0.3,0.1-0.4c0-1.9-3.9-3.3-8.7-3.3s-8.7,1.5-8.7,3.3
		s3.9,3.3,8.7,3.3l0,0c0,0.1,0,0.1,0,0.3c0,1.9,5.1,3.3,11.3,3.3s11.3-1.5,11.3-3.3C1492.7,298.2,1487.7,296.7,1481.4,296.7z"/>
	<path class="st21" d="M1577.4,307L1577.4,307c0-0.1,0.1-0.1,0.1-0.3c0.9-1.6-2-4.9-6.5-7.5c-4.5-2.5-8.9-3.3-9.9-1.7
		c-0.9,1.6,2,4.9,6.5,7.5l0,0c-0.1,0.1-0.1,0.1-0.1,0.3c-0.9,1.6,2,4.9,6.5,7.5s8.9,3.3,9.9,1.7
		C1584.8,312.9,1581.9,309.5,1577.4,307z"/>
	<path class="st21" d="M1610.3,280.7c-1.9-1.3-3.7-2.1-5.3-2.5c-0.9-1.3-2.4-2.9-4.1-4.1c-3.9-2.8-7.9-3.6-9.1-2
		c-1.2,1.6,1.1,5.2,4.9,7.9l0,0l0,0c-1.7,2.5-1.2,6,1.3,7.9c2.5,1.7,6,1.2,7.9-1.3l0,0c0.1,0.1,0.3,0.1,0.3,0.3
		c3.9,2.8,7.9,3.6,9.1,2C1616.3,287,1614.1,283.4,1610.3,280.7z"/>
	<path class="st21" d="M1541.1,371.6c-1.9-1.1-3.6-1.7-5.5-2.1c0.7-2.1-1.1-5.2-4.3-6.9c-3.5-2-7.3-1.9-8.5,0.3
		c-0.8,1.3-0.4,3.2,0.9,4.9c-2.1-0.3-4,0.3-4.8,1.6c-1.2,2.1,0.5,5.5,4,7.6c0.9,0.5,1.9,0.9,2.7,1.2c1.2,2.8,3.7,5.6,7.2,7.6
		c6.3,3.6,13.1,3.5,15.3-0.4C1550.5,381.3,1547.3,375.2,1541.1,371.6z"/>
	<path class="st21" d="M1417.3,329.8c-2.5-1.5-5.2-2.4-7.7-2.8c1.3-3.6-0.8-8.4-5.3-10.9c-4.8-2.8-10.5-2.1-12.8,1.7
		c-1.3,2.4-1.1,5.5,0.7,8c-3.1-0.1-6,0.9-7.3,3.3c-2.1,3.7,0,9.1,4.8,11.9c1.2,0.7,2.5,1.2,3.9,1.5c1.3,4.4,4.7,8.8,9.6,11.6
		c8.7,5.1,19,3.7,22.8-2.9C1430,344.5,1426,334.9,1417.3,329.8z"/>
	<path class="st21" d="M1519,323.1c1.6-4.5,0.4-8.9-1.1-8.8c-1.7,0-5.2,3.2-5.2,3.2s-1.1,5.3-0.5,6.5l0,0c0,0.1,0,0.3,0,0.3
		c2.9,10.9,7.6,8,7.6,4.4C1519.7,327.1,1519.4,325,1519,323.1z"/>
	<path class="st24" d="M1673.2,346.9l-29.5,6.1l38.2,36.3l28.7,9.9C1710.4,399.2,1707.9,377.5,1673.2,346.9z"/>
	<circle class="st21" cx="1590.7" cy="378.9" r="5.9"/>
	<circle class="st21" cx="1557.3" cy="363" r="5.9"/>
	<circle class="st21" cx="1518.1" cy="280.6" r="5.9"/>
	<circle class="st21" cx="1537.9" cy="309.4" r="5.9"/>
	<circle class="st21" cx="1429.6" cy="370.9" r="5.9"/>
	<circle class="st21" cx="1606.3" cy="326.5" r="3.2"/>
	<circle class="st21" cx="1565.4" cy="273.6" r="3.2"/>
	<circle class="st21" cx="1555.3" cy="336.9" r="3.2"/>
	<circle class="st21" cx="1523.3" cy="298.3" r="3.2"/>
	<circle class="st21" cx="1558.8" cy="401.6" r="3.2"/>
	<circle class="st21" cx="1626.1" cy="289.8" r="3.2"/>
	<circle class="st21" cx="1551.1" cy="261.9" r="3.2"/>
	<circle class="st21" cx="1519.4" cy="350.9" r="3.2"/>
	<circle class="st21" cx="1444.2" cy="323.4" r="5.2"/>
	<path class="st21" d="M759.6,466.2c-3.7,0-6.8,2.4-7.7,5.7c-1.1-0.4-2.3-1.3-3.6-2.9c-3.3-4.1-9.6-10.8-15.7-12.8
		c-1.1-0.4-2.1-0.7-3.3-0.7l0,0c-2.8-0.1-5.5,1.1-7.7,4.3c0,0,0,0.1,0.1,0.3c-0.8,1.3-1.2,2.8-1.2,4.5c0,4.9,4,8.9,8.9,8.9
		c0.8,0,1.5-0.1,2.1-0.3c4.8,3.7,11.6,6,20.7,3.5c1.1,3.3,4.1,5.7,7.7,5.7c4.5,0,8.1-3.6,8.1-8.1C768,469.8,764,466.2,759.6,466.2z"
		/>
	<path class="st21" d="M858.4,328.2c-2.7-2.5-6.5-2.9-9.6-1.2c-0.5-1.1-0.8-2.5-0.5-4.7c0.4-5.3,0.5-14.4-2.4-20.2
		c-0.4-1.1-1.1-2-2-2.8l0,0c-2-2-4.8-3.1-8.5-2.3c0,0,0,0.1-0.1,0.3c-1.5,0.4-2.8,1.2-4,2.4c-3.5,3.6-3.3,9.2,0.3,12.7
		c0.5,0.5,1.1,0.9,1.7,1.3c0.9,6,4.1,12.4,12.5,16.8c-1.6,3.1-1.1,6.9,1.6,9.6c3.2,3.1,8.4,3.1,11.5-0.3
		C861.7,336.4,861.6,331.3,858.4,328.2z"/>
	<path class="st21" d="M945.5,420.7c-2.9-6.3-8.8-10.5-15.5-10.5c-9.7,0-17.6,8.8-17.6,19.8c0,7.7,3.9,14.3,9.6,17.6
		c2.9,6.3,8.8,10.5,15.5,10.5c9.7,0,17.6-8.8,17.6-19.8C955.1,430.7,951.3,424,945.5,420.7z"/>
	<path class="st22" d="M739.2,549.6c-2.9-6.3-8.8-10.5-15.5-10.5c-9.7,0-17.6,8.8-17.6,19.8c0,7.7,3.9,14.3,9.6,17.6
		c2.9,6.3,8.8,10.5,15.5,10.5c9.7,0,17.6-8.8,17.6-19.8C748.8,559.5,744.9,553,739.2,549.6z"/>
	<path class="st21" d="M602,453.1c-0.4-5.3-4-9.7-8.5-11.2c1.2-2.5,2-5.5,2-8.5c0-10.8-8.8-19.6-19.6-19.6
		c-10.8,0-19.6,8.8-19.6,19.6c0,4.8,1.7,9.1,4.5,12.5c1.1,1.9,2.1,3.3,3.1,4.1l0,0c0,0,13.3,10.4,18.8,14.3c0.5,0.4,1.1,0.8,1.7,1.2
		c0.3,0.1,0.4,0.3,0.5,0.3l0,0c1.9,0.9,4,1.3,6.1,1.2C597.7,466.5,602.6,460.2,602,453.1z"/>
	<circle class="st21" cx="621.3" cy="239.7" r="7.3"/>
	<path class="st21" d="M716.4,478.2c0-12.5-10.1-22.7-22.7-22.7c-2.7,0-5.2,0.4-7.6,1.3c-3.3-8.4-11.5-14.4-21.1-14.4
		c-12.5,0-22.7,10.1-22.7,22.7c0,10,6.4,18.4,15.3,21.5c2,4.8,4.5,9.5,7.2,13.3c-0.4,1.1-0.7,2.1-0.7,3.3c0,4.4,3.6,8,8,8
		c2.9,0,5.5-1.6,6.8-3.9c0.1-0.1,0.3-0.3,0.4-0.4c0,0.1,0,0.1,0,0.3c0,0.3,0,0.4,0,0.7c0,8.4,6.5,15.2,14.7,15.2
		c1.6,0,3.2-0.3,4.7-0.8c1.3-0.3,2.3-0.8,3.1-1.5c1.9-1.1,3.3-2.5,4.4-4.4c1.6-2.4,2.5-5.3,2.5-8.5c0-3.9-1.5-7.3-3.7-10
		C711.8,493.8,716.4,486.5,716.4,478.2z M682.2,498.6c0.1-0.3,0.3-0.5,0.4-0.7l0.1,0.1c-0.3,0.3-0.4,0.5-0.5,0.8
		C682.3,498.8,682.2,498.8,682.2,498.6z"/>
	<circle class="st21" cx="602.1" cy="537.8" r="7.3"/>
	<circle class="st21" cx="712.6" cy="415.2" r="7.3"/>
	<circle class="st21" cx="918" cy="376.8" r="7.3"/>
	<circle class="st21" cx="1124.8" cy="296.6" r="7.3"/>
	<circle class="st21" cx="449.4" cy="310.5" r="7.3"/>
	<circle class="st21" cx="287.1" cy="422" r="7.3"/>
	<circle class="st21" cx="390" cy="394" r="7.3"/>
	<circle class="st21" cx="153.3" cy="418.2" r="7.3"/>
	<circle class="st21" cx="649.9" cy="339.8" r="7.3"/>
	<circle class="st21" cx="1281.9" cy="605.8" r="7.3"/>
	<circle class="st22" cx="1540.1" cy="649.2" r="7.3"/>
	<circle class="st22" cx="1337.8" cy="555.6" r="7.3"/>
	<circle class="st22" cx="1429.6" cy="504.1" r="7.3"/>
	<circle class="st21" cx="1193.6" cy="577.1" r="7.3"/>
	<circle class="st21" cx="1308.6" cy="415.2" r="7.3"/>
	<path class="st21" d="M783,248.7c-1.6-2.4-7.7-1.2-13.7,2.8c-4,2.7-31.8,34.4-37.9,39.8c-1.7,1.5-4.4,3.3-7.3,5.5
		c-3.2-3.3-7.7-5.5-12.8-5.5c-9.7,0-17.8,7.9-17.8,17.8c0,9.7,7.9,17.8,17.8,17.8c7.5,0,13.7-4.5,16.4-11.1
		c3.7-4.3,44.3-53,47.6-55.3C781.1,256.3,784.6,251.1,783,248.7z"/>
	<circle class="st21" cx="720.1" cy="252.8" r="7.3"/>
	<circle class="st21" cx="1093.7" cy="480.9" r="7.3"/>
	<circle class="st21" cx="1051.6" cy="356.4" r="7.3"/>
	<circle class="st21" cx="1028.8" cy="488.2" r="7.3"/>
	<circle class="st22" cx="757.7" cy="681.2" r="7.3"/>
	<circle class="st22" cx="775.9" cy="548.3" r="7.3"/>
	<circle class="st22" cx="921" cy="687.6" r="7.3"/>
	<circle class="st21" cx="1151.9" cy="467" r="7.3"/>
	<circle class="st21" cx="1208.5" cy="246.1" r="7.3"/>
	<circle class="st21" cx="1429.6" cy="265.1" r="7.3"/>
	<circle class="st21" cx="510.6" cy="615.3" r="7.3"/>
	<circle class="st21" cx="567.7" cy="529.7" r="19"/>
	<circle class="st21" cx="526.7" cy="278.2" r="19"/>
	<circle class="st21" cx="866.6" cy="396.4" r="19"/>
	<circle class="st21" cx="1259.2" cy="522.9" r="19"/>
	<circle class="st22" cx="1435.5" cy="563.1" r="19"/>
	<circle class="st21" cx="1044.3" cy="298.3" r="19"/>
	<circle class="st21" cx="1337.8" cy="690.6" r="9.2"/>
	<circle class="st21" cx="1249" cy="401.6" r="9.2"/>
	<circle class="st21" cx="1355" cy="289.8" r="9.2"/>
	<circle class="st21" cx="1082.3" cy="424.8" r="12.5"/>
	<circle class="st21" cx="991.8" cy="392.4" r="12.5"/>
	<circle class="st22" cx="768.5" cy="613.2" r="12.5"/>
	<circle class="st21" cx="905.3" cy="309.3" r="12.5"/>
	<circle class="st21" cx="1408" cy="700.2" r="12.5"/>
	<circle class="st21" cx="712.6" cy="209.7" r="12.5"/>
	<circle class="st21" cx="1258.6" cy="284.2" r="19"/>
	<path class="st21" d="M1218.7,443c-2.8-6.4-8.8-10.4-15.2-11.1c-2.3-1.9-4.9-3.7-7.6-5.7c0.7-3.6,0.3-7.3-1.3-10.8
		c-4.3-9.5-15.5-13.7-25-9.6c-3.7,1.7-6.7,4.5-8.7,7.9c-2.7-7.3-9.5-19.2-27.4-27.2c0,0-26-7.5-31.2-19c-5.1-11.5-19.2-6.5-19,8.4
		c0.1,14.9,16.8,12.5,38.2,17.4c21.4,4.8,33.2,14.5,36.7,32.6l0,0c0.3,1.2,0.7,2.4,1.3,3.7c0.1,0.4,0.3,0.8,0.5,1.2
		c0.4,0.8,0.8,1.6,1.2,2.3c0,0.1,0.1,0.1,0.1,0.3c0.4,0.7,0.8,1.2,1.2,1.6c3.6,4.4,9.1,6.9,14.7,6.9c2.4,1.7,4.3,3.9,4.4,6.7
		c0,0.5,0.3,1.1,0.5,1.6c0.1,0.8,0.3,1.7,0.5,2.5c0.3,1.9,0.7,3.7,1.5,5.6c4.3,9.5,15.5,13.7,25,9.6
		C1218.7,463.7,1223,452.5,1218.7,443z"/>
	<path class="st21" d="M1397.4,388.5c-5.5,0-10.3,2.9-12.8,7.5c-2,1.1-4.3,2.3-6.5,3.7c-2.4-1.6-5.2-2.5-8.3-2.5
		c-8.3,0-14.9,6.7-14.9,14.9c0,3.3,1.1,6.3,2.8,8.8c-6.1-0.5-17,0.7-28.4,10.9c0,0-13.9,16.4-23.8,16.4c-9.9,0-10.9,11.7,0,16.4
		c10.9,4.7,14.5-8.1,24.8-21.9c10.3-13.9,21.2-19.2,35.2-16l0,0c0.9,0.3,2,0.3,3.1,0.3c0.4,0,0.7,0,1.1,0c0.7,0,1.3,0,2-0.1
		c0.1,0,0.1,0,0.3,0c0.5,0,1.1-0.1,1.6-0.4c4.4-1.2,8-4.3,9.7-8.3c2-1.2,4.1-1.9,6.3-1.1c0.4,0.1,0.9,0.1,1.3,0.1
		c0.7,0.1,1.3,0.4,2,0.5c1.5,0.4,2.9,0.7,4.5,0.7c8.3,0,14.9-6.7,14.9-14.9S1405.7,388.5,1397.4,388.5z"/>
	<path class="st21" d="M814.9,363.4l-12.1,25.6c-7.1-5.7-22.7-1.5-36.2,10.1c-14.3,12.3-20.8,28.3-14.4,35.5
		c6.3,7.3,23,3.2,37.4-9.1c9.6-8.3,15.6-18.2,16.7-25.9C810.1,389.3,821.4,358.1,814.9,363.4z"/>
	<circle class="st21" cx="526.7" cy="634.3" r="19"/>
	<circle class="st21" cx="814.7" cy="224.5" r="7.3"/>
	<circle class="st21" cx="830.9" cy="243.5" r="19"/>
	<circle class="st21" cx="482.1" cy="545.1" r="7.3"/>
	<path class="st21" d="M664.4,238.1c-3.9-3.3-12.3-14-19.1-20.4c-2.8-7.3-14.1-8-14.1-8c-8,0.9,0,6.1,0,6.1s10.4,12.8,13.7,9.2
		c6.1,7.1,13.5,16.3,16.3,22.4c2.9,6.4,14.9,21.6,23.9,15.1C693.9,255.9,670.7,243.6,664.4,238.1z"/>
	<path class="st21" d="M1055.8,463.5c4.5,2.4,15.2,10.8,23.4,15.5c4.4,6.5,15.6,4.5,15.6,4.5c7.5-2.8-1.3-5.9-1.3-5.9
		s-12.9-10-15.5-5.9c-7.6-5.5-16.8-12.8-21.1-18.2c-4.4-5.6-19.6-17.6-26.7-9.2C1022.9,453,1048.3,459.7,1055.8,463.5z"/>
	<g>
		<path class="st4" d="M1537.9,244.9c0,0-29.9-37.4-68.3-25.2c0,0-23.9,13.2,10.5,93.2L1537.9,244.9z"/>
		<path class="st25" d="M1486.6,302.5c1.6,3.9-25.5-90.6,41.1-45.6"/>
	</g>
	<ellipse transform="matrix(0.9067 -0.4217 0.4217 0.9067 -27.1086 469.51)" class="st2" cx="1047.9" cy="296" rx="7.7" ry="8.8"/>
	
		<ellipse transform="matrix(0.9067 -0.4217 0.4217 0.9067 -68.4735 534.3859)" class="st2" cx="1173.8" cy="422" rx="7.7" ry="8.8"/>
	
		<ellipse transform="matrix(0.9067 -0.4217 0.4217 0.9067 -2.4612 557.1426)" class="st2" cx="1258.3" cy="284.1" rx="7.7" ry="8.8"/>
	
		<ellipse transform="matrix(0.9067 -0.4217 0.4217 0.9067 -103.0918 579.7599)" class="st2" cx="1259.1" cy="522.9" rx="7.7" ry="8.8"/>
	<ellipse transform="matrix(0.72 -0.694 0.694 0.72 -65.9168 656.8863)" class="st2" cx="781.1" cy="410.1" rx="17.8" ry="7.7"/>
	<ellipse transform="matrix(0.72 -0.694 0.694 0.72 -140.3942 520.4902)" class="st2" cx="574.8" cy="434.2" rx="9.1" ry="7.9"/>
	<ellipse transform="matrix(0.72 -0.694 0.694 0.72 -292.6569 543.1489)" class="st2" cx="526.7" cy="634.2" rx="9.1" ry="7.9"/>
	<ellipse transform="matrix(0.72 -0.694 0.694 0.72 -139.7352 615.405)" class="st2" cx="692.7" cy="480.9" rx="9.1" ry="7.9"/>
	<ellipse transform="matrix(0.72 -0.694 0.694 0.72 -45.5477 443.4152)" class="st2" cx="526.7" cy="278.2" rx="9.1" ry="7.9"/>
	<path class="st21" d="M239.9,132h-31.4v62.6l27.8-0.3l0,0c1.2,0.1,2.4,0.3,3.6,0.3c17.4,0,31.4-14,31.4-31.4
		C271.2,146,257.2,132,239.9,132z"/>
	<polygon class="st21" points="180.2,134.3 153.3,201.4 140.8,205.2 166.6,135.9 	"/>
</g>
</svg>
