<?xml version="1.0" encoding="utf-8"?>
<!-- Generator: Adobe Illustrator 22.1.0, SVG Export Plug-In . SVG Version: 6.00 Build 0)  -->
<svg version="1.1" id="Capa_1" xmlns="http://www.w3.org/2000/svg" xmlns:xlink="http://www.w3.org/1999/xlink" x="0px" y="0px"
	 viewBox="0 0 1368.5 1141" style="enable-background:new 0 0 1368.5 1141;" xml:space="preserve">
<style type="text/css">
	.st0{clip-path:url(#SVGID_2_);}
	.st1{fill:#5C5147;}
	.st2{clip-path:url(#SVGID_4_);fill:#936435;}
	.st3{clip-path:url(#SVGID_4_);fill:#53381D;}
	.st4{clip-path:url(#SVGID_4_);fill:#B88250;}
	.st5{clip-path:url(#SVGID_4_);fill:#7D5533;}
	.st6{clip-path:url(#SVGID_4_);fill:#D3A377;}
	.st7{clip-path:url(#SVGID_4_);fill:#7A5636;}
	.st8{clip-path:url(#SVGID_4_);fill:#332015;}
	.st9{clip-path:url(#SVGID_4_);fill:#1A0906;}
	.st10{clip-path:url(#SVGID_4_);fill:#FFFFFF;}
	.st11{clip-path:url(#SVGID_4_);fill:#6A492C;}
	.st12{clip-path:url(#SVGID_4_);fill:#2D1B10;}
	.st13{clip-path:url(#SVGID_4_);fill:#160602;}
	.st14{clip-path:url(#SVGID_4_);fill:#4F331E;}
	.st15{clip-path:url(#SVGID_4_);fill:#27190E;}
	.st16{clip-path:url(#SVGID_8_);fill:#86B481;}
	.st17{clip-path:url(#SVGID_8_);}
	.st18{fill:#B7E4B1;}
	.st19{fill:none;stroke:#98C693;stroke-width:10;stroke-miterlimit:10;}
	.st20{clip-path:url(#SVGID_8_);fill:none;stroke:#0A3805;stroke-width:8;stroke-linecap:round;stroke-linejoin:round;}
	.st21{clip-path:url(#SVGID_8_);fill:none;stroke:#0A3805;stroke-width:11;stroke-linecap:round;stroke-linejoin:round;}
	.st22{clip-path:url(#SVGID_8_);fill:#406E3B;}
	.st23{clip-path:url(#SVGID_8_);fill:#B7E4B1;}
	.st24{fill:#375133;}
	.st25{fill:#85B480;}
	.st26{fill:none;stroke:#85B480;stroke-width:8;stroke-linecap:round;stroke-linejoin:round;stroke-miterlimit:10;}
	.st27{clip-path:url(#SVGID_2_);fill:none;}
	.st28{clip-path:url(#SVGID_2_);fill:#3F7631;}
	.st29{clip-path:url(#SVGID_2_);fill:#5D9651;}
	
		.st30{clip-path:url(#SVGID_2_);fill:none;stroke:#5D9651;stroke-width:9;stroke-linecap:round;stroke-linejoin:round;stroke-miterlimit:10;}
</style>
<g>
	<defs>
		<rect id="SVGID_1_" y="-13.9" width="1368.5" height="1154.4"/>
	</defs>
	<clipPath id="SVGID_2_">
		<use xlink:href="#SVGID_1_"  style="overflow:visible;"/>
	</clipPath>
	<g class="st0">
		<rect x="-432.3" y="556.1" class="st1" width="1610.8" height="57.8"/>
		<g>
			<defs>
				<rect id="SVGID_3_" x="-432.3" y="238.7" width="2482" height="679"/>
			</defs>
			<clipPath id="SVGID_4_">
				<use xlink:href="#SVGID_3_"  style="overflow:visible;"/>
			</clipPath>
			<path class="st2" d="M929.6,474.2c-31.8-11.4-55.3,8.8-88.8,23.3c0,0-90.6,13.7-143.7,21.7c-45.3,6.8-152.6-82.7-152.6-82.7
				s26.2-83.2,101.5-130.2c0,0,53-49.4,80.3-57.5c31.7-9.4,66.8-16.6,142.6-0.4c47,10.1,138.9,40.3,158.8,94.5
				c11.4,31.1,16.8,131.3,16.8,131.3S956.6,483.8,929.6,474.2"/>
			<path class="st3" d="M937.2,474.2c0,0-20.7-52.3-109.8-29.2c0,0-121.2,39-141.9,73.5l35-2.8l47.7-6.3c0,0,70.3-5.9,101.7-26
				C869.9,483.3,902.2,463.8,937.2,474.2"/>
			<path class="st3" d="M961,495.2c0,0,9.6,298.4,9.6,369.5c0,79.9,45.7,60.9,50.2,0c7-95.1,61.2-279.3,15-422.2L961,495.2z"/>
			<path class="st2" d="M776.8,554.5c0,0-25.5,18.1-23.2,32.6c0,0-2.5,23.1,25.7-9.9c0,0-12.1,31.3-7.2,34.8
				c4.9,3.5,12.6-1.7,12.6-1.7l12.1-30.7c0,0-12.8,27,2.5,31.4c15.3,4.5,23.7-12.3,23.7-12.3l19-38l3.2-22.2L776.8,554.5z"/>
			<path class="st4" d="M546.1,466.4c0,0,22.7,78.4,49.2,89.7c0,0,10,5.3,18.1,16.5c0,0,18.5,18.7,44.5-18.2c0,0,26.4-1.6,39.3-35.3
				c0.2-0.5,0.4-1.1,0.6-1.7l18.8-28.2l4-26.8c0,0-30.5-52.7-77.6-52.7c-47.1,0-44.6-4.9-89.4,31.7L546.1,466.4z"/>
			<path class="st4" d="M513.6,446.1c5.8-11.2,19.7-15.5,30.9-9.7c11.2,5.8,15.5,19.7,9.7,30.9L513.6,446.1z"/>
			<path class="st5" d="M524.1,450.9c2.8-5.4,9.5-7.5,14.9-4.7c5.4,2.8,7.5,9.5,4.7,14.9L524.1,450.9z"/>
			<path class="st4" d="M713,484.6c-3.3-12,3.7-24.4,15.7-27.7c12-3.3,24.4,3.7,27.7,15.7L713,484.6z"/>
			<path class="st5" d="M723.8,481.1c-1.6-5.8,1.8-11.8,7.6-13.4c5.8-1.6,11.8,1.8,13.4,7.6L723.8,481.1z"/>
			<path class="st6" d="M649.3,514.5l-11.5,17.3l14.6,24.3c0,0,8.3-9.6,8.8-16.8c0,0,25.1,0.1,24.4-20.9c-0.8-21,0-2.2,0-2.2
				L649.3,514.5z"/>
			<path class="st6" d="M606.7,514.5l11.5,17.3l-14.6,24.3c0,0-8.3-9.6-8.8-16.8c0,0-25.1,0.1-24.4-20.9c0.8-21,0-2.2,0-2.2
				L606.7,514.5z"/>
			<path class="st7" d="M697.8,463.6c0,0-39.7,6.3-50,38.1c-1,2.4-5,8.4-19.2,7.2c0,0-8.6,2.9-18.3-10
				c-11.2-30.2-49.3-36.2-49.3-36.2c-7.2,75.3,34.7,70.9,47.5,67.8c1.3,1.3,2.7,2.3,4.2,3.2c-6.6,4.5-10.9,12.1-10.9,20.6
				c0,13.9,11.3,25.1,25.3,25.1c14,0,25.3-11.2,25.3-25.1c0-8.5-4.3-16.1-10.9-20.6c2.8-1,5-2,6.5-2.8
				C657.1,534.3,702.3,547,697.8,463.6"/>
			<path class="st8" d="M678.6,496.9c0,0-27.6-7.1-29.3,28.4c0,0,26,8.9,29.3-7.1C678.6,518.2,683,508.1,678.6,496.9"/>
			<path class="st9" d="M674.8,503c0,0-21-5-22.2,20.1c0,0,19.7,6.3,22.2-5C674.8,518.1,678.2,511,674.8,503"/>
			<path class="st10" d="M664.5,511.2c0,1.8-1.5,3.3-3.3,3.3c-1.8,0-3.3-1.5-3.3-3.3c0-1.8,1.5-3.3,3.3-3.3
				C663,507.9,664.5,509.3,664.5,511.2"/>
			<path class="st11" d="M678.7,497.2L678.7,497.2c1.4,3.6,1.8,7.1,1.9,10.2C680.5,504.3,680.1,500.8,678.7,497.2"/>
			<path class="st12" d="M678.7,497.2c0,0.1-1.2,2.1-3.8,5.9c3.3,7.9,0,15,0,15c-1.2,5.4-6.2,6.8-11.2,6.8c-5.5,0-11-1.7-11-1.7
				c0.1-1.2,0.2-2.3,0.3-3.4c-1,1.1-1.7,2.7-1.8,4.8c0,0,6.8,2.4,13.7,2.4c6.2,0,12.5-1.9,13.9-9.2c0,0,1.8-4.3,1.9-10.3
				C680.5,504.3,680,500.8,678.7,497.2"/>
			<path class="st13" d="M674.8,503.1c-1.8,2.6-4.3,6.1-7.6,10.4c-2.5,3.3-10.7,2.3-14.4,6.3c-0.1,1.1-0.3,2.2-0.3,3.4
				c0,0,5.5,1.7,11,1.7c5,0,10-1.4,11.2-6.8C674.8,518.1,678.2,511,674.8,503.1"/>
			<path class="st8" d="M581.5,497c0,0,26-6.8,27.6,27.4c0,0-24.5,8.5-27.6-6.8C581.5,517.5,577.3,507.8,581.5,497"/>
			<path class="st11" d="M579.7,507.4c0,6.2,1.8,10.6,1.8,10.6c1.5,7.3,7.8,9.2,13.9,9.2c6.9,0,13.7-2.4,13.7-2.4c0-0.1,0-0.3,0-0.4
				c-0.5,0.2-7,2.4-13.6,2.4c-6.2,0-12.5-1.9-13.9-9.2C581.5,517.5,579.7,513.3,579.7,507.4"/>
			<path class="st12" d="M581.5,497.4c-1.4,3.5-1.8,6.9-1.8,9.9c0,6,1.8,10.2,1.8,10.2c1.5,7.3,7.7,9.2,13.9,9.2
				c6.6,0,13.2-2.2,13.6-2.4c-0.8-9.1-13-6.5-16.2-10.6C584.7,503.1,581.5,497.4,581.5,497.4"/>
			<path class="st9" d="M584.9,501.2c0,0,21-5,22.2,20.1c0,0-19.7,6.3-22.2-5C584.9,516.3,581.6,509.1,584.9,501.2"/>
			<path class="st10" d="M595.3,509.3c0,1.8,1.5,3.3,3.3,3.3c1.8,0,3.3-1.5,3.3-3.3s-1.5-3.3-3.3-3.3
				C596.8,506,595.3,507.5,595.3,509.3"/>
			<path class="st7" d="M648,425.1c0,0-17.1,34.9-23.3,67.1c0,0-6.6-62.4-6.1-69.1C619.3,415,648,425.1,648,425.1"/>
			<path class="st14" d="M627.8,521.4h-0.6c-4.8,0-8.7,3.9-8.7,8.7v18.1c0,4.8,3.9,8.7,8.7,8.7h0.6c4.8,0,8.7-3.9,8.7-8.7V530
				C636.5,525.3,632.6,521.4,627.8,521.4"/>
			<path class="st8" d="M645.9,563.6c0,9.2-8.9,16.7-19.9,16.7c-11,0-19.9-7.5-19.9-16.7s8.9-16.7,19.9-16.7
				C637,546.9,645.9,554.4,645.9,563.6"/>
			<path class="st9" d="M619.8,560.7c0,1.6-1.6,2.9-3.5,2.9s-3.5-1.3-3.5-2.9s1.6-2.9,3.5-2.9S619.8,559.1,619.8,560.7"/>
			<path class="st9" d="M639.8,560.7c0,1.6-1.6,2.9-3.5,2.9s-3.5-1.3-3.5-2.9s1.6-2.9,3.5-2.9S639.8,559.1,639.8,560.7"/>
			<path class="st2" d="M766.5,517c0,0,21.8,9.5,10.1,36.3c0,0,9.5,49.2,54.2,13.4c0,0,19-11.4,16.2-57.4c0,0,15.1-81.8-26.3-109.8
				l-54.2-7.3c0,0-39.2,3.9-21.6,47C744.9,439.2,778.2,477.3,766.5,517"/>
			<path class="st2" d="M1057.2,486l-65.4,38.8c0,0-26.3-30.7-52-43.6c0,0-53.1-31.3-45.8-73.8c0,0,40.3-62,110.7,0
				c0,0,35.8,30.2,38.6,53.7c0,0,4.5,11.2,14,17.9C1057.2,478.9,1064.5,481.7,1057.2,486"/>
			<path class="st7" d="M634.9,409.8c0,0,0,0,0-0.1c0.1-1.4,1.2-13.5,5.5-27.2c2.2-6.8,5.2-14.1,9.2-20.5
				c4.1-6.4,9.2-12.1,15.6-15.8l0.5-0.3l0.2-0.6l0,0c0.2-0.8,4.8-16,14.6-31.8c4.9-7.9,11.1-15.9,18.7-22.5
				c7.6-6.5,16.6-11.5,27.2-13.4l-0.5-3.1c-11.4,2-21,7.4-29,14.4c-12,10.4-20.5,24.3-26,35.5c-5.5,11.2-8,19.9-8,19.9l1.5,0.4
				l-0.8-1.4c-7.2,4.2-12.8,10.5-17.1,17.5c-6.5,10.5-10.2,22.6-12.3,32.2c-2.1,9.5-2.6,16.4-2.6,16.5L634.9,409.8z"/>
			<path class="st15" d="M752.2,588.2c0,0,9.8-8.7,10.3,4.8c0,0-5.3,13.1-17.9,12.3C744.7,605.3,754.7,591.9,752.2,588.2"/>
			<path class="st15" d="M799.4,607.4c0,0,9.8-8.7,10.3,4.8c0,0-5.3,13.1-17.9,12.3C791.9,624.5,802,611.1,799.4,607.4"/>
			<path class="st15" d="M784.8,610.4c0,0,1.2-13-10-5.5c0,0-7.4,12.1,0.7,21.7C775.6,626.6,780.4,610.6,784.8,610.4"/>
			<path class="st2" d="M998.6,520.7c0,0-59.4,15.6-48.9,65.1l24.4,7.5c0,0,10.4,4.6,21.7-26.4c0,0,13.4-16.8,38.6-15.9
				c0,0,51.2-18.9,36.9-51.2c0,0-3.1-13.8-14.1-21c-11-7.1-45.8,21.8-45.8,21.8"/>
			<path class="st15" d="M967.5,591.2c0,0,1.2-13-10-5.5c0,0-7.4,12.1,0.7,21.7C958.3,607.4,963.1,591.4,967.5,591.2"/>
			<path class="st15" d="M980.6,591.2c0,0,1.2-13-10-5.5c0,0-7.4,12.1,0.7,21.7C971.4,607.4,976.2,591.4,980.6,591.2"/>
			<path class="st15" d="M958.1,587.6c0,0,1.2-13-10-5.5c0,0-7.4,12.1,0.7,21.7C948.9,603.8,953.7,587.7,958.1,587.6"/>
			<path class="st2" d="M970.7,538.6c0,0-33.7,4.1-40,11.6c0,0-5.7,15.9,14.4,13.8l13.1,0.2L970.7,538.6z"/>
			<path class="st15" d="M937.2,555c0,0,1.2-13-10-5.5c0,0-7.4,12.1,0.7,21.7C927.9,571.1,932.8,555.1,937.2,555"/>
			<path class="st2" d="M549.4,476.9c0,0,4.9,42.5-18.1,41.5c-4.8-0.2-12-3.4-20.1-1.9c-16,3.1-31.5,13.9-10.1,26.1
				c0,0,50.9,21.4,59.2,15.1c8.3-6.3,23.4-10.8,23.4-10.8l-35.2-72.8"/>
			<path class="st2" d="M491.7,526.7c0,0-19.4,21.5-9.6,31.3s36.8,22.7,41.5,12.2l20.6-25.2L491.7,526.7z"/>
			<path class="st15" d="M519.9,565.8c0,0,0.6-13.1-10.2-5.1c0,0-6.9,12.4,1.7,21.6C511.4,582.4,515.5,566.1,519.9,565.8"/>
			<path class="st15" d="M504.4,565.8c0,0,0.6-13.1-10.2-5.1c0,0-6.9,12.4,1.7,21.6C495.9,582.4,500,566.1,504.4,565.8"/>
			<path class="st15" d="M491.6,557.1c0,0,0.6-13.1-10.2-5.1c0,0-6.9,12.4,1.7,21.6C483.1,573.7,487.2,557.4,491.6,557.1"/>
		</g>
	</g>
	<g class="st0">
		<g>
			<defs>
				<rect id="SVGID_5_" x="-425.5" y="-2872.6" width="3007.5" height="3821"/>
			</defs>
			<clipPath id="SVGID_6_">
				<use xlink:href="#SVGID_5_"  style="overflow:visible;"/>
			</clipPath>
		</g>
		<g>
			<defs>
				<rect id="SVGID_7_" x="-446" y="-2680.4" width="3007.5" height="3821"/>
			</defs>
			<clipPath id="SVGID_8_">
				<use xlink:href="#SVGID_7_"  style="overflow:visible;"/>
			</clipPath>
			<path class="st16" d="M631.3,1031.9c30.6,18.4-61.2,179.8-70.8,191.1c-9.6,11.3-65.5-30.2-87.1-43.7
				c-21.6-13.5-38.2,3.7-40.8,9.1c-2.6,5.4,95.4,58.8,93.6,80.7c-1.8,21.9-62.7,78.6-81.6,86.5c-18.9,7.9-57.9-39-80.7-33.5
				c-22.8,5.5-22.9,12.9-22.9,12.9c31.8,12.7,72.4,45.1,71.2,50.7c-1.2,5.7-57.9,42.6-81.9,53.8c-19.2,9-123.1-33.3-164-50.6
				c0,0,215.2-217.4,350.9-267.2c0,0-182.8,23.7-372.6,240.6c-6.5-26.4-16.4-76.3-15.3-128.7c1.7-76.8,21.2-152.7,60.1-166.7
				c38.9-14,54.1,124.2,57.8,133.9c3.7,9.7,12.4,2.6,18.6-12.9c6.2-15.6-30.6-133.5-30.3-167.6c0.3-34.1,118.1-35.7,143.5-33.3
				c25.4,2.4,34.9,11.9,33.3,53.1c-1.6,41.2,13.1,53.2,20.2,50.3c7-3,8.1-88.8,9.3-98.9C443,981.5,600.7,1013.5,631.3,1031.9"/>
			<g class="st17">
				<path class="st18" d="M-181.1,646.5c0,0,357.4-294.2,354.4-371.9C173.3,274.6-90.8,406.3-181.1,646.5"/>
				<path class="st18" d="M-263,755c0,0,391.2-102.5,502.2-357.7C239.2,397.3-211.9,651.2-263,755"/>
				<path class="st18" d="M-318.7,840.5c0,0,354.2-18.5,577.3-195.2C258.7,645.4-162.7,722.1-318.7,840.5"/>
				<path class="st18" d="M214.6,798.7c0,0-488.9,51.1-621.1,155C-406.5,953.6-67.5,980.1,214.6,798.7"/>
				<path class="st18" d="M167.1,984.5c0,0-488.7-52.2-639.7,21.7C-472.6,1006.2-146.6,1102.9,167.1,984.5"/>
				<path class="st18" d="M61.1,1172c0,0-471.7-138-633.5-92C-572.3,1079.9-268.7,1232.9,61.1,1172"/>
				<path class="st18" d="M-199.7,648c0,0,12.2-320,126.5-453.8C-73.2,194.2-97.2,562.8-199.7,648"/>
				<path class="st18" d="M-264.5,736.4c0,0,78.7-149.7,44.5-583.7C-219.9,152.7-368.5,445.2-264.5,736.4"/>
				<path class="st18" d="M-332.3,826c0,0,23.8-292-99.3-588C-431.6,238-461.6,649-332.3,826"/>
				<path class="st18" d="M-407.9,934.9c0,0,1.2-4.9,2.6-15c6.8-51.9,15-240.2-140.5-588.7C-545.9,331.2-549,727.6-407.9,934.9"/>
				<path class="st18" d="M-461.5,1007.7c0,0,3.7-190.6-179.1-531.8C-640.6,475.9-615.7,910.7-461.5,1007.7"/>
				<path class="st18" d="M-559.5,1074.7c0,0,3.7-190.6-179.1-531.8C-738.6,542.9-713.7,977.7-559.5,1074.7"/>
				<path class="st19" d="M-712.2,607.9c11.7,159.3,146.8,447.2,146.8,447.2 M-619.2,551.8c29.6,150.1,142.8,459.2,142.8,459.2
					 M-525.4,388.9c-8.5,113.8,112,520.4,112,520.4 M-423.7,264.6c-7.9,107.5,90.9,522.4,90.9,522.4 M-267,695.9
					c-8.5-109.8,31.6-490.1,31.6-490.1 M-176.4,634.8c22.5-177.9,79.2-395.9,79.2-395.9 M-181.7,648.7
					c34-94.3,358.3-374.8,358.3-374.8 M-320.8,844.2c273.9-61.4,527.7-185.6,527.7-185.6 M213.4,420.3c0,0-223.8,184.3-446.4,297.3
					 M-528.8,1081.6L63,1178 M-465.1,1012.7c283.5-3.5,619.4-25.2,619.4-25.2 M-409.5,958.1c377.2-54.7,587-153.2,587-153.2"/>
			</g>
			<path class="st20" d="M373.7-232.2c0,0-74.3,312.8,46.5,416.6c120.9,103.8,5.3,210.1,5.3,210.1"/>
			<path class="st21" d="M316.9-344.4c0,0-90.2,378.6-55.3,526.6c34.8,148,110.6,177.2,111.6,238.3c1.1,61.1-89.7,211.2-70.2,286
				s192.8,150.2,193.8,207.1"/>
			<path class="st20" d="M368.2,413.7c0,0-23.3,179.3,102.8,279.4"/>
			<path class="st22" d="M290.7,377.6c0,0,51.3-83.1,13.7-126.6c0,0-31.1-21.5-40,26.5c0,0-21.4-32.8-45.6-11.5
				C194.6,287.2,201.3,320.2,290.7,377.6"/>
			<path class="st16" d="M444.8,760c0,0,92.7-30.7,91.9-88.2c0,0-9.9-36.5-47.7-5.5c0,0,4.6-38.9-27.6-38.1
				C429.2,629,413.2,658.6,444.8,760"/>
			<path class="st23" d="M426.5,424.3c0,0,56.2-38.4,44.6-76.7c0,0-13.7-22.5-33,5.5c0,0-4.4-26.9-25.8-20.2
				C390.9,339.6,385.9,362.5,426.5,424.3"/>
			<path class="st22" d="M293.1,824.6c0,0,66.4,15,86.5-19.7c0,0,7.2-25.3-26.5-20.4c0,0,16.7-21.6-2.8-32.6
				C330.8,740.8,310.6,752.7,293.1,824.6"/>
			<path class="st22" d="M419.3,547.7c0,0,34.7-58.5,8-88.4c0,0-21.9-14.6-27.6,18.9c0,0-15.3-22.6-31.9-7.4
				C351.3,485.9,356.4,508.8,419.3,547.7"/>
			<path class="st23" d="M304.1,633.1c0,0,56.2-38.4,44.6-76.7c0,0-13.7-22.5-33,5.5c0,0-4.4-26.9-25.8-20.2
				C268.5,548.4,263.4,571.3,304.1,633.1"/>
			<path class="st16" d="M250.1,175.8c0,0,56.2-38.4,44.6-76.7c0,0-13.7-22.5-33,5.5c0,0-4.4-26.9-25.8-20.2
				C214.6,91.1,209.5,114,250.1,175.8"/>
		</g>
	</g>
	<g class="st0">
		<path class="st24" d="M3.3,569.8c0,0-56.2-9.4-81.7,90.9c0,0-17,78.8,66.8,192.7c0,0,8.6,36.2,48.8,77.9c0,0,41.5,60.4,70.4,70.9
			c0,0,29.8,25.3,35.8,25.8c0,0,26,39.6,68.2,30.7c42.2-8.8,80.9-86.6,80.9-86.6s13.3-21.3,12-56.5c-1.3-35.2,5.9-151.1-62.1-265.4
			c0,0-126.2-190.9-222.9-92.9l-5.8,4.3L3.3,569.8z"/>
		<g>
			<path class="st25" d="M-15.2,537.7c0,0,129.3,230.5,201.2,424.2l15.1,57.4c0,0-5-131-67.3-223.5L-1.7,529.9L-15.2,537.7z"/>
			<path class="st26" d="M138.9,975.5c0.1-48.7,34.8-67.4,34.8-67.4 M64.2,930.7c0,0,33.2,13.6,47-4.9c13.7-18.5-16.5-25.3,11.2-44
				c27.7-18.7,22.6-48.7,22.6-48.7 M163.6,1039.4c-15-35.8,22.2-91,22.2-91 M245.2,1012.6c-14-24.7-54-54.8-54-54.8 M279.3,953.3
				c-61.2,11.2-114.6-80.6-114.6-80.6 M258.7,862.9c-10.9-10.1-24.4-12-36-9.2c-11.6,2.7-23.6-0.5-40.4-14.3
				c-16.7-13.8-46.9-17.3-46.9-17.3 M287.6,801.8c0,0-56.3,27.7-88.8,4c-32.5-23.7-72.9-12.4-72.9-12.4 M23.6,834.4
				C8.2,798,88.9,724.4,88.9,724.4 M48.3,896.6c15.8-27.1,20.3-49.5,16.9-68.3c-3.3-18.8,48.2-61.3,48.2-61.3 M-28.6,763.5
				c4.9,0.4,2.7-37.6,47.9-73.3c11-8.7,28.7-51.4,28.7-51.4 M219.2,669.5c-21.9-19.1-70.6-12.5-70.6-12.5
				c-35.5,11.8-92.8-4.7-92.8-4.7 M254.7,787c-17.3-21.9-19.1-15-83.4-22.9c-64.4-7.9-56.5-32.3-56.5-32.3
				c41.9-15.3,143.9,6.1,143.9,6.1"/>
			<path class="st26" d="M169.4,605.9c-67.8-67.6-124-27.8-124-27.8l14.3,37.4c0,0,35.9,19.9,128.1,13.6 M-58.7,711.2
				c-9.8-95.1,56.6-113.5,56.6-113.5l20,34.7c0,0-29.9,13.2-58.8,73.8"/>
		</g>
	</g>
	<rect y="241" class="st27" width="1813" height="900"/>
	<path class="st28" d="M107.4-30.5c0,0,95.4-104.8,130,50.1c25,112.1-88.8,243.8-307.8,312.8c0,0-71.9-145.4-27.1-311.6
		c0,0,23.4-119.1,124.4-144.5C127.8-149.2,107.4-30.5,107.4-30.5"/>
	<path class="st29" d="M-23.7,271c0,0,87.8-271.4,110.9-256.8C87.2,14.3,119.2,4.1-23.7,271"/>
	<path class="st30" d="M64.9,51.4c42.7-77.8,145.5-71.6,145.5-71.6 M178.9,171.9C143.8,72.4,79,37,79,37
		c52.5-37.2,136.9,36.4,136.9,36.4 M-33.1-50.2c0,0,70.7,15.1,115.6,72.6 M84.9,23.6C94.4-53.1,34.8-103,34.8-103 M107,219
		c2-46.7-52.3-113.4-52.3-113.4 M-72.7,45.6C35.3,19.3,70.8,38.9,70.8,38.9 M-81.6,165.5C-8,107.8,33.6,117.7,33.6,117.7"/>
</g>
</svg>
