<?xml version="1.0" encoding="utf-8"?>
<!-- Generator: Adobe Illustrator 22.1.0, SVG Export Plug-In . SVG Version: 6.00 Build 0)  -->
<svg version="1.1" id="Capa_1" xmlns="http://www.w3.org/2000/svg" xmlns:xlink="http://www.w3.org/1999/xlink" x="0px" y="0px"
	 viewBox="0 0 336 170" style="enable-background:new 0 0 336 170;" xml:space="preserve">
<style type="text/css">
	.st0{enable-background:new    ;}
	.st1{fill:#0A3805;}
</style>
<g>
	<g class="st0">
		<path class="st1" d="M75.3,34c0,1.9,0.1,3.8,0.2,5H74C71.5,27.5,66.2,24,61.2,24h-0.9c-3.6,0-4.2,0.6-4.2,4.4v17.7h0.7
			c5.2,0,8.6-5.1,9.4-9.1h1.6c-0.2,3-0.3,5.1-0.3,6.7c0,1.2,0,2.1,0,3.1c0,2.3,0.1,4.6,0.4,9.8h-1.6c-0.8-5.1-4.4-9.2-9.6-9.2h-0.7
			v15.9c0,5.7,1.3,6.5,7.7,6.5v1.6c-3.1-0.1-8.5-0.2-14.3-0.2c-4.2,0-8.7,0.1-12.4,0.2v-1.4c4.2-0.2,4.9-0.9,4.9-6V29.7
			c0-5-0.8-5.8-4.9-6v-1.4c8.1,0.2,19.3,0.2,24.3,0.2c4.2,0,10.2,0,14.5-0.2C75.5,27,75.3,31.7,75.3,34z"/>
		<path class="st1" d="M94.3,65c0,3.9,1,5,3.9,5v1.5c-1.9-0.1-6-0.3-9.8-0.3c-3.9,0-8.4,0.2-10.4,0.3V70c2.8,0,3.9-1.1,3.9-5V25.6
			c0-4.2-1-6.1-3.9-6.1V18c1.5,0.1,2.9,0.2,4.3,0.2c4.6,0,8.6-0.3,12-1V65z"/>
		<path class="st1" d="M136.5,53.5c0,14-7.1,18.9-17.8,18.9c-10.8,0-17.8-4.9-17.8-18.9c0-14,7.1-19,17.8-19
			C129.4,34.5,136.5,39.5,136.5,53.5z M113.8,53.5c0,12.4,2.1,17.5,4.9,17.5s4.8-5.1,4.8-17.5c0-12.4-2.1-17.6-4.8-17.6
			S113.8,41.1,113.8,53.5z"/>
		<path class="st1" d="M171.8,41.5c0,4.2-2.6,6.8-6.4,6.8c-4.1,0-6.2-2-6.2-5c0-3.1,1.5-5.1,3.6-6.5c-0.8,0-1.5,0.1-2.2,0.5
			c-2.3,1-4.1,3.4-4.1,6.2v20.8c0,4.4,1.8,5.7,6,5.7v1.5c-2.1-0.1-6.8-0.3-11.2-0.3c-4.2,0-9,0.2-11.1,0.3V70c2.8,0,3.9-1.1,3.9-5
			V43c0-4.2-1-6.1-3.9-6.1v-1.5c1.5,0.1,2.9,0.2,4.3,0.2c4.6,0,8.6-0.3,12-0.9v5c1.8-3.5,4.9-5.2,9-5.2
			C170.4,34.5,171.8,38.3,171.8,41.5z"/>
		<path class="st1" d="M202.1,38c1.9,2,2.3,4.9,2.3,9.7v18.5c0,2.2,0.3,3,1,3c0.8,0,1.5-0.5,2.2-1l0.7,1.2c-2.2,1.9-5,2.5-9,2.5
			c-5.2,0-7.1-2.5-7.1-5.2c-1.9,3.2-5.6,5.2-9.9,5.2c-5.5,0-8.7-3.2-8.7-7.9c0-4.7,2.7-7.8,8.8-9.8c5.4-1.9,9.6-3.3,9.6-6.4v-6.2
			c0-2.1-0.7-5.7-5.1-5.7c-1.2,0-2.6,0.5-3.7,1.2c3,1.1,4.6,3.1,4.6,6.3c0,3.2-2.6,5.8-6.7,5.8c-3.5,0-5.7-2.6-5.7-6.1
			c0-2.9,1.8-5,4.3-6.4c2.8-1.5,6.3-2.2,11.1-2.2C195.6,34.5,199.5,35.2,202.1,38z M191.9,50.6c-0.6,0.9-1.7,2.1-2.7,3
			c-2.1,2-3.4,4.4-3.4,7.8c0,3.6,1.5,4.9,3.5,4.9c1,0,1.7-0.3,2.6-1.2V50.6z"/>
	</g>
	<g>
		<g class="st0">
			<path class="st1" d="M86,115.4c2.8,1.9,4.7,5.9,4.7,10.7c0,10.5-10.8,17.3-25.7,17.3c-17.6,0-27.5-6.6-27.5-17.3
				c0-10.6,10.7-14.5,14.9-15.5c-4.2-1.5-8.4-3.8-8.4-8.6c0-6.9,8.7-9.2,15.2-9.2c3.6,0,5.4,0.3,7.2,0.9c2.3,0.8,5.2,2.6,5.2,6.2
				c0,3.2-2.8,5.2-6.3,5.2c-3.3,0-6-1.5-6-4.8c0-2.6,1.9-5,4.9-5.8c-1-0.3-2.6-0.5-4.1-0.5c-4.9,0-9.1,3-9.1,9.6
				c0,1.7,0.4,4.2,2.2,6.5c1.5-0.4,2.5-0.6,3.6-0.6c1.7,0,2.4,0.8,2.4,2c0,0.9-0.9,1.5-2,1.5c-1.5,0-3.1-1.2-4-2
				c-3.7,2.6-6.3,5.8-6.3,11.1c0,8.9,7.6,12.5,21.3,12.5c8.9,0,19.7-3.8,19.7-11.6c0-1.7,0-5.1-3.1-7.4c-1.5,0.3-3,0.6-4.7,0.8
				c-1.7,0.3-3.4,0.5-5,0.8c-9.6,1.7-14.6,3.3-14.6,7.1c0,3.4,4.2,5.6,8.2,5.6c0.7,0,1.3-0.1,1.9-0.2c-2.8-1-3.7-3.2-3.7-5.2
				c0-3.4,2.9-5.2,6.7-5.2c4.1,0,6.4,2.1,6.4,5.3c0,4.6-4.3,6.5-10.9,6.5c-6.6,0-11.4-3.2-11.4-9.4c0-8.8,7.6-12.8,19.4-14.5
				c2-0.3,4-0.7,6-1c8-1.3,13.4-2.8,13.4-7c0-3.6-4-5.8-7.7-5.8c-0.7,0-1.3,0.1-1.9,0.1c2.8,1,4.3,3.2,4.3,5.2
				c0,3.4-2.8,5.1-6.6,5.1c-4.1,0-6.6-2.1-6.6-5.3c0-3.8,2.8-6.5,9.3-6.5c7,0,11.6,3.7,11.6,10C99.3,109.6,94.5,113.3,86,115.4z"/>
			<path class="st1" d="M144.4,90.7c1.3,1,2.6,3,2.6,5.8c0,2.8-2.4,5.6-5.8,5.6c-3.8,0-6.3-2.1-6.3-5.8c0-2.6,1.5-5.1,4.8-6.2
				c-0.3-0.3-0.9-0.6-1.9-0.6c-1.6,0-2.5,0.5-3.2,1.3c-0.8,1-1.3,2.6-1.3,6.3v9.3h7.4v1.4h-7.4v27.4c0,4.5,2.2,5.7,6,5.7v1.5
				c-2.5-0.1-7.6-0.3-12.7-0.3c-3.8,0-7.7,0.2-9.6,0.3v-1.5c2.8,0,3.9-1.1,3.9-5v-28.1h-4.2v-1.4h4.2c0-8.2,1.3-11.7,4.9-14.8
				c2.2-1.9,6.1-3.5,10.3-3.5C139.8,88.2,142.4,89.1,144.4,90.7z"/>
			<path class="st1" d="M178.9,134.8c0,4.2,1,6.1,3.9,6.1v1.5c-1.5-0.1-2.9-0.2-4.3-0.2c-4.6,0-8.6,0.3-12,1v-5
				c-2.2,3.7-6.1,5.2-11,5.2c-4.2,0-6.5-1.2-7.8-2.8c-1.4-1.7-2-4.2-2-8.9v-17.7c0-4.2-0.9-6.1-3.9-6.1v-1.5
				c1.5,0.1,2.9,0.2,4.3,0.2c4.6,0,8.6-0.3,12-0.9v29.7c0,2.9,1,4.4,3.4,4.4c2.6,0,5-2.1,5-5v-20.8c0-4.2-1-6.1-3.9-6.1v-1.5
				c1.5,0.1,2.9,0.2,4.3,0.2c4.6,0,8.6-0.3,12-0.9V134.8z"/>
			<path class="st1" d="M214.1,108.9c1.9,2,2.3,4.9,2.3,9.7v18.5c0,2.2,0.3,3,1,3c0.8,0,1.5-0.5,2.2-1l0.7,1.2c-2.2,1.9-5,2.5-9,2.5
				c-5.2,0-7.1-2.5-7.1-5.2c-1.9,3.2-5.6,5.2-9.9,5.2c-5.5,0-8.7-3.2-8.7-8c0-4.7,2.7-7.8,8.8-9.8c5.4-1.9,9.6-3.3,9.6-6.4v-6.2
				c0-2.1-0.7-5.7-5.1-5.7c-1.2,0-2.6,0.5-3.7,1.2c3,1.1,4.6,3.1,4.6,6.3c0,3.2-2.6,5.8-6.7,5.8c-3.5,0-5.7-2.6-5.7-6.1
				c0-2.9,1.8-5,4.3-6.4c2.8-1.5,6.3-2.2,11.1-2.2C207.7,105.4,211.5,106.1,214.1,108.9z M204,121.5c-0.6,0.9-1.7,2.1-2.7,3
				c-2.1,2-3.4,4.4-3.4,7.8c0,3.6,1.5,4.9,3.5,4.9c1,0,1.7-0.3,2.6-1.2V121.5z"/>
			<path class="st1" d="M257.4,108.2c1.4,1.7,2,4.2,2,9v18.8c0,3.9,1,5,3.9,5v1.5c-1.9-0.1-6.1-0.3-9.7-0.3c-3.9,0-8,0.2-9.8,0.3
				v-1.5c2.4,0,3.2-1.1,3.2-5v-22.5c0-2.9-1-4.4-3.4-4.4c-2.6,0-5,2.1-5,5v21.9c0,3.9,0.8,5,3.2,5v1.5c-1.8-0.1-5.5-0.3-9.2-0.3
				c-3.9,0-8.4,0.2-10.4,0.3v-1.5c2.8,0,3.9-1.1,3.9-5v-22c0-4.2-1-6.1-3.9-6.1v-1.5c1.5,0.1,2.9,0.2,4.3,0.2c4.6,0,8.6-0.3,12-0.9
				v5c2.2-3.7,6.1-5.2,11-5.2C253.8,105.4,256.1,106.6,257.4,108.2z"/>
			<path class="st1" d="M294.2,108.9c1.9,2,2.3,4.9,2.3,9.7v18.5c0,2.2,0.3,3,1,3c0.8,0,1.5-0.5,2.2-1l0.7,1.2c-2.2,1.9-5,2.5-9,2.5
				c-5.2,0-7.1-2.5-7.1-5.2c-1.9,3.2-5.6,5.2-9.9,5.2c-5.5,0-8.7-3.2-8.7-8c0-4.7,2.7-7.8,8.8-9.8c5.4-1.9,9.6-3.3,9.6-6.4v-6.2
				c0-2.1-0.7-5.7-5.1-5.7c-1.2,0-2.6,0.5-3.7,1.2c3,1.1,4.6,3.1,4.6,6.3c0,3.2-2.6,5.8-6.7,5.8c-3.5,0-5.7-2.6-5.7-6.1
				c0-2.9,1.8-5,4.3-6.4c2.8-1.5,6.3-2.2,11.1-2.2C287.8,105.4,291.6,106.1,294.2,108.9z M284,121.5c-0.6,0.9-1.7,2.1-2.7,3
				c-2.1,2-3.4,4.4-3.4,7.8c0,3.6,1.5,4.9,3.5,4.9c1,0,1.7-0.3,2.6-1.2V121.5z"/>
		</g>
	</g>
</g>
</svg>
