<?xml version="1.0" encoding="utf-8"?>
<!-- Generator: Adobe Illustrator 22.1.0, SVG Export Plug-In . SVG Version: 6.00 Build 0)  -->
<svg version="1.1" id="Capa_1" xmlns="http://www.w3.org/2000/svg" xmlns:xlink="http://www.w3.org/1999/xlink" x="0px" y="0px"
	 viewBox="0 0 594 768" style="enable-background:new 0 0 594 768;" xml:space="preserve">
<style type="text/css">
	.st0{fill:#1C2546;}
	.st1{fill:#1D355E;}
	.st2{fill:#115084;}
	.st3{fill:#0087A5;}
	.st4{clip-path:url(#SVGID_2_);fill:#0087A5;}
	.st5{clip-path:url(#SVGID_4_);fill:#00A8D7;}
	.st6{clip-path:url(#SVGID_6_);fill:#115084;}
	.st7{fill:none;stroke:#212A53;stroke-width:3;stroke-miterlimit:10;}
	.st8{fill:none;stroke:#1D355E;stroke-width:3;stroke-miterlimit:10;}
	.st9{fill:#E99A00;}
	.st10{fill:#1C1E3F;}
	.st11{opacity:0.68;}
	.st12{fill:#00A8D7;}
	.st13{fill:#172E4D;}
	.st14{fill:none;stroke:#1D1D1B;stroke-width:1.5;stroke-linecap:round;stroke-linejoin:round;stroke-miterlimit:10;}
	.st15{fill:none;stroke:#172E4D;stroke-width:2;stroke-linecap:round;stroke-linejoin:round;stroke-miterlimit:10;}
	.st16{clip-path:url(#SVGID_8_);}
	.st17{opacity:0.59;}
	.st18{fill:#EC6B1C;}
	.st19{fill:#93C01F;}
	.st20{opacity:0.31;fill:#DDDB00;}
	.st21{fill:#FFFFFF;}
	.st22{fill:#00B0D6;stroke:#DDDB00;stroke-miterlimit:10;}
	.st23{fill:#19223D;}
	.st24{fill:#212A53;}
	.st25{opacity:0.3;}
	.st26{opacity:0.6;}
	.st27{opacity:0.2;clip-path:url(#SVGID_10_);}
	.st28{fill:none;stroke:#1C1E3F;stroke-width:3;stroke-linecap:round;stroke-linejoin:round;stroke-miterlimit:10;}
	.st29{clip-path:url(#SVGID_12_);}
	.st30{fill:none;stroke:#1C1E3F;stroke-width:2;stroke-linecap:round;stroke-linejoin:round;stroke-miterlimit:10;}
	.st31{clip-path:url(#SVGID_14_);}
</style>
<g>
	<path class="st0" d="M170.4,723.5H184c25.6,0,46.5-20.9,46.5-46.5l0-250.9c0-25.6-20.9-46.5-46.5-46.5h-13.6
		c-25.6,0-46.5,20.9-46.5,46.5l0,250.9C123.9,702.6,144.8,723.5,170.4,723.5z"/>
	<path class="st1" d="M170.7,705.5h8.9c19.4,0,35.2-15.8,35.2-35.2l0-194.6c0-19.4-15.8-35.2-35.2-35.2h-8.9
		c-19.4,0-35.2,15.8-35.2,35.2l0,194.6C135.5,689.7,151.4,705.5,170.7,705.5z"/>
	<path class="st2" d="M140.1,456.8h3.6c6,0,11.3,3.4,14,8.4l36.8,12.6c2.6-5,7.8-8.4,13.8-8.4h6.4c8.6,0,15.6,7,15.6,15.6l0,114.1
		c0,8.6-7,15.6-15.6,15.6h-6.4c-6,0-11.2-3.4-13.8-8.4l0,19.6c0,10.1-8.3,18.4-18.4,18.4c-10.1,0-18.4-8.3-18.4-18.4l0-16
		c-2.7,5-8,8.4-14,8.4h-3.6c-8.8,0-16-7.2-16-16l0-129.5C124.2,464,131.4,456.8,140.1,456.8z"/>
	<path class="st3" d="M177.8,590.7h1.9c10.3,0,18.7-8.4,18.7-18.7l0-181c0-10.3-8.4-18.7-18.7-18.7h-1.9c-10.3,0-18.7,8.4-18.7,18.7
		l0,181C159.1,582.2,167.5,590.7,177.8,590.7z"/>
	<path class="st3" d="M211.2,555.1l1.8,0c9.5,0,17.2-7.8,17.2-17.2l0-155.5c0-9.5-7.8-17.2-17.2-17.2h-1.8
		c-9.5,0-17.2,7.8-17.2,17.2l0,155.5C194,547.4,201.7,555.1,211.2,555.1z"/>
	<g>
		<defs>
			<polygon id="SVGID_1_" points="152.7,366.7 123.5,410 124.2,602.3 230.7,597.1 230.8,414.2 			"/>
		</defs>
		<clipPath id="SVGID_2_">
			<use xlink:href="#SVGID_1_"  style="overflow:visible;"/>
		</clipPath>
		<path class="st4" d="M141.1,561.4h1.8c9.5,0,17.2-7.8,17.2-17.2l0-155.5c0-9.5-7.8-17.2-17.2-17.2h-1.8c-9.5,0-17.2,7.8-17.2,17.2
			l0,155.5C123.8,553.7,131.6,561.4,141.1,561.4z"/>
	</g>
	<g>
		<defs>
			<polygon id="SVGID_3_" points="163.1,351.2 123.5,412 124.2,528.6 230.4,523.2 230.8,404.7 			"/>
		</defs>
		<clipPath id="SVGID_4_">
			<use xlink:href="#SVGID_3_"  style="overflow:visible;"/>
		</clipPath>
		<path class="st5" d="M139.8,323.1h4.4c9,0,16.3,7.3,16.3,16.3l0,30.8c2.3-6.1,8.1-10.4,14.9-10.4h3.6c6.7,0,12.5,4.2,14.9,10.2
			v-29.7c0-9,7.3-16.3,16.3-16.3h4.4c9,0,16.3,7.3,16.3,16.3l0,128.9c0,9-7.3,16.3-16.3,16.3h-4.4c-6.9,0-12.8-4.3-15.2-10.4l0,30.2
			c0,8.8-7.2,16-16,16h-3.6c-8.8,0-16-7.2-16-16l0-31.4c-2.3,6.2-8.3,10.7-15.3,10.7h-4.4c-9,0-16.3-7.3-16.3-16.3l0-128.9
			C123.5,330.4,130.8,323.1,139.8,323.1z"/>
	</g>
	<g>
		<defs>
			<polygon id="SVGID_5_" points="184.5,319.5 123.5,410 123.7,617.6 230.1,617.6 230.7,408.7 			"/>
		</defs>
		<clipPath id="SVGID_6_">
			<use xlink:href="#SVGID_5_"  style="overflow:visible;"/>
		</clipPath>
		<path class="st6" d="M148.3,183h3.3c13,0,23.7,10.1,24.7,22.8c1.7-12.2,12.2-21.7,24.9-21.7h4.1c13.8,0,25.1,11.3,25.1,25.1
			l0,221.5c0,13.8-11.3,25.1-25.1,25.1h-4.1c-13,0-23.8-10-25-22.7c-1.6,12.1-12,21.6-24.6,21.6h-3.3c-13.7,0-24.8-11.2-24.8-24.8
			l0-222.1C123.5,194.2,134.7,183,148.3,183z"/>
	</g>
	<g>
		<path class="st0" d="M225.9,408.9c-4.9-7.8,34.5,46.1,64.7,49.5c0.8,0.1,1.7,0.2,2.5,0.2l0-49.7
			C293.1,408.9,263.6,410.9,225.9,408.9z"/>
		<path class="st1" d="M241.2,407.1c0,0,23.9,45.4,60.2,47.4v-49.7C301.4,404.7,278.9,409,241.2,407.1z"/>
		<g>
			<path class="st7" d="M290.7,454.9c0,0,27.5,2.8,32.3,14.6"/>
			<path class="st7" d="M313.8,479.8c-3.5-16.2-21.8-21.8-21.8-21.8s-8.2,13,8,27.4"/>
		</g>
		<g>
			<path class="st8" d="M299.2,450.9c0,0,27.5,2.8,32.3,14.6"/>
			<path class="st8" d="M322.2,475.8c-3.5-16.2-21.8-21.8-21.8-21.8s-8.2,13,8,27.4"/>
		</g>
	</g>
	<polygon class="st2" points="125.1,409.3 281.6,172.6 220.6,292 271.3,409.6 154.9,409.6 155.1,409.3 	"/>
	<ellipse class="st2" cx="278.6" cy="341.2" rx="78.9" ry="68.8"/>
	<path class="st9" d="M431.3,127c1.3,1.9,2.5,3.8,3.7,5.7l1.1,0c5.5,0.1,9.8,4.7,9.7,10.2l-1.2,47.4c0,2-0.7,3.9-1.8,5.4
		c-4.1,17.6-31.8,79.5-42.7,93.9c-8.7,11.4-39.9,41.2-39.9,41.2l18.8-49.8c0,0,1.2-3.5,11.9-18.3c10.7-14.8,18.3-47.9,18.3-47.9
		c-2.5-19.6,7-16.8,7-16.8l0-3.8c-0.7-1.4-1.1-2.9-1-4.6l0.5-18.6c-0.6-4.5-1.8-9.6-4.1-14.4"/>
	<path class="st2" d="M354.8,73.4c12-31.5,59.4-35.5,72.7-36l0.3-0.1l22.3,0c3.9,0,7.1,3.2,7.1,7.1c0,3.9-3.2,7.1-7.1,7.1h-9
		l-2.5,47.9l-17,22.1l1.6,31.7c0.9-0.1-0.9,5.4,0,5.6l1.2,2.1c4.5,1.1,7.3,5.7,6.2,10.1l-8.5,42.3c-1.8,4.6-7.9,8.9-13.4,9.3l0.1,1
		l-3.1,24.5l-13.3,24.2l-4.2,17.3c-1,4-4.8,6.7-8.8,6.4l-12.6,23l-2.5,10.3c-1.1,4.5-5.7,7.3-10.1,6.2l-0.4-0.1l-85.5,0.3
		l-56.8-42.8C211.7,258.5,354.8,73.4,354.8,73.4z"/>
	<g>
		<path class="st10" d="M307.9,175.5l49.7-59.7c4.1-4.9,3-11.7-2.4-15l-1.6-1c-4.1-2.5-10-1.6-13.1,2.1l-1.7-7.4l-26.5,35.4
			l-23,31.7c-4.1,4.9-1.5,11.6,3.9,15l1.6,1C298.9,180.2,304.8,179.2,307.9,175.5z"/>
		<path class="st10" d="M311.9,206.2l49.3-59.2c4.2-5,3.1-12-2.5-15.5l-2.1-1.3c-4.2-2.6-10.3-1.6-13.5,2.2l-49.3,59.2
			c-4.2,5-3.1,12,2.5,15.5l2.1,1.3C302.7,211,308.7,210.1,311.9,206.2z"/>
		<path class="st10" d="M319.2,229.4l49.8-59.9c4-4.8,2.9-11.5-2.4-14.8l-1.4-0.9c-4.1-2.5-9.9-1.6-12.9,2.1l-49.8,59.9
			c-4,4.8-2.9,11.5,2.4,14.8l1.4,0.9C310.3,234,316.1,233,319.2,229.4z"/>
		<path class="st10" d="M329.5,254.9l49.1-59c4.3-5.1,3.1-12.2-2.5-15.7l-2.3-1.4c-4.3-2.7-10.4-1.7-13.6,2.2l-49.1,59
			c-4.3,5.1-3.1,12.2,2.5,15.7l2.3,1.4C320.1,259.8,326.2,258.8,329.5,254.9z"/>
		<path class="st10" d="M348.9,260.5l50.7-60.8c3.8-4.5,2.8-10.8-2.2-13.9l-0.3-0.2c-3.8-2.4-9.2-1.5-12.1,2l-50.7,60.8
			c-3.8,4.5-2.8,10.8,2.2,13.9l0.3,0.2C340.6,264.8,346,263.9,348.9,260.5z"/>
		<path class="st10" d="M376.8,270.2l27.6-68.3c2.3-5.8-0.6-12-6.6-13.8l-3.3-1c-5-1.5-10.7,1.2-12.6,6l-27.6,68.3
			c-2.3,5.8,0.6,12,6.6,13.8l3.3,1C369.1,277.7,374.8,275,376.8,270.2z"/>
		<path class="st10" d="M399.4,275.8l13.9-71.5c0.9-4.4-2.1-8.6-6.6-9.2l-3.4-0.5c-4.1-0.6-8,2.2-8.8,6.2l-13.9,71.5
			c-0.9,4.4,2.1,8.6,6.6,9.2l3.4,0.5C394.6,282.6,398.6,279.8,399.4,275.8z"/>
	</g>
	<g class="st11">
		<path class="st1" d="M327,146.9l43-59.8c3.1-4.3,2.1-10.3-2.2-13.3l-0.8-0.6c-4.3-3.1-10.3-2.1-13.3,2.2l-43,59.8
			c-3.1,4.3-2.1,10.3,2.2,13.3l0.8,0.6C317.9,152.2,323.9,151.2,327,146.9z"/>
		<path class="st1" d="M330.6,177.5l42.4-59c3.2-4.5,2.2-10.8-2.3-14l-0.8-0.6c-4.5-3.2-10.8-2.2-14,2.3l-42.4,59
			c-3.2,4.5-2.2,10.8,2.3,14l0.8,0.6C321,183,327.4,181.9,330.6,177.5z"/>
		<path class="st1" d="M336.6,200.9l43.3-60.2c3-4.2,2-10-2.1-13l-0.8-0.6c-4.2-3-10-2-13,2.1l-43.3,60.2c-3,4.2-2,10,2.1,13
			l0.8,0.6C327.8,206,333.6,205.1,336.6,200.9z"/>
		<path class="st1" d="M345.8,226.1l42.2-58.6c3.3-4.6,2.2-11-2.3-14.3l-0.9-0.6c-4.6-3.3-11-2.2-14.3,2.3l-42.2,58.6
			c-3.3,4.6-2.2,11,2.3,14.3l0.9,0.6C336.1,231.7,342.5,230.7,345.8,226.1z"/>
		<path class="st1" d="M362,232.5l44.5-61.9c2.6-3.7,1.8-8.9-1.9-11.5l-0.7-0.5c-3.7-2.6-8.9-1.8-11.5,1.9l-44.5,61.9
			c-2.6,3.7-1.8,8.9,1.9,11.5l0.7,0.5C354.1,237,359.3,236.1,362,232.5z"/>
		<path class="st1" d="M386,241.9l24-68.5c1.8-5.2-1-11-6.2-12.9l-1-0.3c-5.2-1.8-11,1-12.9,6.2l-24,68.5c-1.8,5.2,1,11,6.2,12.9
			l1,0.3C378.4,249.9,384.2,247.1,386,241.9z"/>
		<path class="st1" d="M405.3,247.8l12-71.4c0.7-4.3-2.2-8.3-6.5-9.1l-0.8-0.1c-4.3-0.7-8.3,2.2-9.1,6.5L389,245
			c-0.7,4.3,2.2,8.3,6.5,9.1l0.8,0.1C400.5,255,404.6,252.1,405.3,247.8z"/>
	</g>
	<g>
		<path class="st3" d="M334.9,129.7l44.5-61.9c2.6-3.7,1.8-8.9-1.9-11.5l-0.7-0.5c-3.7-2.6-8.9-1.8-11.5,1.9l-44.5,61.9
			c-2.6,3.7-1.8,8.9,1.9,11.5l0.7,0.5C327.1,134.3,332.2,133.4,334.9,129.7z"/>
		<path class="st3" d="M337.3,160.1l44.5-61.9c2.6-3.7,1.8-8.9-1.9-11.5l-0.7-0.5c-3.7-2.6-8.9-1.8-11.5,1.9l-44.5,61.9
			c-2.6,3.7-1.8,8.9,1.9,11.5l0.7,0.5C329.5,164.6,334.7,163.7,337.3,160.1z"/>
		<path class="st3" d="M345,183.8l44.5-61.9c2.6-3.7,1.8-8.9-1.9-11.5l-0.7-0.5c-3.7-2.6-8.9-1.8-11.5,1.9L331,173.7
			c-2.6,3.7-1.8,8.9,1.9,11.5l0.7,0.5C337.2,188.3,342.4,187.5,345,183.8z"/>
		<path class="st3" d="M352.1,208.6l44.5-61.9c2.6-3.7,1.8-8.9-1.9-11.5l-0.7-0.5c-3.7-2.6-8.9-1.8-11.5,1.9L338,198.5
			c-2.6,3.7-1.8,8.9,1.9,11.5l0.7,0.5C344.2,213.1,349.4,212.3,352.1,208.6z"/>
		<path class="st3" d="M372.9,215.8l44.5-61.9c2.6-3.7,1.8-8.9-1.9-11.5l-0.7-0.5c-3.7-2.6-8.9-1.8-11.5,1.9l-44.5,61.9
			c-2.6,3.7-1.8,8.9,1.9,11.5l0.7,0.5C365,220.4,370.2,219.5,372.9,215.8z"/>
		<path class="st3" d="M392.6,225.7l25.2-72c1.5-4.3-0.8-9-5.1-10.5l-0.8-0.3c-4.3-1.5-9,0.8-10.5,5.1l-25.2,72
			c-1.5,4.3,0.8,9,5.1,10.5l0.8,0.3C386.4,232.2,391.1,230,392.6,225.7z"/>
		<path class="st3" d="M407.8,231.7l12.6-75.3c0.5-3.2-1.6-6.3-4.8-6.8l-0.6-0.1c-3.2-0.5-6.3,1.6-6.8,4.8l-12.6,75.3
			c-0.5,3.2,1.6,6.3,4.8,6.8l0.6,0.1C404.2,237.1,407.2,234.9,407.8,231.7z"/>
	</g>
	<path class="st12" d="M341.1,126.2c-5.6-12.7-3.7-27.1,3.9-39.1c3-4.8,22.6-38.4,35.6-45.1c7.3-3.8,15.8-5.9,24.9-5.9
		c1.1,0,2.2,0,3.3,0.1c0.4,0,0.8,0,1.3,0l62.9,1.3l-6.9,83.4l-32.8-8.1L410.1,142c-2.2,1.3-4.5,2.6-6.9,3.6
		c-1.3,0.6-2.7,1.1-4.1,1.6l24.8,25.4l-14.8,15.8l17.1,4.4l-3.5,16.6c0,0.8-0.1,1.6-0.3,2.4c-1.8,8-11.4,12.7-21.3,10.5
		c-8.5-1.9-14.6-8.3-15-15.1c-10.4,2.4-22.9-1.2-32.5-10.3c-13.9-13.3-16.2-33.4-5.2-44.8c0.5-0.5,0.9-0.9,1.4-1.3
		c0.2-0.2,0.3-0.4,0.5-0.6l6-6.5C349.7,139.5,344.3,133.6,341.1,126.2z"/>
	<path class="st9" d="M411.5,156.7c-3.1-6.3-8.2-11.8-16.5-13.8c-1.9-0.5-3.8-1-5.6-1.7c-1.5,0.2-3,0.3-4.5,0.3
		c-19.2,0-34.8-16.9-34.8-37.8c0-19.1,13.1-34.9,30.1-37.4c0.6-0.2,0.9-0.3,0.9-0.3l32.8,0l-3.9,11.7c5.9,6.8,9.6,15.9,9.6,26
		c0,2-0.1,3.9-0.4,5.8c3.8,5.4,8,11.4,12,17.4"/>
	<path class="st13" d="M435.5,57l-41,43.6c-4.7,5-4.5,13,0.5,17.7l3.3,3.1c5,4.7,13,4.5,17.7-0.5l41-43.6c4.7-5,4.5-13-0.5-17.7
		l-3.3-3.1C448.2,51.7,440.2,52,435.5,57z"/>
	<path class="st14" d="M438.7,93.7"/>
	<path class="st14" d="M440.6,85.4"/>
	<path class="st14" d="M441.8,95.7"/>
	<path class="st14" d="M443.9,85.4"/>
	<line class="st15" x1="429.5" y1="87.8" x2="451.7" y2="87.8"/>
	<line class="st15" x1="445.8" y1="82.3" x2="469.6" y2="82.3"/>
	<line class="st15" x1="455.4" y1="74.4" x2="467.9" y2="74.4"/>
	<g>
		<defs>
			<path id="SVGID_7_" d="M423,81.4l5.6,9l21.1,1l-9.1,19.8l-4.7,7.4l-17-3l-13.1-21.9c2.5-8.5,9.7-12.3,9.7-12.3L423,81.4z"/>
		</defs>
		<clipPath id="SVGID_8_">
			<use xlink:href="#SVGID_7_"  style="overflow:visible;"/>
		</clipPath>
		<g class="st16">
			<polyline class="st15" points="410.7,85 419.8,85 427.5,92.7 442.5,92.7 			"/>
			<line class="st15" x1="413.5" y1="85.6" x2="432.5" y2="106.1"/>
			<line class="st15" x1="414.2" y1="92.3" x2="433.1" y2="112.8"/>
			<line class="st15" x1="425.7" y1="111.9" x2="417.1" y2="102.5"/>
		</g>
	</g>
	<path class="st9" d="M389.6,140.1c0.7,0,1.3,0,1.9,0.1c0.2,0,0.5,0,0.7,0l36.9-0.4l-0.5,56.3l-34.6,0.3c-1.5,0.2-3,0.4-4.6,0.4
		c-15.9,0-28.8-12.7-28.8-28.3S373.7,140.1,389.6,140.1z"/>
	<g>
		<g class="st17">
			<path class="st18" d="M377.5,83.2c0.4,0,0.8,0,1.1,0.1c0.1,0,0.3,0,0.4,0l19.5-0.3l9.6,44.1l-27.9,0.2c-0.9,0.2-1.8,0.3-2.7,0.3
				c-9.3,0-16.8-9.9-16.8-22.2S368.3,83.2,377.5,83.2z"/>
		</g>
		<g class="st17">
			<path class="st18" d="M396.1,143.3c0.4,0,0.8,0,1.1,0.1c0.1,0,0.3,0,0.4,0l37.9-0.3l6.6,44.5l-43.4,0.2c-0.9,0.2-1.7,0.3-2.6,0.3
				c-9.2,0-16.6-10-16.6-22.4C379.5,153.3,387,143.3,396.1,143.3z"/>
		</g>
	</g>
	<g>
		<path class="st0" d="M469.3,91.3c0,0-1.3,8.2,8.9,10.5c0,0-3.9,9.7,12.2,10.6h7.2c0,0-14.5,16.3-39.3,12.7l-16.5-3.6L469.3,91.3z"
			/>
		<g>
			<g>
				<path class="st19" d="M410.7,36.4c0.8,0,1.5,0,2.3,0.1c0.3,0,0.6,0,0.9,0l43.3,0.8l0,0l34.5,0c8.3,0,15.1,6.8,15.1,15.1v2.3
					c0,8.3-6.8,15.1-15.1,15.1l-37.2-2.3l-2.1,23.4L416,91.2c-1.7,0.2-3.5,0.3-5.4,0.3c-18.7,0-33.8-12.3-33.8-27.5
					C376.9,48.8,392,36.4,410.7,36.4z"/>
				<path class="st20" d="M414.5,44.6c0.7,0,1.4,0,2.1,0.1c0.3,0,0.5,0,0.8,0l75.1-1.3c1.5,0-0.8,4.5-6.7,6.8
					c-24.2,9.6-101.5,32-101.5,20.5C384.2,56.2,397.7,44.6,414.5,44.6z"/>
			</g>
			<g>
				<path class="st0" d="M431.2,144.5l0.4,43c0,4.1,3.4,7.4,7.5,7.4l0.9,0c4.1,0,7.4-3.4,7.4-7.5l-0.4-43c0-4.1-3.4-7.4-7.5-7.4
					l-0.9,0C434.5,137.1,431.2,140.4,431.2,144.5z"/>
				<path class="st0" d="M421.8,136.7l0.4,42.1c0,2.2,1.9,4,4.1,4l2.1,0c2.2,0,4-1.9,4-4.1l-0.4-42.1c0-2.2-1.9-4-4.1-4l-2.1,0
					C423.6,132.6,421.8,134.4,421.8,136.7z"/>
				
					<ellipse transform="matrix(0.5758 -0.8176 0.8176 0.5758 105.9106 382.7945)" class="st0" cx="421.8" cy="89.3" rx="39.9" ry="31.7"/>
				<path class="st0" d="M394.7,118.8L419,153c4,5.7,11.9,7,17.6,3l10.4-7.4c5.7-4,7-11.9,3-17.6l-24.3-34.3c-4-5.7-11.9-7-17.6-3
					l-10.4,7.4C392,105.2,390.7,113.1,394.7,118.8z"/>
				<g>
					<path class="st21" d="M429.9,77.4c2.9,0,5.7,0.5,8.3,1.3c-3.2-3.1-5.2-7-5.2-11.2c0-10.4,4.5-18.8,26-18.8l25.2,0
						c1.3-2.8,5.8-5.6,9.9-5.6c4.7,0,9.5,3.4,10.3,6.7l2.4,0.3l-65.1,71.4h-15.6c-1,0.3-19.6-1.4-21-22.3
						C404.5,87.2,416.3,77.4,429.9,77.4z"/>
					<g>
						<circle class="st9" cx="447.2" cy="66.9" r="8.5"/>
						<ellipse class="st22" cx="447.2" cy="66.9" rx="5.4" ry="5.2"/>
						<circle class="st23" cx="447.3" cy="66.9" r="2.9"/>
					</g>
				</g>
			</g>
		</g>
		<path class="st0" d="M473.1,87.2c0,0,6.7-3.2,13.9,6.5c0,0,1.4,10.8,18.8,13.1l2.9,25.8c0,0,23.7-25.1,21.7-49
			c0,0-2.7-17.2-23.5-33.4L473.1,87.2z"/>
	</g>
	<path class="st24" d="M192,377.3c0.1-0.5,0.3-1,0.5-1.5c0-0.2,0.1-0.4,0.1-0.6l5.4-25.3c0.2-1.1,0.4-2.1,0.6-2.8l0.3-1.6l0.1,0
		c3.7-11.8,6.7-20.2,11.4-31.1c35.7-83.2,94.7-132.6,143.6-128.8c0.8-0.1,1.6-0.1,2.4,0l2,0.3c0.5,0.1,0.9,0.2,1.3,0.4
		c1.6,0.3,3.2,0.6,4.8,1c0,0-0.1,1.4-0.4,3.9c0.3,1,0.3,2,0.2,3.1l-12.2,72.6c-0.6,3.6-3.7,6.1-7.2,6.1c-0.2,0.6-0.5,1.2-0.7,1.9
		l-7.9,47c-0.7,3.9-4.4,6.6-8.4,6l-2-0.3c-2.7-0.4-4.8-2.3-5.6-4.7l-3.1,18.4c-0.7,3.9-4.4,6.6-8.4,6l-2-0.3
		c-1.6-0.3-3.1-1.1-4.1-2.2c-0.1,0.1-0.1,0.1-0.2,0.2l-1.1,6.3c-1.1,6.3-7,10.5-13.3,9.5l-1.1-0.2l-0.1,6.1
		c-0.1,6.4-5.4,11.5-11.7,11.4l-8.7-0.1L264,390c0,1.3-0.1,2.5-0.4,3.8c-2.9,12.7-21.3,19.3-41.1,14.8C202.7,404,189,390,192,377.3z
		"/>
	<path class="st0" d="M201.9,342.6c0.1-0.4,0.3-0.8,0.4-1.3c0-0.2,0.1-0.3,0.1-0.5l5.1-20.7c0.2-0.9,0.3-1.7,0.6-2.3l0.3-1.3l0.1,0
		c3.5-9.7,6.3-16.5,10.7-25.5c33.7-68.1,89.4-108.7,135.6-105.5c0.7-0.1,1.5-0.1,2.3,0l1.9,0.3c0.4,0.1,0.9,0.2,1.3,0.3
		c1.5,0.2,3.1,0.5,4.6,0.8c0,0-0.1,1.1-0.4,3.2c0.3,0.8,0.3,1.7,0.2,2.6l-11.5,59.4c-0.6,2.9-3.5,5-6.8,5c-0.2,0.5-0.4,1-0.7,1.5
		l-7.5,38.5c-0.6,3.2-4.2,5.4-7.9,4.9l-1.9-0.3c-2.5-0.4-4.5-1.9-5.3-3.9l-2.9,15c-0.6,3.2-4.2,5.4-7.9,4.9l-1.9-0.3
		c-1.5-0.2-2.9-0.9-3.9-1.8c-0.1,0-0.1,0.1-0.2,0.1l-1,5.2c-1,5.1-6.7,8.6-12.6,7.8l-1-0.1l-0.1,5c-0.1,5.2-5.1,9.4-11.1,9.3
		l-8.2-0.1l-2.5,10.2c0,1-0.1,2.1-0.4,3.1c-2.8,10.4-20.2,15.8-38.8,12.1C212,364.5,199.1,353,201.9,342.6z"/>
	<g class="st25">
		<path class="st10" d="M284,324.6l0-45.4c0-3.4-2.7-5.8-6.1-5.3l-0.2,0c-2.5,0.4-4.6,2.7-4.6,5.3l0,45.4c0,3.4,2.7,5.8,6.1,5.3
			l0.2,0C281.9,329.5,284,327.1,284,324.6z"/>
		<path class="st10" d="M264.1,345.8l0-45.4c0-3.4-2.7-5.8-6.1-5.3l-0.2,0c-2.5,0.4-4.6,2.7-4.6,5.3l0,45.4c0,3.4,2.7,5.8,6.1,5.3
			l0.2,0C262.1,350.7,264.1,348.3,264.1,345.8z"/>
		<path class="st10" d="M244.5,359.8l0-45.4c0-3.4-2.7-5.8-6.1-5.3l-0.2,0c-2.5,0.4-4.6,2.7-4.6,5.3l0,45.4c0,3.4,2.7,5.8,6.1,5.3
			l0.2,0C242.5,364.7,244.5,362.3,244.5,359.8z"/>
		<path class="st10" d="M300,308.5l0-45.4c0-3.4-2.7-5.8-6.1-5.3l-0.2,0c-2.5,0.4-4.6,2.7-4.6,5.3l0,45.4c0,3.4,2.7,5.8,6.1,5.3
			l0.2,0C298,313.5,300,311.1,300,308.5z"/>
		<path class="st10" d="M267.8,281.6l0-33.6c0-2.5-2-4.3-4.5-3.9l-0.1,0c-1.9,0.3-3.4,2-3.4,3.9l0,33.6c0,2.5,2,4.3,4.5,3.9l0.1,0
			C266.3,285.3,267.8,283.5,267.8,281.6z"/>
		<path class="st10" d="M285.4,260.9l0-33.6c0-2.5-2-4.3-4.5-3.9l-0.1,0c-1.9,0.3-3.4,2-3.4,3.9l0,33.6c0,2.5,2,4.3,4.5,3.9l0.1,0
			C283.9,264.6,285.4,262.8,285.4,260.9z"/>
		<path class="st10" d="M300.4,247.3l0-33.6c0-2.5-2-4.3-4.5-3.9l-0.1,0c-1.9,0.3-3.4,2-3.4,3.9l0,33.6c0,2.5,2,4.3,4.5,3.9l0.1,0
			C298.9,251,300.4,249.2,300.4,247.3z"/>
		<path class="st10" d="M347.2,224.6l0-33.6c0-2.5-2-4.3-4.5-3.9l-0.1,0c-1.9,0.3-3.4,2-3.4,3.9l0,33.6c0,2.5,2,4.3,4.5,3.9l0.1,0
			C345.7,228.2,347.2,226.5,347.2,224.6z"/>
		<path class="st10" d="M320.2,223.1l-0.7-24.4c-0.1-1.8-2.1-3-4.6-2.5l-0.1,0c-1.9,0.3-3.4,1.7-3.3,3.1l0.7,24.4
			c0.1,1.8,2.1,3,4.6,2.5l0.1,0C318.7,225.8,320.2,224.4,320.2,223.1z"/>
		<path class="st10" d="M215.8,354.8l-0.7-24.4c-0.1-1.8-2.1-3-4.6-2.5l-0.1,0c-1.9,0.3-3.4,1.7-3.3,3.1l0.7,24.4
			c0.1,1.8,2.1,3,4.6,2.5l0.1,0C214.4,357.6,215.9,356.2,215.8,354.8z"/>
		<path class="st10" d="M248.6,298.9l0-33.6c0-2.5-2-4.3-4.5-3.9l-0.1,0c-1.9,0.3-3.4,2-3.4,3.9l0,33.6c0,2.5,2,4.3,4.5,3.9l0.1,0
			C247,302.5,248.6,300.8,248.6,298.9z"/>
		<path class="st10" d="M227.7,330.7l0-33.6c0-2.5-2-4.3-4.5-3.9l-0.1,0c-1.9,0.3-3.4,2-3.4,3.9l0,33.6c0,2.5,2,4.3,4.5,3.9l0.1,0
			C226.2,334.3,227.8,332.6,227.7,330.7z"/>
		<path class="st10" d="M318,281.9l0-45.4c0-3.4-2.7-5.8-6.1-5.3l-0.2,0c-2.5,0.4-4.6,2.7-4.6,5.3l0,45.4c0,3.4,2.7,5.8,6.1,5.3
			l0.2,0C315.9,286.8,318,284.4,318,281.9z"/>
		<path class="st10" d="M335.1,259.9l0-45.4c0-3.4-2.7-5.8-6.1-5.3l-0.2,0c-2.5,0.4-4.6,2.7-4.6,5.3l0,45.4c0,3.4,2.7,5.8,6.1,5.3
			l0.2,0C333,264.9,335.1,262.5,335.1,259.9z"/>
	</g>
	<g class="st26">
		<defs>
			<path id="SVGID_9_" class="st26" d="M345.4,377.8c0,0-17.3,26.8-58.4,31.8l-73.2-0.3l-88.6,0L199,297.7l90.5-136l47.2,9.5
				l54,110.9l-4.2,11.1c0,0-0.3,2.4-6.9,2.8l-12.6,23c0,0-1.4,14.6-10.1,18.1C356.7,337.1,359.6,360.8,345.4,377.8z"/>
		</defs>
		<clipPath id="SVGID_10_">
			<use xlink:href="#SVGID_9_"  style="overflow:visible;"/>
		</clipPath>
		<g class="st27">
			<path class="st0" d="M315.1,353.5l8.9-35.2c0.7-2.6-1-5-3.7-5.3l-0.2,0c-2-0.2-4.1,1.2-4.6,3.2l-8.9,35.2c-0.7,2.6,1,5,3.7,5.3
				l0.2,0C312.5,357,314.6,355.5,315.1,353.5z"/>
			<path class="st0" d="M302.6,403.4l7-35.7c0.5-2.7-1.3-5-4-5.1l-0.2,0c-2-0.1-4,1.4-4.4,3.5l-7,35.7c-0.5,2.7,1.3,5,4,5.1l0.2,0
				C300.2,406.9,302.2,405.4,302.6,403.4z"/>
			<path class="st0" d="M295.5,366.1l8.9-35.2c0.7-2.6-1-5-3.7-5.3l-0.2,0c-2-0.2-4.1,1.2-4.6,3.2l-8.9,35.2c-0.7,2.6,1,5,3.7,5.3
				l0.2,0C292.9,369.5,295,368,295.5,366.1z"/>
			<path class="st0" d="M277.5,373.1l8.9-35.2c0.7-2.6-1-5-3.7-5.3l-0.2,0c-2-0.2-4.1,1.2-4.6,3.2l-8.9,35.2c-0.7,2.6,1,5,3.7,5.3
				l0.2,0C274.9,376.5,277,375,277.5,373.1z"/>
			<path class="st0" d="M203.2,348.6l8.9-35.2c0.7-2.6-1-5-3.7-5.3l-0.2,0c-2-0.2-4.1,1.2-4.6,3.2l-8.9,35.2c-0.7,2.6,1,5,3.7,5.3
				l0.2,0C200.6,352.1,202.7,350.6,203.2,348.6z"/>
			<path class="st0" d="M283.9,211.7l8.9-35.2c0.7-2.6-1-5-3.7-5.3l-0.2,0c-2-0.2-4.1,1.2-4.6,3.2l-8.9,35.2c-0.7,2.6,1,5,3.7,5.3
				l0.2,0C281.3,215.2,283.3,213.7,283.9,211.7z"/>
			<path class="st0" d="M247.8,260.6l8.9-35.2c0.7-2.6-1-5-3.7-5.3l-0.2,0c-2-0.2-4.1,1.2-4.6,3.2l-8.9,35.2c-0.7,2.6,1,5,3.7,5.3
				l0.2,0C245.2,264,247.3,262.5,247.8,260.6z"/>
			<path class="st0" d="M330.7,344.2l8.9-35.2c0.7-2.6-1-5-3.7-5.3l-0.2,0c-2-0.2-4.1,1.2-4.6,3.2l-8.9,35.2c-0.7,2.6,1,5,3.7,5.3
				l0.2,0C328.1,347.7,330.2,346.2,330.7,344.2z"/>
			<path class="st0" d="M311,317.1l6.6-26c0.5-1.9-0.7-3.7-2.7-3.9l-0.1,0c-1.5-0.2-3,0.9-3.4,2.4l-6.6,26c-0.5,1.9,0.7,3.7,2.7,3.9
				l0.1,0C309.1,319.6,310.6,318.5,311,317.1z"/>
			<path class="st0" d="M328.7,304.4l6.6-26c0.5-1.9-0.7-3.7-2.7-3.9l-0.1,0c-1.5-0.2-3,0.9-3.4,2.4l-6.6,26
				c-0.5,1.9,0.7,3.7,2.7,3.9l0.1,0C326.8,307,328.3,305.9,328.7,304.4z"/>
			<path class="st0" d="M343,296.9l6.6-26c0.5-1.9-0.7-3.7-2.7-3.9l-0.1,0c-1.5-0.2-3,0.9-3.4,2.4l-6.6,26c-0.5,1.9,0.7,3.7,2.7,3.9
				l0.1,0C341.1,299.4,342.6,298.3,343,296.9z"/>
			<path class="st0" d="M383.8,288.4l6.6-26c0.5-1.9-0.7-3.7-2.7-3.9l-0.1,0c-1.5-0.2-3,0.9-3.4,2.4l-6.6,26
				c-0.5,1.9,0.7,3.7,2.7,3.9l0.1,0C381.9,291,383.4,289.9,383.8,288.4z"/>
			<path class="st0" d="M363.1,281.9l4.3-19.1c0.3-1.4-1.1-2.7-3-2.9l-0.1,0c-1.5-0.1-2.9,0.7-3.2,1.8l-4.3,19.1
				c-0.3,1.4,1.1,2.7,3,2.9l0.1,0C361.4,283.8,362.9,283,363.1,281.9z"/>
			<path class="st0" d="M256.2,363.5l4.3-19.1c0.3-1.4-1.1-2.7-3-2.9l-0.1,0c-1.5-0.1-2.9,0.7-3.2,1.8l-4.3,19.1
				c-0.3,1.4,1.1,2.7,3,2.9l0.1,0C254.6,365.4,256,364.6,256.2,363.5z"/>
			<path class="st0" d="M232,271.4l4.3-19.1c0.3-1.4-1.1-2.7-3-2.9l-0.1,0c-1.5-0.1-2.9,0.7-3.2,1.8l-4.3,19.1
				c-0.3,1.4,1.1,2.7,3,2.9l0.1,0C230.3,273.3,231.8,272.5,232,271.4z"/>
			<path class="st0" d="M323.4,406.2l4.3-19.1c0.3-1.4-1.1-2.7-3-2.9l-0.1,0c-1.5-0.1-2.9,0.7-3.2,1.8L317,405
				c-0.3,1.4,1.1,2.7,3,2.9l0.1,0C321.7,408,323.1,407.2,323.4,406.2z"/>
			<path class="st0" d="M217.8,300.7l4.3-19.1c0.3-1.4-1.1-2.7-3-2.9l-0.1,0c-1.5-0.1-2.9,0.7-3.2,1.8l-4.3,19.1
				c-0.3,1.4,1.1,2.7,3,2.9l0.1,0C216.2,302.6,217.6,301.8,217.8,300.7z"/>
			<path class="st0" d="M184.9,407.6l4.3-19.1c0.3-1.4-1.1-2.7-3-2.9l-0.1,0c-1.5-0.1-2.9,0.7-3.2,1.8l-4.3,19.1
				c-0.3,1.4,1.1,2.7,3,2.9l0.1,0C183.2,409.4,184.6,408.6,184.9,407.6z"/>
			<path class="st0" d="M172.8,398.2l4.3-19.1c0.3-1.4-1.1-2.7-3-2.9l-0.1,0c-1.5-0.1-2.9,0.7-3.2,1.8l-4.3,19.1
				c-0.3,1.4,1.1,2.7,3,2.9l0.1,0C171.2,400.1,172.6,399.3,172.8,398.2z"/>
			<path class="st0" d="M147.5,399.8l4.3-19.1c0.3-1.4-1.1-2.7-3-2.9l-0.1,0c-1.5-0.1-2.9,0.7-3.2,1.8l-4.3,19.1
				c-0.3,1.4,1.1,2.7,3,2.9l0.1,0C145.9,401.6,147.3,400.8,147.5,399.8z"/>
			<path class="st0" d="M158.2,407.6l4.3-19.1c0.3-1.4-1.1-2.7-3-2.9l-0.1,0c-1.5-0.1-2.9,0.7-3.2,1.8l-4.3,19.1
				c-0.3,1.4,1.1,2.7,3,2.9l0.1,0C156.6,409.4,158,408.6,158.2,407.6z"/>
			<path class="st0" d="M192.7,330.9l4.3-19.1c0.3-1.4-1.1-2.7-3-2.9l-0.1,0c-1.5-0.1-2.9,0.7-3.2,1.8l-4.3,19.1
				c-0.3,1.4,1.1,2.7,3,2.9l0.1,0C191,332.8,192.4,332,192.7,330.9z"/>
			<path class="st0" d="M195.6,383.6l4.3-19.1c0.3-1.4-1.1-2.7-3-2.9l-0.1,0c-1.5-0.1-2.9,0.7-3.2,1.8l-4.3,19.1
				c-0.3,1.4,1.1,2.7,3,2.9l0.1,0C193.9,385.5,195.3,384.7,195.6,383.6z"/>
			<path class="st0" d="M200.8,407.6l4.3-19.1c0.3-1.4-1.1-2.7-3-2.9l-0.1,0c-1.5-0.1-2.9,0.7-3.2,1.8l-4.3,19.1
				c-0.3,1.4,1.1,2.7,3,2.9l0.1,0C199.1,409.4,200.6,408.6,200.8,407.6z"/>
			<path class="st0" d="M216.9,407.6l4.3-19.1c0.3-1.4-1.1-2.7-3-2.9l-0.1,0c-1.5-0.1-2.9,0.7-3.2,1.8l-4.3,19.1
				c-0.3,1.4,1.1,2.7,3,2.9l0.1,0C215.3,409.4,216.7,408.6,216.9,407.6z"/>
			<path class="st0" d="M292.6,326.6l6.6-26c0.5-1.9-0.7-3.7-2.7-3.9l-0.1,0c-1.5-0.2-3,0.9-3.4,2.4l-6.6,26
				c-0.5,1.9,0.7,3.7,2.7,3.9l0.1,0C290.7,329.2,292.3,328.1,292.6,326.6z"/>
			<path class="st0" d="M349.5,371.1l6.6-26c0.5-1.9-0.7-3.7-2.7-3.9l-0.1,0c-1.5-0.2-3,0.9-3.4,2.4l-6.6,26
				c-0.5,1.9,0.7,3.7,2.7,3.9l0.1,0C347.6,373.6,349.2,372.6,349.5,371.1z"/>
			<path class="st0" d="M318.8,381.8l6.6-26c0.5-1.9-0.7-3.7-2.7-3.9l-0.1,0c-1.5-0.2-3,0.9-3.4,2.4l-6.6,26
				c-0.5,1.9,0.7,3.7,2.7,3.9l0.1,0C316.9,384.3,318.4,383.3,318.8,381.8z"/>
			<path class="st0" d="M286.7,403.5l6.6-26c0.5-1.9-0.7-3.7-2.7-3.9l-0.1,0c-1.5-0.2-3,0.9-3.4,2.4l-6.6,26
				c-0.5,1.9,0.7,3.7,2.7,3.9l0.1,0C284.8,406,286.3,404.9,286.7,403.5z"/>
			<path class="st0" d="M296.3,206.4l6.6-26c0.5-1.9-0.7-3.7-2.7-3.9l-0.1,0c-1.5-0.2-3,0.9-3.4,2.4l-6.6,26
				c-0.5,1.9,0.7,3.7,2.7,3.9l0.1,0C294.4,209,295.9,207.9,296.3,206.4z"/>
			<path class="st0" d="M267.7,223.7l6.6-26c0.5-1.9-0.7-3.7-2.7-3.9l-0.1,0c-1.5-0.2-3,0.9-3.4,2.4l-6.6,26
				c-0.5,1.9,0.7,3.7,2.7,3.9l0.1,0C265.8,226.2,267.4,225.1,267.7,223.7z"/>
			<path class="st0" d="M267.7,414.7l6.6-26c0.5-1.9-0.7-3.7-2.7-3.9l-0.1,0c-1.5-0.2-3,0.9-3.4,2.4l-6.6,26
				c-0.5,1.9,0.7,3.7,2.7,3.9l0.1,0C265.8,417.2,267.4,416.1,267.7,414.7z"/>
			<path class="st0" d="M185.8,371.1l6.6-26c0.5-1.9-0.7-3.7-2.7-3.9l-0.1,0c-1.5-0.2-3,0.9-3.4,2.4l-6.6,26
				c-0.5,1.9,0.7,3.7,2.7,3.9l0.1,0C183.9,373.6,185.5,372.6,185.8,371.1z"/>
			<path class="st0" d="M166.3,375.4l6.6-26c0.5-1.9-0.7-3.7-2.7-3.9l-0.1,0c-1.5-0.2-3,0.9-3.4,2.4l-6.6,26
				c-0.5,1.9,0.7,3.7,2.7,3.9l0.1,0C164.4,378,165.9,376.9,166.3,375.4z"/>
			<path class="st0" d="M270.2,347.2l6.6-26c0.5-1.9-0.7-3.7-2.7-3.9l-0.1,0c-1.5-0.2-3,0.9-3.4,2.4l-6.6,26
				c-0.5,1.9,0.7,3.7,2.7,3.9l0.1,0C268.3,349.7,269.9,348.6,270.2,347.2z"/>
			<path class="st0" d="M349.8,327.1l8.9-35.2c0.7-2.6-1-5-3.7-5.3l-0.2,0c-2-0.2-4.1,1.2-4.6,3.2l-8.9,35.2c-0.7,2.6,1,5,3.7,5.3
				l0.2,0C347.3,330.5,349.3,329.1,349.8,327.1z"/>
			<path class="st0" d="M336.4,376.7l8.9-35.2c0.7-2.6-1-5-3.7-5.3l-0.2,0c-2-0.2-4.1,1.2-4.6,3.2l-8.9,35.2c-0.7,2.6,1,5,3.7,5.3
				l0.2,0C333.8,380.1,335.9,378.7,336.4,376.7z"/>
			<path class="st0" d="M367.4,313.5l8.9-35.2c0.7-2.6-1-5-3.7-5.3l-0.2,0c-2-0.2-4.1,1.2-4.6,3.2l-8.9,35.2c-0.7,2.6,1,5,3.7,5.3
				l0.2,0C364.8,316.9,366.9,315.4,367.4,313.5z"/>
		</g>
	</g>
	<g>
		<g>
			<line class="st28" x1="496" y1="51.5" x2="488.4" y2="59.1"/>
			<g>
				<defs>
					<path id="SVGID_11_" d="M481.8,48.8c0,0-4.4,0-10,0c-2.1,0-4-0.1-6.2-0.1c-3.1,0-6.6,0.2-9.4,0.1c-5-0.2-8.8,1-10.1,1.4
						c-0.8,0.2-3.5,1.2-4.4,1.6c-3.8,1.6-5.7,4.7-5.7,4.7l16.6,6.3l29.3-3.7V48.8z"/>
				</defs>
				<clipPath id="SVGID_12_">
					<use xlink:href="#SVGID_11_"  style="overflow:visible;"/>
				</clipPath>
				<g class="st29">
					<line class="st30" x1="459.7" y1="49.1" x2="467.3" y2="56.7"/>
					<line class="st30" x1="444.9" y1="49.1" x2="452.5" y2="56.7"/>
					<line class="st30" x1="450.9" y1="48.2" x2="458.5" y2="55.8"/>
					<line class="st30" x1="465.5" y1="48.2" x2="473.1" y2="55.8"/>
					<line class="st30" x1="471.3" y1="47.7" x2="478.9" y2="55.3"/>
				</g>
			</g>
		</g>
		<line class="st30" x1="426.1" y1="87.8" x2="448.3" y2="87.8"/>
		<line class="st30" x1="442.5" y1="82.4" x2="466.3" y2="82.4"/>
		<line class="st30" x1="457" y1="74.4" x2="469.6" y2="74.4"/>
		<g>
			<defs>
				<path id="SVGID_13_" d="M418.7,85.7l5.6,9l21.1,1l-9.1,19.8l-4.7,7.4l-17-3L401.5,98c2.5-8.5,9.7-12.3,9.7-12.3H418.7z"/>
			</defs>
			<clipPath id="SVGID_14_">
				<use xlink:href="#SVGID_13_"  style="overflow:visible;"/>
			</clipPath>
			<g class="st31">
				<polyline class="st30" points="406.5,89.3 415.5,89.3 423.2,97 438.3,97 				"/>
				<line class="st30" x1="409.3" y1="89.9" x2="428.2" y2="110.4"/>
				<line class="st30" x1="410" y1="96.5" x2="428.9" y2="117.1"/>
				<line class="st30" x1="421.5" y1="116.1" x2="412.9" y2="106.8"/>
			</g>
		</g>
	</g>
</g>
</svg>
