<?xml version="1.0" encoding="utf-8"?>
<!-- Generator: Adobe Illustrator 22.1.0, SVG Export Plug-In . SVG Version: 6.00 Build 0)  -->
<svg version="1.1" id="Capa_1" xmlns="http://www.w3.org/2000/svg" xmlns:xlink="http://www.w3.org/1999/xlink" x="0px" y="0px"
	 viewBox="0 0 594 768" style="enable-background:new 0 0 594 768;" xml:space="preserve">
<style type="text/css">
	.st0{fill:#0087A5;}
	.st1{fill:#AF1917;}
	.st2{fill:#1C2546;}
	.st3{fill:#661613;}
	.st4{fill:#E20613;}
	.st5{fill:#BD1622;}
	.st6{fill:none;stroke:#212A53;stroke-width:3;stroke-miterlimit:10;}
	.st7{fill:none;stroke:#1D355E;stroke-width:3;stroke-miterlimit:10;}
	.st8{fill:#172E4D;}
	.st9{fill:none;stroke:#1D1D1B;stroke-width:1.5;stroke-linecap:round;stroke-linejoin:round;stroke-miterlimit:10;}
	.st10{fill:#E5332A;}
	.st11{opacity:0.72;fill:#661613;}
	.st12{fill:#310E0D;}
	.st13{opacity:0.31;fill:#BD1622;}
	.st14{fill:#EB644C;}
	.st15{fill:#FFFFFF;}
	.st16{fill:#030404;}
	.st17{fill:none;stroke:#310E0D;stroke-width:3;stroke-linecap:round;stroke-linejoin:round;stroke-miterlimit:10;}
	.st18{clip-path:url(#SVGID_2_);}
	.st19{fill:none;stroke:#310E0D;stroke-width:2;stroke-linecap:round;stroke-linejoin:round;stroke-miterlimit:10;}
	.st20{clip-path:url(#SVGID_4_);}
	.st21{opacity:0.6;}
	.st22{opacity:0.72;clip-path:url(#SVGID_6_);}
	.st23{fill:#F29100;}
	.st24{clip-path:url(#SVGID_8_);}
	.st25{fill:#00A8D7;}
	.st26{clip-path:url(#SVGID_10_);}
	.st27{fill:#48AB33;}
</style>
<g>
	<path class="st0" d="M483.2,635.9L483.2,635.9c-8.4,0-15.3-6.9-15.3-15.3V479.2c0-8.4,6.9-15.3,15.3-15.3h0
		c8.4,0,15.3,6.9,15.3,15.3v141.4C498.5,629,491.6,635.9,483.2,635.9z"/>
	<path class="st1" d="M485.8,498.5h-3.3c-7.1,0-12.9-5.8-12.9-12.9v-68c0-7.1,5.8-12.9,12.9-12.9h3.3c7.1,0,12.9,5.8,12.9,12.9v68
		C498.7,492.7,492.9,498.5,485.8,498.5z"/>
	<path class="st1" d="M491.6,405.6c0,0,7.6,11.4,7.1,21.5l-28.2-2.2l-1.9-15.7L491.6,405.6z"/>
	<g>
		<path class="st2" d="M452.2,726h-11.7c-25.6,0-46.5-20.9-46.5-46.5v-245c0-25.6,20.9-46.5,46.5-46.5h11.7
			c25.6,0,46.5,20.9,46.5,46.5v245C498.7,705.1,477.8,726,452.2,726z"/>
		<path class="st1" d="M496.8,409.6l-36.4-51.4c-4-11.5-8.9-22.9-14.3-34.3l0,0c0-5.2-8.9-18.3-15.9-30.4c0-0.1-0.1-0.1-0.1-0.2
			c-25.5-44.7-57.2-85.4-80.6-113.1c-41.6-53.7-81.5-101.7-81.5-101.7c-11.8-31-58.3-34.9-71.5-35.4l-0.3-0.1h-21.9
			c-3.8,0-6.9,3.1-6.9,6.9c0,3.8,3.1,6.9,6.9,6.9h8.8l2.5,47.1l16.7,21.7l-1.5,31.2c-0.9-0.1,0.9,5.3,0,5.5l-1.2,2
			c-4.4,1.1-7.1,5.6-6.1,10l8.3,41.5c1.8,4.5,7.7,8.7,13.2,9.1l-0.1,1l3,24.1L231,274l4.1,17c1,4,4.7,6.6,8.7,6.3l12.4,22.6
			l2.4,10.1c0.8,3.4,3.7,5.8,7,6.2c-0.2,1.8-0.3,3.7-0.3,5.6c0,37.3,34.7,67.6,77.5,67.6c2.8,0,5.5-0.1,8.2-0.4h113.3l-0.1-0.3
			L496.8,409.6z"/>
		<path class="st0" d="M452.1,708.3h-7.5c-19.4,0-35.2-15.8-35.2-35.2v-190c0-19.4,15.8-35.2,35.2-35.2h7.5
			c19.4,0,35.2,15.8,35.2,35.2v190C487.3,692.5,471.5,708.3,452.1,708.3z"/>
		<path class="st0" d="M409.4,635.1L409.4,635.1c-8.4,0-15.3-6.9-15.3-15.3V491.6c0-8.4,6.9-15.3,15.3-15.3h0
			c8.4,0,15.3,6.9,15.3,15.3v128.3C424.7,628.3,417.8,635.1,409.4,635.1z"/>
		<path class="st3" d="M447.4,651.7L447.4,651.7c-9.9,0-18.1-8.1-18.1-18.1V424.7c0-9.9,8.1-18.1,18.1-18.1h0
			c9.9,0,18.1,8.1,18.1,18.1v208.9C465.4,643.6,457.3,651.7,447.4,651.7z"/>
		<path class="st3" d="M450,505.2h-3.7c-7.9,0-14.3-6.4-14.3-14.3v-75c0-7.9,6.4-14.3,14.3-14.3h3.7c7.9,0,14.3,6.4,14.3,14.3v75
			C464.3,498.8,457.9,505.2,450,505.2z"/>
		<path class="st3" d="M414.8,586.6L414.8,586.6c-11,0-20-9-20-20V433.9c0-11,9-20,20-20h0c11,0,20,9,20,20v132.7
			C434.8,577.6,425.8,586.6,414.8,586.6z"/>
		<path class="st3" d="M480.5,599.9L480.5,599.9c-9.2,0-16.8-7.5-16.8-16.8V419.8c0-9.2,7.5-16.8,16.8-16.8h0
			c9.2,0,16.8,7.5,16.8,16.8v163.3C497.3,592.3,489.7,599.9,480.5,599.9z"/>
		<path class="st1" d="M451.1,546.2h-1.4c-11.3,0-20.6-9.3-20.6-20.6V404c0-11.3,9.3-20.6,20.6-20.6h1.4c11.3,0,20.6,9.3,20.6,20.6
			v121.6C471.6,536.9,462.4,546.2,451.1,546.2z"/>
		<path class="st1" d="M416.6,497.5h-7.3c-7.5,0-13.6-6.1-13.6-13.6v-60.4c0-7.5,6.1-13.6,13.6-13.6h7.3c7.5,0,13.6,6.1,13.6,13.6
			v60.4C430.2,491.4,424.1,497.5,416.6,497.5z"/>
		<path class="st4" d="M192.8,131.3c-1.3,1.9-2.5,3.8-3.7,5.6l-1.1,0c-5.4,0.1-9.6,4.6-9.5,10l1.1,46.6c0,2,0.7,3.8,1.8,5.3
			c4,17.3,31.2,78.1,42,92.2c8.5,11.2,39.2,40.5,39.2,40.5l-18.5-48.9c0,0-1.1-3.4-11.7-18c-10.5-14.6-18-47.1-18-47.1
			c2.4-19.3-6.9-16.5-6.9-16.5l0-3.8c0.7-1.4,1-2.9,1-4.5l-0.5-18.3c0.6-4.4,1.8-9.5,4-14.1"/>
		<g>
			<path class="st3" d="M394.6,408.2c4.9-7.6-33.9,45.3-63.6,48.6c-0.8,0.1-1.6,0.2-2.5,0.2v-48.9
				C328.5,408.2,357.5,410.2,394.6,408.2z"/>
			<path class="st5" d="M379.6,406.4c0,0-23.5,44.7-59.2,46.5v-48.9C320.4,404.1,342.5,408.4,379.6,406.4z"/>
			<g>
				<path class="st6" d="M330.9,453.4c0,0-27,2.8-31.7,14.3"/>
				<path class="st6" d="M308.2,477.9c3.4-15.9,21.5-21.4,21.5-21.4s8,12.7-7.8,27"/>
			</g>
			<g>
				<path class="st7" d="M322.6,449.5c0,0-27,2.8-31.7,14.3"/>
				<path class="st7" d="M299.9,474c3.4-15.9,21.5-21.4,21.5-21.4s8,12.7-7.8,27"/>
			</g>
		</g>
		<g>
			<path class="st3" d="M314,178.9l-48.8-58.6c-4-4.8-2.9-11.5,2.4-14.8l1.5-1c4-2.5,9.8-1.6,12.8,2.1l1.6-7.2l26,34.8l22.6,31.2
				c4,4.8,1.5,11.4-3.8,14.7l-1.5,1C322.8,183.4,317.1,182.5,314,178.9z"/>
			<path class="st3" d="M310.1,209.1l-48.4-58.2c-4.1-5-3-11.8,2.5-15.2l2-1.3c4.2-2.6,10.1-1.6,13.2,2.1l48.4,58.2
				c4.1,5,3,11.8-2.5,15.2l-2,1.3C319.2,213.8,313.2,212.8,310.1,209.1z"/>
			<path class="st3" d="M302.9,231.8L254,173c-4-4.8-2.9-11.3,2.4-14.6l1.3-0.8c4-2.5,9.7-1.5,12.7,2.1l49,58.8
				c4,4.8,2.9,11.3-2.4,14.6l-1.3,0.8C311.6,236.3,305.9,235.4,302.9,231.8z"/>
			<path class="st3" d="M292.8,256.9l-48.3-58c-4.2-5-3.1-12,2.5-15.4l2.2-1.4c4.2-2.6,10.2-1.6,13.4,2.2l48.3,58
				c4.2,5,3.1,12-2.5,15.4l-2.2,1.4C302,261.7,296,260.7,292.8,256.9z"/>
			<path class="st3" d="M273.8,262.4L224,202.6c-3.7-4.5-2.7-10.6,2.2-13.7l0.3-0.2c3.7-2.3,9.1-1.4,11.9,1.9l49.8,59.8
				c3.7,4.5,2.7,10.6-2.2,13.7l-0.3,0.2C281.9,266.6,276.6,265.8,273.8,262.4z"/>
			<path class="st3" d="M246.3,271.9l-27.2-67.1c-2.3-5.7,0.6-11.8,6.5-13.6l3.2-1c4.9-1.5,10.5,1.2,12.4,5.9l27.2,67.1
				c2.3,5.7-0.6,11.8-6.5,13.6l-3.2,1C253.8,279.3,248.3,276.7,246.3,271.9z"/>
			<path class="st3" d="M224.1,277.4l-13.7-70.3c-0.8-4.4,2.1-8.4,6.4-9.1l3.4-0.5c4-0.6,7.9,2.2,8.6,6.1l13.7,70.3
				c0.8,4.4-2.1,8.4-6.4,9.1l-3.4,0.5C228.8,284.1,224.9,281.4,224.1,277.4z"/>
		</g>
		<g>
			<path class="st3" d="M295,150.4l-41.7-58c-3.2-4.4-2.2-10.6,2.2-13.8l0,0c4.4-3.2,10.6-2.2,13.8,2.2l41.7,58
				c3.2,4.4,2.2,10.6-2.2,13.8l0,0C304.4,155.8,298.2,154.8,295,150.4z"/>
			<path class="st3" d="M291.4,180.4l-41.1-57.1c-3.3-4.6-2.3-11.2,2.4-14.5l0,0c4.6-3.3,11.2-2.3,14.5,2.4l41.1,57.1
				c3.3,4.6,2.3,11.2-2.4,14.5l0,0C301.3,186.1,294.7,185,291.4,180.4z"/>
			<path class="st3" d="M285.5,203.4l-42-58.4c-3.1-4.3-2.1-10.4,2.2-13.5l0,0c4.3-3.1,10.4-2.1,13.5,2.2l42,58.4
				c3.1,4.3,2.1,10.4-2.2,13.5v0C294.6,208.7,288.6,207.7,285.5,203.4z"/>
			<path class="st3" d="M276.5,228.2l-40.8-56.8c-3.4-4.7-2.3-11.4,2.4-14.8l0,0c4.7-3.4,11.4-2.3,14.8,2.4l40.8,56.8
				c3.4,4.7,2.3,11.4-2.4,14.8l0,0C286.5,234,279.9,232.9,276.5,228.2z"/>
			<path class="st3" d="M260.6,234.5l-43.3-60.2c-2.7-3.8-1.9-9.2,1.9-11.9l0,0c3.8-2.7,9.2-1.9,11.9,1.9l43.3,60.2
				c2.7,3.8,1.9,9.2-1.9,11.9l0,0C268.7,239.2,263.4,238.3,260.6,234.5z"/>
			<path class="st3" d="M237.1,243.6l-23.2-66.3c-1.9-5.4,1-11.4,6.4-13.3h0c5.4-1.9,11.4,1,13.3,6.4l23.2,66.3
				c1.9,5.4-1,11.4-6.4,13.3h0C245,251.9,239,249,237.1,243.6z"/>
			<path class="st3" d="M218.2,249.6l-11.7-69.5c-0.7-4.4,2.2-8.5,6.6-9.3l0.2,0c4.4-0.7,8.5,2.2,9.3,6.6l11.7,69.5
				c0.7,4.4-2.2,8.5-6.6,9.3l-0.2,0C223.1,256.9,218.9,254,218.2,249.6z"/>
		</g>
		<g>
			<path class="st3" d="M287.2,133.6L244,73.4c-2.7-3.8-1.9-9.2,1.9-11.9l0,0c3.8-2.7,9.2-1.9,11.9,1.9l43.3,60.2
				c2.7,3.8,1.9,9.2-1.9,11.9h0C295.3,138.2,290,137.4,287.2,133.6z"/>
			<path class="st3" d="M284.8,163.4l-43.3-60.2c-2.7-3.8-1.9-9.2,1.9-11.9l0,0c3.8-2.7,9.2-1.9,11.9,1.9l43.3,60.2
				c2.7,3.8,1.9,9.2-1.9,11.9l0,0C292.9,168,287.6,167.2,284.8,163.4z"/>
			<path class="st3" d="M277.3,186.7L234,126.5c-2.7-3.8-1.9-9.2,1.9-11.9l0,0c3.8-2.7,9.2-1.9,11.9,1.9l43.3,60.2
				c2.7,3.8,1.9,9.2-1.9,11.9l0,0C285.3,191.4,280,190.5,277.3,186.7z"/>
			<path class="st3" d="M270.4,211.1l-43.3-60.2c-2.7-3.8-1.9-9.2,1.9-11.9v0c3.8-2.7,9.2-1.9,11.9,1.9l43.3,60.2
				c2.7,3.8,1.9,9.2-1.9,11.9l0,0C278.5,215.7,273.1,214.9,270.4,211.1z"/>
			<path class="st3" d="M249.9,218.2L206.6,158c-2.7-3.8-1.9-9.2,1.9-11.9l0,0c3.8-2.7,9.2-1.9,11.9,1.9l43.3,60.2
				c2.7,3.8,1.9,9.2-1.9,11.9l0,0C258,222.8,252.7,222,249.9,218.2z"/>
			<path class="st3" d="M230.6,227.8l-24.5-70c-1.5-4.4,0.8-9.3,5.2-10.9h0c4.4-1.5,9.3,0.8,10.9,5.2l24.5,70
				c1.5,4.4-0.8,9.3-5.2,10.9h0C237.1,234.6,232.2,232.2,230.6,227.8z"/>
			<path class="st3" d="M215.8,233.8l-12.3-73.4c-0.6-3.3,1.7-6.5,5-7l0,0c3.3-0.6,6.5,1.7,7,5l12.3,73.4c0.6,3.3-1.7,6.5-5,7h0
				C219.6,239.4,216.4,237.1,215.8,233.8z"/>
		</g>
		<path class="st3" d="M281.4,130.5c5.5-12.5,3.6-26.7-3.9-38.4c-3-4.7-22.2-37.7-35-44.3c-7.2-3.7-15.5-5.8-24.4-5.8
			c-1.1,0-2.2,0-3.3,0.1c-0.4,0-0.8,0-1.2,0l-61.8,1.3l6.8,81.9l32.2-8l22.7,28.7c2.1,1.3,4.4,2.5,6.8,3.6c1.3,0.6,2.7,1.1,4,1.6
			l-24.4,25l14.5,15.5l-16.8,4.4l3.5,16.3c0,0.8,0.1,1.5,0.3,2.3c1.8,7.9,11.2,12.5,21,10.3c8.4-1.9,14.3-8.1,14.8-14.8
			c10.3,2.3,22.5-1.2,31.9-10.1c13.6-13.1,16-32.8,5.2-44.1c-0.4-0.5-0.9-0.9-1.4-1.3c-0.2-0.2-0.3-0.4-0.5-0.5l-5.9-6.3
			C272.9,143.5,278.2,137.7,281.4,130.5z"/>
		<path class="st5" d="M212.2,160.4c3-6.2,8-11.6,16.2-13.5c1.9-0.5,3.8-1,5.5-1.7c1.4,0.2,2.9,0.3,4.4,0.3
			c18.9,0,34.2-16.6,34.2-37.1c0-18.8-12.9-34.3-29.6-36.8c-0.6-0.2-0.9-0.3-0.9-0.3h-32.2l3.8,11.5c-5.8,6.7-9.4,15.7-9.4,25.6
			c0,2,0.1,3.9,0.4,5.7c-3.7,5.3-7.9,11.2-11.8,17.1"/>
		<path class="st8" d="M188.8,62.6l40,42.5c4.7,5,4.5,13-0.5,17.7l-2.9,2.7c-5,4.7-13,4.5-17.7-0.5l-40-42.5c-4.7-5-4.5-13,0.5-17.7
			l2.9-2.7C176.1,57.3,184.1,57.6,188.8,62.6z"/>
		<path class="st9" d="M185.5,98.5"/>
		<path class="st9" d="M183.6,90.3"/>
		<path class="st9" d="M182.4,100.5"/>
		<path class="st9" d="M180.4,90.3"/>
		<path class="st5" d="M233.7,144.1c-0.6,0-1.3,0-1.9,0.1c-0.2,0-0.5,0-0.7,0l-36.3-0.3l-13.4,55.1l47.9,0.6c1.5,0.2,3,0.4,4.5,0.4
			c15.6,0,28.3-12.5,28.3-27.8S249.3,144.1,233.7,144.1z"/>
		<path class="st10" d="M242.3,84.2c-0.5,0-1,0-1.4,0.1c-0.2,0-0.4,0-0.5,0L215.9,84l0.3,49.8L239,134c1.1,0.2,2.2,0.3,3.3,0.3
			c11.7,0,21.1-11.2,21.1-25.1S254,84.2,242.3,84.2z"/>
		<path class="st10" d="M224.9,149.3c-0.6,0-1.2,0-1.8,0.1c-0.2,0-0.5,0-0.7,0l-30.4-0.3l0.4,42.5l28.3,0.2c1.4,0.2,2.7,0.3,4.2,0.3
			c14.5,0,26.3-9.6,26.3-21.4S239.4,149.3,224.9,149.3z"/>
		<g>
			<path class="st11" d="M432.4,380.1h-0.7c-3.2,0-5.9-2.6-5.9-5.9v-33.6c0-3.2,2.6-5.9,5.9-5.9h0.7c3.2,0,5.9,2.6,5.9,5.9v33.6
				C438.2,377.5,435.6,380.1,432.4,380.1z"/>
			<g>
				<path class="st11" d="M422.2,428.5h-0.7c-3.2,0-5.9-2.6-5.9-5.9V389c0-3.2,2.6-5.9,5.9-5.9h0.7c3.2,0,5.9,2.6,5.9,5.9v33.6
					C428.1,425.9,425.5,428.5,422.2,428.5z"/>
				<path class="st11" d="M461,470.2h-0.7c-3.2,0-5.9-2.6-5.9-5.9v-33.6c0-3.2,2.6-5.9,5.9-5.9h0.7c3.2,0,5.9,2.6,5.9,5.9v33.6
					C466.9,467.6,464.3,470.2,461,470.2z"/>
				<path class="st11" d="M451.3,531.2h-0.7c-3.2,0-5.9-2.6-5.9-5.9v-33.6c0-3.2,2.6-5.9,5.9-5.9h0.7c3.2,0,5.9,2.6,5.9,5.9v33.6
					C457.2,528.5,454.5,531.2,451.3,531.2z"/>
				<path class="st11" d="M425,485.5h-0.7c-3.2,0-5.9-2.6-5.9-5.9V446c0-3.2,2.6-5.9,5.9-5.9h0.7c3.2,0,5.9,2.6,5.9,5.9v33.6
					C430.9,482.9,428.2,485.5,425,485.5z"/>
				<path class="st11" d="M405.2,459.1L405.2,459.1c-2.3,0-4.2-1.9-4.2-4.2v-31.1c0-2.3,1.9-4.2,4.2-4.2l0,0c2.3,0,4.2,1.9,4.2,4.2
					v31.1C409.4,457.2,407.5,459.1,405.2,459.1z"/>
				<path class="st11" d="M442.8,435L442.8,435c-2.3,0-4.2-1.9-4.2-4.2v-31.1c0-2.3,1.9-4.2,4.2-4.2l0,0c2.3,0,4.2,1.9,4.2,4.2v31.1
					C446.9,433.2,445,435,442.8,435z"/>
				<path class="st11" d="M476.6,433.2L476.6,433.2c-2.3,0-4.2-1.9-4.2-4.2v-31.1c0-2.3,1.9-4.2,4.2-4.2l0,0c2.3,0,4.2,1.9,4.2,4.2
					V429C480.8,431.3,478.9,433.2,476.6,433.2z"/>
				<path class="st11" d="M485.5,482.6L485.5,482.6c-2.3,0-4.2-1.9-4.2-4.2v-31.1c0-2.3,1.9-4.2,4.2-4.2l0,0c2.3,0,4.2,1.9,4.2,4.2
					v31.1C489.7,480.7,487.8,482.6,485.5,482.6z"/>
				<path class="st11" d="M456.6,403.2L456.6,403.2c-2.3,0-4.2-1.9-4.2-4.2v-31.1c0-2.3,1.9-4.2,4.2-4.2l0,0c2.3,0,4.2,1.9,4.2,4.2
					V399C460.7,401.3,458.8,403.2,456.6,403.2z"/>
			</g>
		</g>
		<g>
			<path class="st12" d="M155.4,96.2c0,0,1.3,8.1-8.7,10.3c0,0,3.8,9.5-12,10.4h-7.1c0,0,14.2,16,38.6,12.4l16.2-3.6L155.4,96.2z"/>
			<g>
				<g>
					<path class="st10" d="M213,42.2c-0.8,0-1.5,0-2.2,0.1c-0.3,0-0.6,0-0.9,0L167.3,43l0,0h-33.9c-8.2,0-14.8,6.7-14.8,14.8v2.2
						c0,8.2,6.7,14.8,14.8,14.8l36.6-2.3l2.1,23l35.7,0.3c1.7,0.2,3.5,0.3,5.3,0.3c18.3,0,33.2-12.1,33.2-27.1
						C246.2,54.3,231.4,42.2,213,42.2z"/>
					<path class="st13" d="M209.3,50.2c-0.7,0-1.3,0-2,0.1c-0.3,0-0.5,0-0.8,0l-73.8-1.3c-1.4,0,0.8,4.4,6.6,6.7
						c23.8,9.4,98.3,64.9,99.8,20.1C239.5,61.6,225.7,50.2,209.3,50.2z"/>
				</g>
				<g>
					<path class="st14" d="M192.8,148.6l-0.4,42c0,4.1-3.4,7.4-7.5,7.4l-0.6,0c-4.1,0-7.4-3.4-7.4-7.5l0.4-42c0-4.1,3.4-7.4,7.5-7.4
						l0.6,0C189.6,141.1,192.9,144.5,192.8,148.6z"/>
					<path class="st14" d="M202.1,140.8l-0.4,41.2c0,2.2-1.9,4-4.1,4l-2,0c-2.2,0-4-1.9-4-4.1l0.4-41.2c0-2.2,1.9-4,4.1-4l2,0
						C200.3,136.7,202.1,138.5,202.1,140.8z"/>
					
						<ellipse transform="matrix(0.8176 -0.5758 0.5758 0.8176 -17.3839 133.5119)" class="st14" cx="202" cy="94.2" rx="31.2" ry="39.2"/>
					<path class="st14" d="M229.6,122L204,158c-3.5,4.9-10.4,6.1-15.3,2.6l-5.7-4.1c-4.9-3.5-6.1-10.4-2.6-15.3l25.5-36
						c3.5-4.9,10.4-6.1,15.3-2.6l5.7,4.1C231.9,110.1,233,117,229.6,122z"/>
					<g>
						<path class="st15" d="M194.2,82.5c-2.9,0-5.6,0.4-8.2,1.3c3.2-3.1,5.1-6.9,5.1-11c0-10.2-4.4-18.4-25.5-18.4h-24.8
							c-1.3-2.7-5.7-5.6-9.7-5.6c-4.6,0-9.3,3.4-10.2,6.6l-2.4,0.3l63.9,70.2h15.3c1,0.3,19.3-1.3,20.6-21.9
							C219.1,92.1,207.5,82.5,194.2,82.5z"/>
						<g>
							<circle class="st14" cx="177.1" cy="72.1" r="8.4"/>
							<ellipse class="st0" cx="177.1" cy="72.1" rx="5.3" ry="5.1"/>
							<circle class="st16" cx="177" cy="72.1" r="2.9"/>
						</g>
					</g>
				</g>
			</g>
			<path class="st12" d="M151.7,92.1c0,0-6.6-3.2-13.7,6.4c0,0-1.3,10.7-18.4,12.9l-2.9,25.3c0,0-23.3-24.6-21.3-48.2
				c0,0,2.7-16.9,23.1-32.9L151.7,92.1z"/>
		</g>
		<g>
			<g>
				<line class="st17" x1="126.7" y1="57" x2="134.2" y2="64.4"/>
				<g>
					<defs>
						<path id="SVGID_1_" d="M140.7,54.3c0,0,4.3,0,9.8,0c4.8,0,10.6,0.2,15.4,0c4.9-0.2,9.1,0.6,10.3,0.9c0.8,0.2,1.6,0.3,2.3,0.5
							c1.3,0.4,2.3,0.8,3.2,1.2c3.8,1.6,4.9,3.2,4.9,3.2l-17.1,7.9l-28.8-3.6V54.3z"/>
					</defs>
					<clipPath id="SVGID_2_">
						<use xlink:href="#SVGID_1_"  style="overflow:visible;"/>
					</clipPath>
					<g class="st18">
						<line class="st19" x1="162.4" y1="54.5" x2="154.9" y2="62"/>
						<line class="st19" x1="177" y1="54.5" x2="169.5" y2="62"/>
						<line class="st19" x1="171.1" y1="53.7" x2="163.6" y2="61.2"/>
						<line class="st19" x1="156.7" y1="53.7" x2="149.3" y2="61.2"/>
						<line class="st19" x1="151.1" y1="53.2" x2="143.6" y2="60.7"/>
					</g>
				</g>
			</g>
			<line class="st19" x1="194.5" y1="92.6" x2="172.7" y2="92.6"/>
			<line class="st19" x1="178.4" y1="87.3" x2="155.1" y2="87.3"/>
			<line class="st19" x1="169.1" y1="79.5" x2="156.7" y2="79.5"/>
			<g>
				<defs>
					<path id="SVGID_3_" d="M200.9,86.4l-5.5,8.9l-20.7,1l8.9,19.4l4.7,7.3l16.7-3l12.9-21.5c-2.4-8.4-9.5-12.1-9.5-12.1H200.9z"/>
				</defs>
				<clipPath id="SVGID_4_">
					<use xlink:href="#SVGID_3_"  style="overflow:visible;"/>
				</clipPath>
				<g class="st20">
					<polyline class="st19" points="213,90 204,90 196.5,97.5 181.7,97.5 					"/>
					<line class="st19" x1="210.2" y1="90.5" x2="191.6" y2="110.7"/>
					<line class="st19" x1="209.5" y1="97.1" x2="190.9" y2="117.2"/>
					<line class="st19" x1="198.2" y1="116.3" x2="206.7" y2="107.1"/>
				</g>
			</g>
		</g>
		<g class="st21">
			<defs>
				<path id="SVGID_5_" class="st21" d="M277.5,378.5c0,0,17,26.4,57.4,31.2l71.9-0.3l54.7-53.4l-25.9-53.8c0,0-39.3-68.9-62.9-94
					c-10.9-11.6-42-50.6-42-50.6L286,175.3l-67.3,107.3c0,0,10.1,21.2,16.7,21.6l18,17.8c0,0,4.4,12.8,13,16.3
					C266.4,338.4,263.5,361.7,277.5,378.5z"/>
			</defs>
			<clipPath id="SVGID_6_">
				<use xlink:href="#SVGID_5_"  style="overflow:visible;"/>
			</clipPath>
			<g class="st22">
				<path class="st3" d="M329.3,429.2l-7.6-39c-0.6-2.9,1.4-5.4,4.3-5.6l0.2,0c2.2-0.1,4.4,1.6,4.9,3.8l7.6,39
					c0.6,2.9-1.4,5.4-4.3,5.6l-0.2,0C331.9,433.1,329.7,431.4,329.3,429.2z"/>
				<path class="st3" d="M349.7,219.7l-9.8-38.5c-0.7-2.9,1.1-5.5,4-5.8l0.2,0c2.2-0.2,4.5,1.3,5.1,3.5l9.8,38.5
					c0.7,2.9-1.1,5.5-4,5.8l-0.2,0C352.6,223.5,350.3,221.9,349.7,219.7z"/>
				<path class="st3" d="M389.1,273.1l-9.8-38.5c-0.7-2.9,1.1-5.5,4-5.8l0.2,0c2.2-0.2,4.5,1.3,5.1,3.5l9.8,38.5
					c0.7,2.9-1.1,5.5-4,5.8l-0.2,0C392,276.8,389.7,275.3,389.1,273.1z"/>
				<path class="st3" d="M275.3,298.7l-7.2-28.4c-0.5-2.1,0.8-4,3-4.3l0.1,0c1.6-0.2,3.3,1,3.7,2.6l7.2,28.4c0.5,2.1-0.8,4-3,4.3
					l-0.1,0C277.4,301.5,275.8,300.3,275.3,298.7z"/>
				<path class="st3" d="M367.4,441.6l-7.2-28.4c-0.5-2.1,0.8-4,3-4.3l0.1,0c1.6-0.2,3.3,1,3.7,2.6l7.2,28.4c0.5,2.1-0.8,4-3,4.3
					l-0.1,0C369.5,444.3,367.8,443.2,367.4,441.6z"/>
				<path class="st3" d="M275.4,355.2l-9.8-38.5c-0.7-2.9,1.1-5.5,4-5.8l0.2,0c2.2-0.2,4.5,1.3,5.1,3.5l9.8,38.5
					c0.7,2.9-1.1,5.5-4,5.8l-0.2,0C278.2,358.9,276,357.4,275.4,355.2z"/>
				<path class="st3" d="M301.7,392.8l-9.8-38.5c-0.7-2.9,1.1-5.5,4-5.8l0.2,0c2.2-0.2,4.5,1.3,5.1,3.5l9.8,38.5
					c0.7,2.9-1.1,5.5-4,5.8l-0.2,0C304.5,396.5,302.2,395,301.7,392.8z"/>
				<path class="st3" d="M251.8,298.7l-9.8-38.5c-0.7-2.9,1.1-5.5,4-5.8l0.2,0c2.2-0.2,4.5,1.3,5.1,3.5l9.8,38.5
					c0.7,2.9-1.1,5.5-4,5.8l-0.2,0C254.7,302.4,252.4,300.9,251.8,298.7z"/>
			</g>
		</g>
		<g>
			<path class="st2" d="M450.1,408.6c-0.1-0.6,4.8-2.2,4.6-2.8c0-0.2-0.1-0.5-0.1-0.7l-6.2-28.8c-0.2-1.3-0.4-2.3-0.7-3.2l-0.4-1.8
				l-0.2,0c-4.2-13.4-7.6-23-13-35.5c-40.8-94.9-108-151.3-163.8-147c-0.9-0.1-1.8-0.2-2.7,0l-2.3,0.4c-0.5,0.1-1,0.2-1.5,0.4
				c-1.9,0.3-3.7,0.7-5.5,1.1c0,0,0.1,1.6,0.4,4.4c-0.3,1.1-0.4,2.3-0.2,3.6l13.9,82.8c0.7,4.1,4.2,6.9,8.2,6.9
				c0.3,0.7,0.5,1.4,0.8,2.1l9,53.6c0.8,4.5,5.1,7.6,9.5,6.8l2.3-0.4c3-0.5,5.4-2.7,6.4-5.4l3.5,21c0.8,4.5,5.1,7.6,9.5,6.8l2.3-0.4
				c1.9-0.3,3.5-1.2,4.7-2.5c0.1,0.1,0.1,0.1,0.2,0.2l1.2,7.2c1.2,7.2,8,12,15.2,10.8l1.2-0.2l0.1,6.9c0.1,7.3,6.1,13.1,13.4,13
				l9.9-0.1l3.1,14.2c0,1.4,0.1,2.9,0.4,4.3c3.3,14.5,24.4,22,46.9,16.8C443,438,453.4,423.1,450.1,408.6z"/>
			<path class="st2" d="M430.8,451.8h-36.2c-13.3,0-24.2-10.9-24.2-24.2v-37c0-13.3,10.9-24.2,24.2-24.2h36.2
				c13.3,0,24.2,10.9,24.2,24.2v37C455,440.9,444.1,451.8,430.8,451.8z"/>
			<path class="st23" d="M290.3,206.4l-29.8,3.6l6.2,34.8l26.3,15.6l79.6,42.4l75.3,68.6c0,0-2.6-13.3-14-39.9L290.3,206.4z"/>
			<g>
				<defs>
					<polygon id="SVGID_7_" points="443.4,351.3 455,374.7 455,425.5 451,440.7 427.7,438.8 364.8,402.9 335.7,369.6 312.7,352.7 
						292.9,332.3 286.7,322.1 280.7,286.2 283.1,280.9 327.6,274.4 					"/>
				</defs>
				<clipPath id="SVGID_8_">
					<use xlink:href="#SVGID_7_"  style="overflow:visible;"/>
				</clipPath>
				<g class="st24">
					<path class="st25" d="M441.8,434.3h-1c-7.2,0-13.1-5.9-13.1-13.1v-51.8c0-7.2,5.9-13.1,13.1-13.1h1c7.2,0,13.1,5.9,13.1,13.1
						v51.8C455,428.4,449.1,434.3,441.8,434.3z"/>
					<path class="st25" d="M423,425.5L423,425.5c-5.7,0-10.4-4.7-10.4-10.4v-47.5c0-5.7,4.7-10.4,10.4-10.4h0
						c5.7,0,10.4,4.7,10.4,10.4v47.5C433.3,420.8,428.6,425.5,423,425.5z"/>
					<path class="st25" d="M406.7,416.6L406.7,416.6c-5.7,0-10.4-4.7-10.4-10.4v-47.5c0-5.7,4.7-10.4,10.4-10.4h0
						c5.7,0,10.4,4.7,10.4,10.4v47.5C417,412,412.4,416.6,406.7,416.6z"/>
					<path class="st25" d="M388.8,410L388.8,410c-5.7,0-10.4-4.7-10.4-10.4v-47.5c0-5.7,4.7-10.4,10.4-10.4l0,0
						c5.7,0,10.4,4.7,10.4,10.4v47.5C399.2,405.3,394.5,410,388.8,410z"/>
					<path class="st25" d="M375.1,398L375.1,398c-5.7,0-10.4-4.7-10.4-10.4v-47.5c0-5.7,4.7-10.4,10.4-10.4l0,0
						c5.7,0,10.4,4.7,10.4,10.4v47.5C385.5,393.3,380.8,398,375.1,398z"/>
					<path class="st25" d="M358.5,382.5L358.5,382.5c-5.7,0-10.4-4.7-10.4-10.4v-47.5c0-5.7,4.7-10.4,10.4-10.4h0
						c5.7,0,10.4,4.7,10.4,10.4v47.5C368.9,377.9,364.2,382.5,358.5,382.5z"/>
					<path class="st25" d="M344.6,369.6L344.6,369.6c-5.7,0-10.4-4.7-10.4-10.4v-47.5c0-5.7,4.7-10.4,10.4-10.4h0
						c5.7,0,10.4,4.7,10.4,10.4v47.5C354.9,364.9,350.3,369.6,344.6,369.6z"/>
					<path class="st25" d="M325.4,356.2L325.4,356.2c-5.7,0-10.4-4.7-10.4-10.4v-47.5c0-5.7,4.7-10.4,10.4-10.4l0,0
						c5.7,0,10.4,4.7,10.4,10.4v47.5C335.7,351.5,331.1,356.2,325.4,356.2z"/>
					<path class="st25" d="M310,339.5L310,339.5c-5.7,0-10.4-4.7-10.4-10.4v-47.5c0-5.7,4.7-10.4,10.4-10.4h0
						c5.7,0,10.4,4.7,10.4,10.4v47.5C320.4,334.8,315.7,339.5,310,339.5z"/>
					<path class="st25" d="M297.6,327.2L297.6,327.2c-5.6,0.9-11-3-11.8-8.6l-7.4-46.9c-0.9-5.6,3-11,8.6-11.8v0
						c5.6-0.9,11,3,11.8,8.6l7.4,46.9C307.1,321,303.2,326.4,297.6,327.2z"/>
				</g>
			</g>
			<g>
				<defs>
					<polygon id="SVGID_9_" points="446.2,357 451,366.7 450.7,416.6 448.7,425.5 436.9,425.5 384.8,397.9 354.2,369.9 323.7,341.8 
						306.4,316.2 276.6,287.9 271.8,285 268.9,259.2 265.4,239 398.6,285 					"/>
				</defs>
				<clipPath id="SVGID_10_">
					<use xlink:href="#SVGID_9_"  style="overflow:visible;"/>
				</clipPath>
				<g class="st26">
					<g>
						<path class="st27" d="M439.6,425.5L439.6,425.5c-6.1,0-11.2-5-11.2-11.2v-49.2c0-6.1,5-11.2,11.2-11.2h0
							c6.1,0,11.2,5,11.2,11.2v49.2C450.8,420.5,445.7,425.5,439.6,425.5z"/>
						<path class="st27" d="M423.9,414.7L423.9,414.7c-5.3,0-9.6-4.3-9.6-9.6V359c0-5.3,4.3-9.6,9.6-9.6h0c5.3,0,9.6,4.3,9.6,9.6
							v46.1C433.5,410.4,429.1,414.7,423.9,414.7z"/>
						<path class="st27" d="M409,404.4h-0.6c-6,0-10.9-4.9-10.9-10.9V350c0-6,4.9-10.9,10.9-10.9h0.6c6,0,10.9,4.9,10.9,10.9v43.5
							C419.9,399.5,415,404.4,409,404.4z"/>
						<path class="st27" d="M392.4,399.8h-0.6c-6,0-10.9-4.9-10.9-10.9v-43.5c0-6,4.9-10.9,10.9-10.9h0.6c6,0,10.9,4.9,10.9,10.9
							v43.5C403.4,394.9,398.4,399.8,392.4,399.8z"/>
						<path class="st27" d="M379.2,377.1h-0.6c-6,0-10.9-4.9-10.9-10.9v-43.5c0-6,4.9-10.9,10.9-10.9h0.6c6,0,10.9,4.9,10.9,10.9
							v43.5C390.1,372.2,385.2,377.1,379.2,377.1z"/>
						<path class="st27" d="M362.7,372.5H362c-6,0-10.9-4.9-10.9-10.9v-43.5c0-6,4.9-10.9,10.9-10.9h0.6c6,0,10.9,4.9,10.9,10.9
							v43.5C373.6,367.6,368.7,372.5,362.7,372.5z"/>
						<path class="st27" d="M347.4,344.1h-0.6c-6,0-10.9-4.9-10.9-10.9v-43.5c0-6,4.9-10.9,10.9-10.9h0.6c6,0,10.9,4.9,10.9,10.9
							v43.5C358.3,339.2,353.4,344.1,347.4,344.1z"/>
						<path class="st27" d="M330.9,339.6h-0.6c-6,0-10.9-4.9-10.9-10.9v-43.5c0-6,4.9-10.9,10.9-10.9h0.6c6,0,10.9,4.9,10.9,10.9
							v43.5C341.8,334.7,336.9,339.6,330.9,339.6z"/>
						<path class="st27" d="M314.9,318.9h-0.6c-6,0-10.9-4.9-10.9-10.9v-43.5c0-6,4.9-10.9,10.9-10.9h0.6c6,0,10.9,4.9,10.9,10.9
							v43.5C325.8,313.9,320.9,318.9,314.9,318.9z"/>
						<path class="st27" d="M297.6,293.6h-0.6c-6,0-10.9-4.9-10.9-10.9v-43.5c0-6,4.9-10.9,10.9-10.9h0.6c6,0,10.9,4.9,10.9,10.9
							v43.5C308.5,288.7,303.6,293.6,297.6,293.6z"/>
						<path class="st27" d="M283.9,288.7l-0.6,0.1c-6,0.7-11.4-3.6-12.1-9.6l-5-43.2c-0.7-6,3.6-11.4,9.6-12.1l0.6-0.1
							c6-0.7,11.4,3.6,12.1,9.6l5,43.2C294.2,282.5,289.9,288,283.9,288.7z"/>
					</g>
					<g>
						<path class="st23" d="M441.7,408.9L441.7,408.9c-5.1,0-9.2-4.2-9.2-9.2v-33c0-5.1,4.2-9.2,9.2-9.2l0,0c5.1,0,9.2,4.2,9.2,9.2
							v33C451,404.7,446.8,408.9,441.7,408.9z"/>
						<path class="st23" d="M423.9,402.3L423.9,402.3c-4.9,0-8.9-4-8.9-8.9v-28.9c0-4.9,4-8.9,8.9-8.9h0c4.9,0,8.9,4,8.9,8.9v28.9
							C432.7,398.4,428.7,402.3,423.9,402.3z"/>
						<path class="st23" d="M408.9,389.7L408.9,389.7c-4.9,0-8.9-4-8.9-8.9v-47c0-4.9,4-8.9,8.9-8.9h0c4.9,0,8.9,4,8.9,8.9v47
							C417.7,385.7,413.8,389.7,408.9,389.7z"/>
						<path class="st23" d="M392.6,378.2L392.6,378.2c-4.9,0-8.9-4-8.9-8.9v-47c0-4.9,4-8.9,8.9-8.9l0,0c4.9,0,8.9,4,8.9,8.9v47
							C401.4,374.2,397.5,378.2,392.6,378.2z"/>
						<path class="st23" d="M378.5,359.2L378.5,359.2c-4.9,0-8.9-4-8.9-8.9v-47c0-4.9,4-8.9,8.9-8.9l0,0c4.9,0,8.9,4,8.9,8.9v47
							C387.3,355.2,383.3,359.2,378.5,359.2z"/>
						<path class="st23" d="M364.8,345.8L364.8,345.8c-4.9,0-8.9-4-8.9-8.9v-47c0-4.9,4-8.9,8.9-8.9l0,0c4.9,0,8.9,4,8.9,8.9v47
							C373.6,341.8,369.7,345.8,364.8,345.8z"/>
						<path class="st23" d="M350.5,329.2L350.5,329.2c-5.3,0-9.6-4.3-9.6-9.6V274c0-5.3,4.3-9.6,9.6-9.6h0c5.3,0,9.6,4.3,9.6,9.6
							v45.6C360,324.9,355.7,329.2,350.5,329.2z"/>
						<path class="st23" d="M333.9,309.2L333.9,309.2c-5.3,0-9.6-4.3-9.6-9.6v-55.7c0-5.3,4.3-9.6,9.6-9.6h0c5.3,0,9.6,4.3,9.6,9.6
							v55.7C343.5,304.9,339.2,309.2,333.9,309.2z"/>
						<path class="st23" d="M317,290.1L317,290.1c-5.8,0-10.6-4.8-10.6-10.6v-59.6c0-5.8,4.8-10.6,10.6-10.6h0
							c5.8,0,10.6,4.8,10.6,10.6v59.6C327.6,285.4,322.8,290.1,317,290.1z"/>
						<path class="st23" d="M298.3,278.2L298.3,278.2c-5.8,0-10.6-4.8-10.6-10.6V208c0-5.8,4.8-10.6,10.6-10.6h0
							c5.8,0,10.6,4.8,10.6,10.6v59.6C308.8,273.4,304.1,278.2,298.3,278.2z"/>
						<path class="st23" d="M280.3,264.6l-1.6,0.2c-6.6,0.6-12.5-4.2-13.1-10.8l-4.9-50.8c-0.6-6.6,4.2-12.5,10.8-13.1l1.6-0.2
							c6.6-0.6,12.5,4.2,13.1,10.8l4.9,50.8C291.7,258,286.9,263.9,280.3,264.6z"/>
					</g>
				</g>
			</g>
			<g>
				<path class="st5" d="M284,236.2L284,236.2c-4.9,0-8.9-4-8.9-8.9v-28.9c0-4.9,4-8.9,8.9-8.9h0c4.9,0,8.9,4,8.9,8.9v28.9
					C292.9,232.3,288.9,236.2,284,236.2z"/>
				<path class="st5" d="M447.3,359.2C447.3,359.2,447.3,359.2,447.3,359.2L447.3,359.2c-0.3-0.8-0.7-1.6-1.1-2.3l-12.3-25.4
					C409.3,263.1,356.5,222,356.5,222c-32.8-27.9-62.7-33.4-80.7-33.5c-1-0.1-1.9-0.1-2.9,0c-9.3,0.2-14.8,1.9-14.8,1.9l0.6,4.5
					c0,0.2,0,0.4,0,0.5l0.7,4.8c-0.1,1.1-0.1,2.2,0.1,3.3l6,35.5c1.2,6.9,7.7,11.5,14.6,10.4l2.5-0.4c6.6-1.1,11.1-7.2,10.5-13.7
					c1.3,3.2,4.5,5.5,8.2,5.5c3.5,0,6.5-2,8-5v9.9c0,4.9,4,8.9,8.9,8.9c4.9,0,8.9-4,8.9-8.9v18.7c0,4.9,4,8.9,8.9,8.9h0
					c2.6,0,5-1.2,6.6-3V285c0,4.7,3.8,8.5,8.5,8.5h0.7c2.9,0,5.5-1.5,7-3.7v9.8c0,4.7,3.8,8.5,8.5,8.5h0.7c3.7,0,6.9-2.4,8-5.8
					c0.2-0.1,0.3-0.2,0.5-0.3v16.1c0,4.7,3.8,8.5,8.5,8.5h0.7c2.9,0,5.5-1.5,7-3.7l0,2.4c0,0.3,0,0.5,0.1,0.8v11.5
					c0,4.5,3.7,8.2,8.2,8.2h0c4.1,0,7.6-3.1,8.1-7.2l0,10.4c0,0.2,0,0.5,0.1,0.7v18.1c0,4.5,3.7,8.2,8.2,8.2h0
					c2.9,0,5.4-1.5,6.8-3.7v7.3c0,6.5,5.3,11.9,11.9,11.9h0.3c6.5,0,11.9-5.3,11.9-11.9v-16.3C448,361.8,447.7,360.5,447.3,359.2z
					 M292.3,225.3v5.9l-1-6.2C291.6,225.1,291.9,225.2,292.3,225.3L292.3,225.3z M326.9,235.3C326.9,235.3,326.9,235.3,326.9,235.3
					c0,0.1,0,0.1,0,0.2V235.3z"/>
			</g>
		</g>
	</g>
</g>
</svg>
