<?xml version="1.0" encoding="utf-8"?>
<!-- Generator: Adobe Illustrator 22.1.0, SVG Export Plug-In . SVG Version: 6.00 Build 0)  -->
<svg version="1.1" id="Capa_1" xmlns="http://www.w3.org/2000/svg" xmlns:xlink="http://www.w3.org/1999/xlink" x="0px" y="0px"
	 viewBox="0 0 1366 768" style="enable-background:new 0 0 1366 768;" xml:space="preserve">
<style type="text/css">
	.st0{fill:#F19368;}
	.st1{fill:#864D2E;}
	.st2{fill:none;stroke:#3A3128;stroke-width:45;stroke-linecap:round;stroke-linejoin:round;stroke-miterlimit:10;}
	.st3{fill:#3A3128;}
	.st4{fill:#644F3F;}
	.st5{fill:#ACA189;}
	.st6{fill:#764428;}
	.st7{fill:#907258;}
	.st8{fill:#857768;}
	.st9{clip-path:url(#SVGID_2_);}
	.st10{fill:#7B5839;}
	.st11{fill:#5C5247;}
	.st12{fill:#403121;}
	.st13{fill:#FFFFFF;}
	.st14{fill:#AFABA8;}
	.st15{clip-path:url(#SVGID_4_);}
	.st16{fill:#4F75B8;}
	.st17{fill:#22224B;}
	.st18{fill:#020304;}
	.st19{fill:#D3CCC6;}
	.st20{fill:#A99B8F;}
	.st21{fill:#857364;}
	.st22{fill:#C4B2A2;}
	.st23{fill:#A9907A;}
</style>
<g>
	<path class="st0" d="M1212.2,246.5h-20.1c0,0,12.4,17.3,12.5,17.7L1212.2,246.5z"/>
	<path class="st1" d="M1194.8,250.6c0.2,0,8.8-0.2,6.8,9.2"/>
	<g>
		<path class="st2" d="M301.8,322.3c0,0-249.3-69.1-100.8-224.4C297.5-3,411.8,93.8,411.8,93.8"/>
		<path class="st3" d="M323.1,708.7L306.6,593c0,0,49.6-108,42.6-165.5l120.3,61.9c0,0-104.6,66.7-110,147.4l15,71.9H323.1z"/>
		<path class="st3" d="M1040.6,657.7l0.3-0.4c-35.5-15.1-123.8-200.8-123.8-200.8l-58.6-16.6l-7.1,76.3l41.6,59.2l66.6,71.3
			l52.6,38.5v2.5c0,5.3,4.3,9.6,9.6,9.6h16c5.3,0,9.6-4.3,9.6-9.6v-20.8C1047.3,662.6,1044.5,658.9,1040.6,657.7z"/>
		<path class="st4" d="M977.7,669.7h-4.6c-6.8,0-12.4-5.6-12.4-12.4l0,0c0-6.8,5.6-12.4,12.4-12.4h4.6c6.8,0,12.4,5.6,12.4,12.4l0,0
			C990.1,664.1,984.5,669.7,977.7,669.7z"/>
		<path class="st5" d="M859.5,543l-393.2-87.7c-17.8-4-29.1-21.8-25.1-39.6l6.5-29.1c4-17.8,21.8-29.1,39.6-25.1l393.2,87.7
			c17.8,4,29.1,21.8,25.1,39.6l-6.5,29.1C895.1,535.7,877.3,547,859.5,543z"/>
		<path class="st5" d="M840.4,538.7l-373-59c-17.5-2.8-29.5-19.3-26.8-36.8l5-31.4c2.8-17.5,19.3-29.5,36.8-26.8l373,59
			c17.5,2.8,29.5,19.3,26.8,36.8l-5,31.4C874.4,529.4,857.8,541.5,840.4,538.7z"/>
		<path class="st5" d="M1144.7,200.5L894.1,533.3c-8.7,11.5-25.3,13.9-36.8,5.2l-34.8-26.2c-11.5-8.7-13.9-25.3-5.2-36.8L997,236.7
			C997,236.7,1153.4,188.9,1144.7,200.5z"/>
		<polygon class="st6" points="1040,297.8 1019.4,215.6 1003.3,190.5 966.5,209.5 908.2,239.3 863,236.9 863,353.4 897.2,355.8 
			905.1,332.4 900.7,465.2 		"/>
		<path class="st5" d="M805.7,468.2l0.9,9.8c0,0,24.1,22.7,53.6,20.5l107.1-78.1l-162-32.8L805.7,468.2z"/>
		<path class="st7" d="M811.2,682.1h-4.6c-6.8,0-12.4-5.6-12.4-12.4v0c0-6.8,5.6-12.4,12.4-12.4h4.6c6.8,0,12.4,5.6,12.4,12.4v0
			C823.7,676.5,818.1,682.1,811.2,682.1z"/>
		<ellipse class="st6" cx="815.7" cy="295.6" rx="74.5" ry="74.3"/>
		<polygon class="st1" points="872.8,443.7 843.5,459.5 739.7,436.8 559.5,405.8 568.4,323.4 893.3,355.8 		"/>
		<path class="st7" d="M356.5,669.7H352c-6.8,0-12.4-5.6-12.4-12.4l0,0c0-6.8,5.6-12.4,12.4-12.4h4.6c6.8,0,12.4,5.6,12.4,12.4l0,0
			C369,664.1,363.4,669.7,356.5,669.7z"/>
		<g>
			<path class="st8" d="M824.1,446.6l194.4-250.9c13.4-17.3,38.5-20.5,55.8-7.1l0,0c17.3,13.4,20.5,38.5,7.1,55.8L887,495.3
				c-13.4,17.3-38.5,20.5-55.8,7.1l0,0C813.9,489,810.7,463.9,824.1,446.6z"/>
		</g>
		<path class="st3" d="M311.1,359.3c0,72.6,65.6,131.5,146.6,131.5c40.5,0,77.1-14.7,103.7-38.5
			C587.9,428.5,311.1,286.7,311.1,359.3z"/>
		<path class="st8" d="M523.5,399.6l322,55.4c14.8,2.5,24.8,16.7,22.3,31.5v0c-2.5,14.8-16.7,24.8-31.5,22.3l-322-55.4
			c-14.8-2.5-24.8-16.7-22.3-31.5l0,0C494.5,407.1,508.7,397.1,523.5,399.6z"/>
		<g>
			<defs>
				<path id="SVGID_1_" d="M1076.2,171.1c-10.3-0.5-23.2,4.8-36.2,8.7c-12.1,3.6-24.3,5.4-36.7,10.7c-8.6,3.7-21.5,12.4-28,14.5
					L845.4,375.6l-11.2,87.2l42.7,8.3l192-189.6l47.4-100.5C1116.3,181,1093.1,172,1076.2,171.1z"/>
			</defs>
			<clipPath id="SVGID_2_">
				<use xlink:href="#SVGID_1_"  style="overflow:visible;"/>
			</clipPath>
			<g class="st9">
				<path class="st3" d="M854.4,361.7l222-291.9c12.5-16.5,36.1-19.5,52.4-6.6l2.9,2.3c15.7,12.4,18.6,35.5,6.5,51.4l-222,291.9
					c-12.5,16.5-36.1,19.5-52.4,6.6l-2.9-2.3C845.3,400.8,842.3,377.6,854.4,361.7z"/>
			</g>
		</g>
		<polygon class="st8" points="1170.8,280.2 1114.5,272.8 1134,244.9 1151,229.3 1188.5,246.5 		"/>
		<circle class="st10" cx="1105" cy="250.7" r="30.9"/>
		<path class="st10" d="M1153.9,226.6l-1.2-24.8c-14.9-16.1-47.6-26.2-47.6-26.2l0,0c-8.3-2.8-18-4.5-28.4-4.5
			c-31,0-56.1,14.5-56.1,32.5c0,17.9,25.1,32.5,56.1,32.5c16.8,0,31.9-4.3,42.2-11.1l1.4,4.8L1153.9,226.6z"/>
		<circle class="st10" cx="1057" cy="257.9" r="45.9"/>
		<path class="st11" d="M1122.7,223.8c0,0,27.5-10.3,31.2,14.2c0,0-8.1,3.8-16.5-0.5C1137.3,237.6,1126.7,231.3,1122.7,223.8z"/>
		<path class="st12" d="M1152.7,202.5c0,0-17.8-12.8-17-0.9c0.8,11.9,18.3,29.1,18.3,29.1"/>
		<path class="st12" d="M1173.5,218.4c0,0,33.5,15.3,38.6,28.1h-23.7l-37.4-17.2l1.6-26.8L1173.5,218.4z"/>
		<circle class="st8" cx="1145.9" cy="231.9" r="10.3"/>
		<polygon class="st12" points="1153.9,204.1 1151.7,217.3 1188.5,246.5 1212.2,246.5 		"/>
		<ellipse class="st11" cx="1040" cy="246.5" rx="26.7" ry="27.7"/>
		<ellipse class="st11" cx="1057.7" cy="283.2" rx="26.7" ry="27.7"/>
		<polygon class="st13" points="1032.1,239.6 1032.1,138.6 1047.9,211 		"/>
		<g>
			
				<ellipse transform="matrix(9.644745e-02 -0.9953 0.9953 9.644745e-02 691.2019 1306.3549)" class="st14" cx="1065.1" cy="272.5" rx="29.8" ry="28.5"/>
			<path class="st14" d="M1066.9,302.1c0,0,56-7,97,5.8l8.3-24.4l-14.4-7.7l-43-3.1l-31.8-23.6L1066.9,302.1z"/>
			<path class="st14" d="M1174.3,311.3l-20.8-5.5c-7-1.8-11.2-9-9.3-16l1-3.9c1.8-7,9-11.2,16-9.3l20.8,5.5c7,1.8,11.2,9,9.3,16
				l-1,3.9C1188.5,309,1181.3,313.2,1174.3,311.3z"/>
		</g>
		<polyline class="st11" points="1032.1,138.6 1016.2,234.6 1032.1,239.6 1032.1,134.6 		"/>
		<polygon class="st3" points="1032.1,138.6 1003.3,190.5 1003.8,192.3 1016.2,234.6 		"/>
		<ellipse class="st10" cx="1093.1" cy="257.3" rx="41.7" ry="36.1"/>
		<ellipse class="st14" cx="1057.7" cy="239.5" rx="26.7" ry="23.9"/>
		<path class="st10" d="M1063.8,201.7c0.6,0,1.1-0.1,1.7-0.1c14.8,0,26.7,12.4,26.7,27.7s-12,27.7-26.7,27.7
			c-14.8,0-26.7-12.4-26.7-27.7C1038.8,214.6,1049.8,202.6,1063.8,201.7"/>
		<path class="st12" d="M1153.9,237.7l-30.9-13.5c0,0-3.7,15.7,11,20.7C1139.1,246.6,1146.8,248.6,1153.9,237.7z"/>
		<g>
			<defs>
				<path id="SVGID_3_" d="M1122.3,223.9c0,0,1.1-0.4,3-0.9c7.4-2.1,26-4.8,28.6,15c0,0-8,3.9-19.3-1.7
					C1130.7,234.5,1129.6,233.1,1122.3,223.9z"/>
			</defs>
			<use xlink:href="#SVGID_3_"  style="overflow:visible;fill:#020304;"/>
			<clipPath id="SVGID_4_">
				<use xlink:href="#SVGID_3_"  style="overflow:visible;"/>
			</clipPath>
			<g class="st15">
				<circle class="st16" cx="1140.1" cy="224.7" r="10.7"/>
				<circle class="st17" cx="1140.1" cy="224.4" r="8.7"/>
				<circle class="st18" cx="1140" cy="223.6" r="7.7"/>
				<circle class="st13" cx="1139.2" cy="226.3" r="1.6"/>
			</g>
		</g>
		<ellipse class="st19" cx="1181.4" cy="263.4" rx="20.2" ry="19.8"/>
		<circle class="st13" cx="1188.2" cy="266.5" r="15.9"/>
		<path class="st20" d="M1099.6,697.6L1099.6,697.6c-10.1,0-18.4-8.3-18.4-18.4v-3.5c0-10.1,8.3-18.4,18.4-18.4h0
			c10.1,0,18.4,8.3,18.4,18.4v3.5C1118,689.3,1109.7,697.6,1099.6,697.6z"/>
		<path class="st21" d="M1073.8,697.6L1073.8,697.6c-10.1,0-18.4-8.3-18.4-18.4v-3.5c0-10.1,8.3-18.4,18.4-18.4l0,0
			c10.1,0,18.4,8.3,18.4,18.4v3.5C1092.2,689.3,1083.9,697.6,1073.8,697.6z"/>
		<path class="st4" d="M1042.2,697.6L1042.2,697.6c-10.1,0-18.4-8.3-18.4-18.4v-3.5c0-10.1,8.3-18.4,18.4-18.4h0
			c10.1,0,18.4,8.3,18.4,18.4v3.5C1060.7,689.3,1052.4,697.6,1042.2,697.6z"/>
		<path class="st12" d="M1111.7,242.2c0,0-4.6,28.2-39.6,26.8c0,0,15.9,23.2,34.5,9.5C1119.5,269,1111.7,242.2,1111.7,242.2z"/>
		<path class="st6" d="M767,239.3c0,0-67,24.5-231.9-12.8c0,0-58.6-13.4-92.7-17.8s82.4,78.8,82.4,78.8l17.4,35.8l26.2,22
			l247.3,24.5L767,239.3z"/>
		<ellipse class="st6" cx="794.2" cy="471.8" rx="69.2" ry="69.1"/>
		<polygon class="st6" points="808.6,677.4 839.8,703.5 894.1,693.5 854.9,657.2 833.1,521.9 744,516.3 774.5,595.9 		"/>
		<g>
			<path class="st22" d="M894.1,708.5L894.1,708.5c-7.5,0-13.6-6.1-13.6-13.6v-2.6c0-7.5,6.1-13.6,13.6-13.6l0,0
				c7.5,0,13.6,6.1,13.6,13.6v2.6C907.7,702.3,901.6,708.5,894.1,708.5z"/>
			<path class="st23" d="M875,708.5L875,708.5c-7.5,0-13.6-6.1-13.6-13.6v-2.6c0-7.5,6.1-13.6,13.6-13.6h0c7.5,0,13.6,6.1,13.6,13.6
				v2.6C888.6,702.3,882.5,708.5,875,708.5z"/>
			<path class="st7" d="M851.7,708.5L851.7,708.5c-7.5,0-13.6-6.1-13.6-13.6v-2.6c0-7.5,6.1-13.6,13.6-13.6h0
				c7.5,0,13.6,6.1,13.6,13.6v2.6C865.3,702.3,859.2,708.5,851.7,708.5z"/>
		</g>
		<polygon class="st3" points="890.2,423.3 846,423.3 853.2,387.5 		"/>
		<path class="st6" d="M852.9,490.8H735.6c-5.2,0-10.3-8.7-10.3-14.9l0.7-125.2c0-6.2,4.3-11.2,9.5-11.2h117.4c5.2,0,9.5,5,9.5,11.2
			l0.7,124.8C863.2,481.7,858.2,490.8,852.9,490.8z"/>
		<polygon class="st1" points="1003.8,192.3 863.5,395.7 862.5,350.7 975.3,205 		"/>
		<path class="st6" d="M369.5,705.1l-31.9-95.2c0,0,31.9-114.5,16-170.1l116,25.4c0,0-80.2,99.2-72.8,179.6l23.3,52.3L369.5,705.1z"
			/>
		<g>
			<path class="st22" d="M425.6,716L425.6,716c-7.5,0-13.6-6.1-13.6-13.6v-2.6c0-7.5,6.1-13.6,13.6-13.6h0c7.5,0,13.6,6.1,13.6,13.6
				v2.6C439.2,709.9,433.1,716,425.6,716z"/>
			<path class="st23" d="M406.5,716L406.5,716c-7.5,0-13.6-6.1-13.6-13.6v-2.6c0-7.5,6.1-13.6,13.6-13.6h0c7.5,0,13.6,6.1,13.6,13.6
				v2.6C420.1,709.9,414,716,406.5,716z"/>
			<path class="st7" d="M383.2,716L383.2,716c-7.5,0-13.6-6.1-13.6-13.6v-2.6c0-7.5,6.1-13.6,13.6-13.6h0c7.5,0,13.6,6.1,13.6,13.6
				v2.6C396.8,709.9,390.7,716,383.2,716z"/>
		</g>
		<ellipse class="st6" cx="432.3" cy="340.3" rx="146.6" ry="131.5"/>
		<path class="st6" d="M297.6,392.2c0,0,48.4,68.7,59.8,106.5c11.4,37.8,39.5-26.8,39.5-26.8L297.6,392.2z"/>
		<path class="st6" d="M285.7,321.1c0,0-22.2,94,72.1,169.7"/>
		<polygon class="st6" points="301.8,423.3 356.2,512.2 411.9,427.5 		"/>
	</g>
</g>
</svg>
