<?xml version="1.0" encoding="utf-8"?>
<!-- Generator: Adobe Illustrator 22.1.0, SVG Export Plug-In . SVG Version: 6.00 Build 0)  -->
<svg version="1.1" id="Capa_1" xmlns="http://www.w3.org/2000/svg" xmlns:xlink="http://www.w3.org/1999/xlink" x="0px" y="0px"
	 viewBox="0 0 1850 1389.3" style="enable-background:new 0 0 1850 1389.3;" xml:space="preserve">
<style type="text/css">
	.st0{fill:none;stroke:#917E6D;stroke-width:3;stroke-linecap:round;stroke-linejoin:round;stroke-miterlimit:10;}
	.st1{fill:#3B3229;}
	.st2{clip-path:url(#SVGID_2_);fill:#100F10;}
	.st3{clip-path:url(#SVGID_2_);fill:#FFFDF4;}
	.st4{clip-path:url(#SVGID_2_);fill:#DDDBDB;}
	.st5{clip-path:url(#SVGID_2_);fill:#F0F1F1;}
	.st6{clip-path:url(#SVGID_2_);fill:#7A6258;}
	.st7{clip-path:url(#SVGID_2_);fill:#864921;}
	.st8{clip-path:url(#SVGID_2_);fill:#251813;}
	.st9{clip-path:url(#SVGID_2_);fill:#76706A;}
	.st10{clip-path:url(#SVGID_2_);fill:#1D1916;}
	.st11{clip-path:url(#SVGID_2_);fill:#402F25;}
	.st12{clip-path:url(#SVGID_2_);fill:#0D0D0B;}
	.st13{clip-path:url(#SVGID_2_);fill:#FFFFFF;}
	.st14{clip-path:url(#SVGID_2_);fill:none;stroke:#76706A;stroke-width:0.493;stroke-miterlimit:10;}
	.st15{clip-path:url(#SVGID_2_);fill:#3B3229;}
	.st16{fill:none;stroke:#917E6D;stroke-width:9;stroke-linecap:round;stroke-linejoin:round;stroke-miterlimit:10;}
	.st17{clip-path:url(#SVGID_4_);fill:#B7E4B1;}
	
		.st18{clip-path:url(#SVGID_4_);fill:none;stroke:#B7E4B1;stroke-width:2.258;stroke-linecap:round;stroke-linejoin:round;stroke-miterlimit:10;}
	.st19{clip-path:url(#SVGID_4_);fill:none;stroke:#98C693;stroke-width:10;stroke-miterlimit:10;}
	.st20{clip-path:url(#SVGID_4_);fill:#86B481;}
	.st21{clip-path:url(#SVGID_4_);fill:#375133;}
	.st22{clip-path:url(#SVGID_4_);fill:#5D9651;}
	
		.st23{clip-path:url(#SVGID_4_);fill:none;stroke:#B7E4B1;stroke-width:2.352;stroke-linecap:round;stroke-linejoin:round;stroke-miterlimit:10;}
	
		.st24{clip-path:url(#SVGID_4_);fill:none;stroke:#B7E4B1;stroke-width:1.912;stroke-linecap:round;stroke-linejoin:round;stroke-miterlimit:10;}
	.st25{clip-path:url(#SVGID_4_);fill:none;stroke:#0A3805;stroke-width:8;stroke-linecap:round;stroke-linejoin:round;}
	.st26{clip-path:url(#SVGID_4_);fill:none;stroke:#0A3805;stroke-width:3.825;stroke-linecap:round;stroke-linejoin:round;}
	.st27{clip-path:url(#SVGID_4_);fill:none;stroke:#0A3805;stroke-width:11;stroke-linecap:round;stroke-linejoin:round;}
	.st28{clip-path:url(#SVGID_4_);fill:#406E3B;}
	.st29{clip-path:url(#SVGID_4_);fill:#3F7631;}
	
		.st30{clip-path:url(#SVGID_4_);fill:none;stroke:#5D9651;stroke-width:9;stroke-linecap:round;stroke-linejoin:round;stroke-miterlimit:10;}
	.st31{clip-path:url(#SVGID_4_);}
	.st32{fill:#5D9651;}
	.st33{fill:none;stroke:#3F7631;stroke-width:3.418;stroke-linecap:round;stroke-linejoin:round;stroke-miterlimit:10;}
	.st34{fill:none;stroke:#3F7631;stroke-width:1.953;stroke-linecap:round;stroke-linejoin:round;stroke-miterlimit:10;}
	.st35{fill:#375133;}
	.st36{fill:#85B480;}
	.st37{fill:none;stroke:#85B480;stroke-width:8;stroke-linecap:round;stroke-linejoin:round;stroke-miterlimit:10;}
	.st38{fill:none;}
</style>
<g>
	<line class="st0" x1="1622.6" y1="582" x2="1468.8" y2="641.8"/>
	<polygon class="st1" points="1339.8,666 1010.3,894.3 -410.5,911.8 -256.2,1074.1 1043.2,1066.2 1291.6,878.6 	"/>
	<g>
		<defs>
			<rect id="SVGID_1_" x="-889.4" y="-1377" width="3007.5" height="3821"/>
		</defs>
		<clipPath id="SVGID_2_">
			<use xlink:href="#SVGID_1_"  style="overflow:visible;"/>
		</clipPath>
		<path class="st2" d="M782.3,731l74.3-14.5l77.2,135.2c0,0,20.7,83.7-232.1,61.8C449,891.6,782.3,731,782.3,731"/>
		<path class="st3" d="M608.9,907.9c0,0,11.2-64.4,52-85.5c40.9-21.1,50.2-6.8,50.2-6.8s16.7,26-37.8,75.6c0,0,68.1-29.1,121.4-18.6
			c0,0,42.7-3.7,42.7,37.8l-40.8,5.8L778,900.7l-76.2,12.8L608.9,907.9z"/>
		<path class="st4" d="M835,915.5l-1.3,36.9c-0.1,2.8,2.1,5.2,4.9,5.3l4.6,0.2c2.8,0.1,5.2-2.1,5.3-4.9l1.3-36.9
			c0.1-2.8-2.1-5.2-4.9-5.3l-4.6-0.2C837.4,910.5,835.1,912.7,835,915.5"/>
		<path class="st3" d="M1008.4,895.1l-18.6,1.6l-15.2-34.6c0,0,13.3,13.1,40.2-4.2C1041.7,840.7,1008.4,895.1,1008.4,895.1"/>
		<path class="st4" d="M1059.3,846.9l30.4,16c2.6,1.4,5.8,0.4,7.1-2.2l1.5-2.8c1.4-2.6,0.4-5.8-2.2-7.1l-30.4-16
			c-2.6-1.4-5.8-0.4-7.1,2.2l-1.5,2.8C1055.8,842.3,1056.8,845.5,1059.3,846.9"/>
		<path class="st4" d="M1022.9,870.5l39.1-25.2c2.6-1.7,3.4-5.2,1.7-7.8l-1.9-3c-1.7-2.6-5.2-3.4-7.8-1.7l-39.1,25.2
			c-2.6,1.7-3.4,5.2-1.7,7.8l1.9,3C1016.7,871.4,1020.3,872.2,1022.9,870.5"/>
		<path class="st5" d="M1060.2,854.8l25.9,22.5c2.2,1.9,5.5,1.7,7.5-0.5l2.1-2.4c1.9-2.2,1.7-5.5-0.5-7.5l-25.9-22.5
			c-2.2-1.9-5.6-1.7-7.5,0.5l-2.1,2.4C1057.8,849.6,1058,852.9,1060.2,854.8"/>
		<path class="st5" d="M1021.5,882.3l39.1-25.2c2.6-1.7,3.4-5.2,1.7-7.8l-1.9-3c-1.7-2.6-5.2-3.4-7.8-1.7l-39.1,25.2
			c-2.6,1.7-3.4,5.2-1.7,7.8l1.9,3C1015.3,883.2,1018.8,884,1021.5,882.3"/>
		<path class="st6" d="M976.5,864.5l13.3,32.2c0,0-84.9-99.1-101.6-91.1c-16.7,8.1-35.9-16.7-39.6,53.3c0,0-43.4-48.9-18.6-87.4
			l24.8-38.4c0,0-42.2,27.1-62.6,11.8c-9.9-7.4,27.3,44.6-63.8,135.7l-55.1,10.5l-63.8,11.8h-35.3c0,0-32.8-178.4,136.9-290.6
			c49.7-32.8,97.9-62,258.7-51c180.2,12.2,22.5,252.4,22.5,252.4L976.5,864.5z"/>
		<path class="st7" d="M1008.5,684.4c0,0-107.3,84.7-43.7,165.2l11.8,14.9l16.4-34.7l31-137.5L1008.5,684.4z"/>
		<path class="st8" d="M1119.1,679.5c0,0-1.6,98.9-126.1,150.3c0,0-37.2-12.4-17.3-61c19.8-48.6,44.3-78.5,44.3-78.5L1119.1,679.5z"
			/>
		<path class="st8" d="M1158.7,600.5c0,54.4-44.1,98.6-98.5,98.6c-54.4,0-98.5-44.1-98.5-98.6c0-54.4,44.1-98.6,98.5-98.6
			C1114.6,502,1158.7,546.1,1158.7,600.5"/>
		<path class="st3" d="M1135.4,632.6c17.6,4.5,35.5-6,40-23.6c4.5-17.6-6-35.5-23.6-40L1135.4,632.6z"/>
		<path class="st9" d="M1129.4,631c17.6,4.5,35.5-6,40-23.6c4.5-17.6-6-35.5-23.6-40L1129.4,631z"/>
		<path class="st10" d="M1134.3,615.2c8.5,2.2,17.2-2.9,19.4-11.4c2.2-8.5-2.9-17.2-11.4-19.4L1134.3,615.2z"/>
		<path class="st3" d="M981.5,637c-17.7,3.8-35.2-7.6-38.9-25.3c-3.8-17.7,7.6-35.2,25.3-38.9L981.5,637z"/>
		<path class="st9" d="M987.6,635.8c-17.7,3.8-35.2-7.6-38.9-25.3c-3.8-17.7,7.6-35.2,25.3-38.9L987.6,635.8z"/>
		<path class="st10" d="M983.3,619.8c-8.6,1.8-17-3.7-18.9-12.3c-1.8-8.6,3.7-17,12.3-18.9L983.3,619.8z"/>
		<path class="st3" d="M1146.6,612.7c0,47.7-39.3,86.4-87.9,86.4c-48.5,0-87.9-38.7-87.9-86.4c0-47.7,39.3-86.4,87.9-86.4
			C1107.3,526.3,1146.6,565,1146.6,612.7"/>
		<path class="st9" d="M1010.9,661.2c-4.7-7-7.8-15-8.9-23.6c-1.3-6.2-2-12.8-2-19.7c0-35.1,18.2-63.5,40.5-63.5
			c8.8,0,16.9,4.4,23.5,11.8c6.6-7.4,14.8-11.8,23.5-11.8c22.4,0,40.5,28.4,40.5,63.5v12.5c0,32.5-28.4,58.9-63.3,58.9
			c-13.5,0-26-3.9-36.3-10.6C1021.8,675.2,1015.7,669.2,1010.9,661.2"/>
		<path class="st2" d="M1074.8,598.1l41.4,2.1c0,0-20.4,26.6-45.3,21.6l2.5-23.6"/>
		<path class="st11" d="M1097.3,610c0,4.4-3.6,8-8.1,8s-8.1-3.6-8.1-8c0-4.4,3.6-8,8.1-8S1097.3,605.6,1097.3,610"/>
		<path class="st12" d="M1092.6,606.6c0,2.6-2.1,4.7-4.7,4.7s-4.7-2.1-4.7-4.7c0-2.6,2.1-4.7,4.7-4.7S1092.6,604.1,1092.6,606.6"/>
		<path class="st13" d="M1089,604.6c0,1.1-0.9,2-2,2c-1.1,0-2-0.9-2-2c0-1.1,0.9-2,2-2C1088.1,602.6,1089,603.5,1089,604.6"/>
		<path class="st2" d="M1050.6,598.6l-41.4-1.8c0,0,17.9,28.4,43.1,25.7l-0.3-23.8"/>
		<path class="st11" d="M1030.8,609.7c0,4.4,3.6,8,8.1,8s8.1-3.6,8.1-8c0-4.4-3.6-8-8.1-8S1030.8,605.3,1030.8,609.7"/>
		<path class="st12" d="M1035.5,606.4c0,2.6,2.1,4.7,4.7,4.7s4.7-2.1,4.7-4.7c0-2.6-2.1-4.7-4.7-4.7S1035.5,603.8,1035.5,606.4"/>
		<path class="st13" d="M1039.2,604.4c0,1.1,0.9,2,2,2c1.1,0,2-0.9,2-2c0-1.1-0.9-2-2-2C1040.1,602.4,1039.2,603.3,1039.2,604.4"/>
		<path class="st3" d="M1086.6,632.4c-1.7-0.5,21,23.9,5.9,52c0,0,19.7-7,21.1-24.9C1114.4,650.1,1105,637.3,1086.6,632.4"/>
		<path class="st3" d="M1042,684.9c1.7,0.5-21-23.9-5.9-52c0,0-19.7,7-21.1,24.9C1014.2,667.1,1023.6,680,1042,684.9"/>
		<path class="st10" d="M1058.9,626.2c1.6-0.1,3.2-0.2,4.9-0.2c25.1,0,45.5,14.4,45.5,32.1c0,17.7-20.4,32.1-45.5,32.1
			s-45.5-14.4-45.5-32.1C1018.4,641.5,1036.1,627.9,1058.9,626.2"/>
		<path class="st9" d="M1071.7,648.7c0,3.2,2.6,5.8,5.8,5.8c3.2,0,5.8-2.6,5.8-5.8c0-3.2-2.6-5.8-5.8-5.8
			C1074.3,642.9,1071.7,645.5,1071.7,648.7"/>
		<path class="st9" d="M1045,648.7c0,3.2,2.6,5.8,5.8,5.8c3.2,0,5.8-2.6,5.8-5.8c0-3.2-2.6-5.8-5.8-5.8
			C1047.6,642.9,1045,645.5,1045,648.7"/>
		<path class="st14" d="M1108.4,663.8c0,0-44.4,25.2-89.2,0"/>
		<path class="st3" d="M848.6,858.9c0,0,25.4,57,67.2,74.7c0,0,50.9,34.4,64.5,61.3c0,0,42.3,14.9,38.6-30.7
			c-3.7-45.5-19.1-24.5-29.1-67.5L920.2,824C920.2,824,848.3,761,848.6,858.9"/>
		<path class="st3" d="M1001.8,946.1l48,41.5c2.5,2.2,6.4,1.9,8.6-0.6l1-1.1c2.2-2.5,1.9-6.4-0.6-8.6l-48-41.5
			c-2.5-2.2-6.4-1.9-8.6,0.6l-1,1.1C998.9,940,999.2,943.9,1001.8,946.1"/>
		<path class="st3" d="M1040.1,867.3l21.5,18.6c2,1.7,5.1,1.5,6.8-0.5l2.6-3.1c1.7-2,1.5-5.1-0.5-6.8l-21.5-18.6
			c-2-1.7-5.1-1.5-6.8,0.5l-2.6,3.1C1037.9,862.5,1038.1,865.5,1040.1,867.3"/>
		<path class="st3" d="M1010.3,894.3l39.1-25.2c2.6-1.7,3.4-5.2,1.7-7.8l-1.9-3c-1.7-2.6-5.2-3.4-7.8-1.7l-39.1,25.2
			c-2.6,1.7-3.4,5.2-1.7,7.8l1.9,3C1004.2,895.3,1007.7,896,1010.3,894.3"/>
		<path class="st3" d="M979.3,997l-1.3,36.9c-0.1,2.8,2.1,5.2,4.9,5.3l4.6,0.2c2.8,0.1,5.2-2.1,5.3-4.9l1.3-36.9
			c0.1-2.8-2.1-5.2-4.9-5.3l-4.6-0.2C981.8,991.9,979.4,994.1,979.3,997"/>
		<path class="st3" d="M990.4,985.1l27.9,36.6c2,2.6,5.7,3.1,8.3,1.1l3.5-2.7c2.6-2,3.1-5.7,1.1-8.3l-27.9-36.6
			c-2-2.6-5.7-3.1-8.3-1.1l-3.5,2.7C988.9,978.7,988.4,982.5,990.4,985.1"/>
		<path class="st4" d="M817.3,905.3l14.3,18.7c1.9,2.5,5.5,3,8,1.1l8-6.1c2.5-1.9,3-5.5,1.1-8l-14.3-18.7c-1.9-2.5-5.5-3-8-1.1
			l-8,6.1C815.8,899.2,815.4,902.8,817.3,905.3"/>
		<path class="st3" d="M1005,973.4l28.2,37c1.9,2.5,5.5,3,8,1.1l2.8-2.1c2.5-1.9,3-5.5,1.1-8l-28.2-37c-1.9-2.5-5.5-3-8-1.1
			l-2.8,2.1C1003.6,967.3,1003.1,970.9,1005,973.4"/>
		<path class="st3" d="M1034.5,1005.9l1.1,23.4c0.1,2.1,1.9,3.7,3.9,3.6l4.6-0.2c2.1-0.1,3.7-1.9,3.6-3.9l-1.1-23.4
			c-0.1-2.1-1.9-3.7-3.9-3.6l-4.6,0.2C1036,1002.1,1034.4,1003.8,1034.5,1005.9"/>
		<path class="st3" d="M1020.3,1014.6l-1,32.6c-0.1,2.4,1.8,4.4,4.2,4.5l3.4,0.1c2.4,0.1,4.4-1.8,4.5-4.2l1-32.6
			c0.1-2.4-1.8-4.4-4.2-4.5l-3.4-0.1C1022.4,1010.3,1020.4,1012.2,1020.3,1014.6"/>
		<path class="st3" d="M1003.1,1022.1l-9.9,31.1c-0.7,2.3,0.5,4.7,2.8,5.4l3.3,1c2.3,0.7,4.7-0.5,5.4-2.8l9.9-31.1
			c0.7-2.3-0.5-4.7-2.8-5.4l-3.3-1C1006.2,1018.6,1003.8,1019.8,1003.1,1022.1"/>
		<path class="st3" d="M990.2,997.9l13.1,29.9c1,2.2,3.5,3.2,5.7,2.2l3.2-1.4c2.2-1,3.2-3.5,2.2-5.7l-13.1-29.9
			c-1-2.2-3.5-3.2-5.7-2.2l-3.2,1.4C990.3,993.1,989.3,995.7,990.2,997.9"/>
		<path class="st5" d="M822.6,924.9l-1.3,36.9c-0.1,2.8,2.1,5.2,4.9,5.3l4.6,0.2c2.8,0.1,5.2-2.1,5.3-4.9l1.3-36.9
			c0.1-2.8-2.1-5.2-4.9-5.3l-4.6-0.2C825.1,919.8,822.7,922,822.6,924.9"/>
		<path class="st5" d="M804.6,909l19.6,25.7c1.7,2.3,5,2.7,7.3,1l4.7-3.6c2.3-1.7,2.7-5,1-7.3l-19.6-25.7c-1.7-2.3-5-2.7-7.3-1
			l-4.7,3.6C803.3,903.4,802.9,906.7,804.6,909"/>
		<path class="st3" d="M796.6,916.1l19.6,25.7c1.7,2.3,5,2.7,7.3,1l4.7-3.6c2.3-1.7,2.7-5,1-7.3l-19.6-25.7c-1.7-2.3-5-2.7-7.3-1
			l-4.7,3.6C795.4,910.6,794.9,913.9,796.6,916.1"/>
		<path class="st3" d="M812.7,930.4l-1.3,36.9c-0.1,2.8,2.1,5.2,4.9,5.3l4.6,0.2c2.8,0.1,5.2-2.1,5.3-4.9l1.3-36.9
			c0.1-2.8-2.1-5.2-4.9-5.3l-4.6-0.2C815.2,925.4,812.8,927.6,812.7,930.4"/>
		<path class="st15" d="M1248.6,911c0,0-18.5-19.9,453.2-236.5c41.8-19.2-8.4-160.6-50.8-142.8
			c-261.6,110.1-407.8,177.8-446.8,227.6c-83.9,107.4,62.2,138.6,62.2,138.6"/>
	</g>
	<g>
		<line class="st16" x1="1651.1" y1="631.1" x2="1368.2" y2="788"/>
		<line class="st16" x1="1389.5" y1="718.1" x2="1177.8" y2="866.6"/>
		<line class="st16" x1="946.4" y1="1022.9" x2="718.8" y2="1006.1"/>
		<line class="st16" x1="776.7" y1="970.5" x2="552.9" y2="970.5"/>
		<line class="st16" x1="429.9" y1="982.1" x2="206.2" y2="982.1"/>
		<line class="st16" x1="576.5" y1="934.9" x2="352.8" y2="934.9"/>
		<line class="st16" x1="260.5" y1="940.7" x2="-35.5" y2="940.7"/>
		<line class="st16" x1="678.5" y1="1028.7" x2="454.8" y2="1028.7"/>
		<line class="st16" x1="347" y1="1034.5" x2="45.9" y2="1022.9"/>
		<line class="st16" x1="138.6" y1="971.7" x2="-58.3" y2="1004.1"/>
		<line class="st16" x1="1283.6" y1="854.3" x2="1104.5" y2="987.9"/>
		<line class="st16" x1="1194.1" y1="793.8" x2="1428.1" y2="666"/>
	</g>
	<g>
		<defs>
			<rect id="SVGID_3_" x="-889.4" y="-1377" width="3007.5" height="3821"/>
		</defs>
		<clipPath id="SVGID_4_">
			<use xlink:href="#SVGID_3_"  style="overflow:visible;"/>
		</clipPath>
		<path class="st17" d="M1394.7,1344.2c0,0,350.6-290.1,347.6-366.8C1742.3,977.4,1483.2,1107.3,1394.7,1344.2"/>
		<path class="st17" d="M1314.4,1451.2c0,0,383.8-101,492.6-352.7C1806.9,1098.5,1364.5,1348.8,1314.4,1451.2"/>
		<path class="st17" d="M1259.8,1535.5c0,0,347.5-18.1,566.4-192.3C1826.2,1343.2,1412.8,1418.7,1259.8,1535.5"/>
		<path class="st17" d="M1783,1494.5c0,0-479.6,50.2-609.3,152.6C1173.7,1647.1,1506.3,1673.3,1783,1494.5"/>
		<path class="st17" d="M1736.5,1677.7c0,0-479.6-51.7-627.7,21.1C1108.8,1698.9,1428.7,1794.4,1736.5,1677.7"/>
		<path class="st17" d="M1632.6,1862.7c0,0-462.9-136.4-621.6-91.1C1011,1771.6,1309,1922.7,1632.6,1862.7"/>
		<path class="st17" d="M1376.5,1345.6c0,0,11.9-315.7,123.9-447.7C1500.4,898,1477,1261.6,1376.5,1345.6"/>
		<path class="st17" d="M1312.9,1432.9c0,0,77.1-147.6,43.4-575.9C1356.4,857,1210.7,1145.4,1312.9,1432.9"/>
		<path class="st17" d="M1246.4,1521.2c0,0,23.2-288.1-97.7-580.2C1148.7,941,1119.4,1346.5,1246.4,1521.2"/>
		<path class="st17" d="M1172.2,1628.6c0,0,1.2-4.9,2.5-14.8c6.6-51.2,14.6-237-138.1-580.9
			C1036.6,1032.9,1033.7,1424.1,1172.2,1628.6"/>
		<path class="st17" d="M1119.7,1700.4c0,0,3.6-188-176-524.8C943.8,1175.7,968.3,1604.6,1119.7,1700.4"/>
		<path class="st17" d="M1023.6,1766.5c0,0,3.6-188-176-524.8C847.7,1241.7,872.2,1670.7,1023.6,1766.5"/>
		<path class="st18" d="M1002.1,1781.5c120-78.6,460.6-532.7,460.6-532.7"/>
		<path class="st19" d="M873.4,1305.9c11.6,157.2,144.3,441.3,144.3,441.3 M964.7,1250.7c29.2,148.1,140.4,453.1,140.4,453.1
			 M1056.7,1089.9c-8.3,112.2,110.2,513.5,110.2,513.5 M1156.4,967.4c-7.7,106,89.5,515.4,89.5,515.4 M1310.4,1393
			c-8.4-108.3,30.8-483.5,30.8-483.5 M1399.3,1332.8c22-175.5,77.5-390.6,77.5-390.6 M1394.2,1346.5
			c33.3-93,351.5-369.5,351.5-369.5 M1257.8,1539.3c268.8-60.5,517.8-182.8,517.8-182.8 M1781.8,1121.4c0,0-219.6,181.7-437.9,293.1
			 M1053.7,1773.4l580.9,95.4 M1116.2,1705.4c278.2-3.3,608-24.5,608-24.5 M1170.7,1651.6c370.2-53.8,576.1-150.8,576.1-150.8"/>
		<path class="st20" d="M313.9,1325.7c37.3,22.4-74.6,219-86.3,232.8c-11.7,13.8-79.8-36.8-106-53.2c-26.3-16.4-46.5,4.6-49.7,11.1
			c-3.1,6.6,116.1,71.7,114,98.3c-2.2,26.6-76.4,95.8-99.4,105.3c-23,9.6-70.5-47.5-98.2-40.8c-27.7,6.8-27.9,15.8-27.9,15.8
			c38.7,15.5,88.2,54.9,86.7,61.8c-1.5,6.9-70.6,51.8-99.8,65.5c-23.3,10.9-150-40.5-199.7-61.6c0,0,262.1-264.8,427.3-325.4
			c0,0-222.6,28.9-453.8,293c-7.9-32.2-20-93-18.6-156.7c2-93.5,25.8-186,73.3-203c47.4-17,65.9,151.3,70.4,163.1
			c4.5,11.8,15.1,3.2,22.6-15.7c7.5-18.9-37.3-162.6-36.9-204.1s143.8-43.5,174.7-40.5c30.9,3,42.5,14.4,40.6,64.6
			c-1.9,50.2,16,64.8,24.6,61.2c8.6-3.6,9.9-108.1,11.3-120.4C84.6,1264.3,276.6,1303.3,313.9,1325.7"/>
		<path class="st21" d="M458.4,1102.8c8-27,149.4,11.2,159.9,16.3c10.5,5.1-10.2,56-16.2,75.1c-6,19.1,10.4,28.4,15,29.3
			c4.6,0.9,26.1-84.4,43.1-87.4c17-3,72.4,32.4,82.1,45.2c9.7,12.9-18.3,51.9-9.6,68.2c8.7,16.3,14.4,14.9,14.4,14.9
			c3.4-26.8,20.1-64.2,24.7-64.4c4.6-0.2,43.9,35.8,57.2,51.9c10.6,12.9-1.1,100.6-6.2,135.2c0,0-208.5-121.3-273.2-215.1
			c0,0,54.2,134.9,257.2,237c-18.9,10.1-55,27.6-95.2,37.1c-58.9,13.9-120.8,14-139.1-13c-18.4-27,84.2-65.9,90.8-70.6
			c6.7-4.7-0.4-10-13.5-11.6c-13.1-1.6-95.9,49.7-121.9,56.2c-26.1,6.5-50.6-83.1-53.7-103c-3.2-19.8,2.2-29,33.9-35.9
			c31.8-6.9,38-20.5,34.4-25.3c-3.6-4.8-69.4,11.3-77.3,12.4C457.1,1256.5,450.4,1129.8,458.4,1102.8"/>
		<path class="st21" d="M1241.8,1194.5c42.8,7.9,6.8,231.2,0.7,248.2s-87.6-6.6-118-12.7c-30.4-6.2-42,20.6-42.6,27.8
			c-0.6,7.2,133.9,26.4,141.2,52.2s-38,116.5-56.2,133.5c-18.2,17-82.7-19.8-106.3-3.8c-23.6,16-20.6,24.5-20.6,24.5
			c41.7,0.9,101.8,20.5,102.9,27.5c1,7-47.9,73.3-70.5,96.3c-18,18.4-154.7,14.5-208.6,12.3c0,0,152.7-339.8,286.3-454.5
			c0,0-198.4,105-322.5,433.4c-18.6-27.4-51.3-80.1-72.3-140.3c-30.8-88.3-40.9-183.3-2.5-215.8c38.4-32.5,114.7,118.6,123.1,128.1
			c8.3,9.5,15.3-2.3,15.7-22.7c0.4-20.4-91.8-139.3-106-178.2c-14.2-39,119.5-91.1,149.5-99.2c30-8.1,44.8-1.3,60.6,46.3
			c15.8,47.7,37.7,55.1,44.4,48.7c6.8-6.4-28.6-104.7-31.6-116.8C1005.5,1217.3,1199.1,1186.6,1241.8,1194.5"/>
		<path class="st22" d="M1019.8,1882.9c0,0,9.6,8.8-11.3,32.9c0,0-7.4,34.7,18.5,6.4c0,0,6-16,29-19.7"/>
		<path class="st17" d="M184.8,1348.1c0,0,357.4-294.2,354.4-371.9C539.2,976.2,275,1108,184.8,1348.1"/>
		<path class="st17" d="M102.8,1456.7c0,0,391.2-102.5,502.2-357.7C605,1098.9,153.9,1352.8,102.8,1456.7"/>
		<path class="st17" d="M47.2,1542.1c0,0,354.2-18.5,577.3-195.2C624.5,1347,203.2,1423.7,47.2,1542.1"/>
		<path class="st17" d="M580.4,1500.3c0,0-488.9,51.1-621.1,155C-40.6,1655.2,298.4,1681.7,580.4,1500.3"/>
		<path class="st17" d="M533,1686.1c0,0-488.7-52.2-639.7,21.7C-106.8,1707.8,219.2,1804.5,533,1686.1"/>
		<path class="st17" d="M427,1873.6c0,0-471.7-138-633.5-92C-206.5,1781.6,97.2,1934.5,427,1873.6"/>
		<path class="st17" d="M166.2,1349.6c0,0,12.2-320,126.5-453.8C292.7,895.8,268.6,1264.4,166.2,1349.6"/>
		<path class="st17" d="M101.4,1438c0,0,78.7-149.7,44.5-583.7C145.9,854.3-2.7,1146.8,101.4,1438"/>
		<path class="st17" d="M33.5,1527.6c0,0,23.8-292-99.3-588C-65.8,939.6-95.8,1350.6,33.5,1527.6"/>
		<path class="st17" d="M-42.1,1636.5c0,0,1.2-4.9,2.6-15c6.8-51.9,15-240.2-140.5-588.7C-180.1,1032.8-183.2,1429.2-42.1,1636.5"/>
		<path class="st17" d="M-95.6,1709.4c0,0,3.7-190.6-179.1-531.8C-274.8,1177.5-249.9,1612.3-95.6,1709.4"/>
		<path class="st17" d="M-193.6,1776.3c0,0,3.7-190.6-179.1-531.8C-372.7,1244.5-347.9,1679.3-193.6,1776.3"/>
		<path class="st23" d="M-273,1978.7c122.2-79.8,468.9-540.5,468.9-540.5"/>
		<path class="st19" d="M-346.4,1309.5c11.7,159.3,146.8,447.2,146.8,447.2 M-253.3,1253.4c29.6,150.1,142.8,459.2,142.8,459.2
			 M-159.5,1090.5c-8.5,113.8,112,520.4,112,520.4 M-57.9,966.2c-7.9,107.5,90.9,522.4,90.9,522.4 M98.8,1397.5
			c-8.5-109.8,31.6-490.1,31.6-490.1 M189.4,1336.4c22.5-177.9,79.2-395.9,79.2-395.9 M184.2,1350.3
			c34-94.3,358.3-374.8,358.3-374.8 M45.1,1545.8c273.9-61.4,527.7-185.6,527.7-185.6 M579.2,1121.9c0,0-223.8,184.3-446.4,297.3
			 M-162.9,1783.2l591.8,96.3 M-99.3,1714.3c283.5-3.5,619.4-25.2,619.4-25.2 M-43.7,1659.7c377.2-54.7,587-153.2,587-153.2"/>
		<path class="st17" d="M48.8,541.5c0,0-41.2,383.1,5.9,427.9C54.7,969.4,135.2,737.5,48.8,541.5"/>
		<path class="st17" d="M34.3,429.1c0,0-173.1,288.1-90.4,505C-56,934.1,64.5,520.9,34.3,429.1"/>
		<path class="st17" d="M17.6,345.7c0,0-200.1,216.3-229.9,451.3C-212.3,797.1-6.2,507,17.6,345.7"/>
		<path class="st17" d="M-275.5,679.8c0,0,261.3-313.9,279.4-452.6C3.9,227.2-213.3,407.8-275.5,679.8"/>
		<path class="st17" d="M-355.6,541.2c0,0,321.5-252,368.2-383.7C12.7,157.5-237.8,288.5-355.6,541.2"/>
		<path class="st17" d="M-401.8,367.6c0,0,361.4-190.8,430.8-312C29,55.5-241,140-401.8,367.6"/>
		<path class="st17" d="M59.1,529.9c0,0,179.4,198.5,189.3,344.8C248.4,874.6,47.7,640.2,59.1,529.9"/>
		<path class="st17" d="M46.1,439.4c0,0,40.5,135.1,313.9,375C360,814.4,277.9,553.4,46.1,439.4"/>
		<path class="st17" d="M34.2,346.5c0,0,156.1,188.5,402.1,294.2C436.3,640.7,214.4,377.4,34.2,346.5"/>
		<path class="st17" d="M15.7,237.6c0,0,2.1,3.7,7.2,10.4c26.3,35,131.2,152.4,427,270.7C450,518.7,220.6,279.8,15.7,237.6"/>
		<path class="st17" d="M5.1,163c0,0,108.9,116.2,416.8,214.3C421.9,377.3,153.6,131.6,5.1,163"/>
		<path class="st17" d="M24.4,66.1c0,0,108.9,116.2,416.8,214.3C441.2,280.4,172.8,34.8,24.4,66.1"/>
		<path class="st24" d="M28.6,44.3C2.2,162.9,64,639.6,64,639.6"/>
		<path class="st19" d="M387.6,256.7C287.7,168.2,39.4,74.3,39.4,74.3 M364.9,344.2C259.7,271.6,12,152.3,12,152.3 M404.1,496
			c-61.3-73-370.3-246.4-370.3-246.4 M416,629.2C358,560.4,57.2,369.5,57.2,369.5 M71.1,462.1c69.1,60.7,267,311.4,267,311.4
			 M52.8,551.2c90.3,119.4,183.7,282.7,183.7,282.7 M47.8,539.8C82.5,615.9,53,971.7,53,971.7 M16.6,342.3
			c-127.3,195.5-206.1,416.9-206.1,416.9 M-54.3,905.4c0,0,25.9-240,92.5-436.5 M2.1,79.7l-408.7,285.4 M4.4,157.8
			c-166.8,166.4-354.3,374.1-354.3,374.1 M3,222.7C-189.7,474-257.3,654.5-257.3,654.5"/>
		<path class="st25" d="M-208.2,1277c0,0-74.3,312.8,46.5,416.6c120.9,103.8,5.3,210.1,5.3,210.1"/>
		<path class="st26" d="M-318.1,1486.8c0,0,54.9-340.7,269.3-335.8"/>
		<path class="st27" d="M-265,1164.8c0,0-90.2,378.6-55.3,526.6c34.8,148,110.6,177.2,111.6,238.3c1.1,61.1-89.7,211.2-70.2,286
			s192.8,150.2,193.8,207.1"/>
		<path class="st25" d="M-213.7,1922.9c0,0-23.3,179.3,102.8,279.4"/>
		<path class="st28" d="M-291.2,1886.8c0,0,51.3-83.1,13.7-126.6c0,0-31.1-21.5-40,26.5c0,0-21.4-32.8-45.6-11.5
			C-387.3,1796.5-380.6,1829.5-291.2,1886.8"/>
		<path class="st20" d="M-137.2,2269.2c0,0,92.7-30.7,91.9-88.2c0,0-9.9-36.5-47.7-5.5c0,0,4.6-38.9-27.6-38.1
			C-152.7,2138.2-168.7,2167.8-137.2,2269.2"/>
		<path class="st17" d="M-155.4,1933.5c0,0,56.2-38.4,44.6-76.7c0,0-13.7-22.5-33,5.5c0,0-4.4-26.9-25.8-20.2
			C-191,1848.8-196.1,1871.7-155.4,1933.5"/>
		<path class="st28" d="M-288.8,2333.8c0,0,66.4,15,86.5-19.7c0,0,7.2-25.3-26.5-20.4c0,0,16.7-21.6-2.8-32.6
			C-251.1,2250.1-271.3,2262-288.8,2333.8"/>
		<path class="st28" d="M-162.6,2057c0,0,34.7-58.5,8-88.4c0,0-21.9-14.6-27.6,18.9c0,0-15.3-22.6-31.9-7.4
			C-230.6,1995.2-225.5,2018.1-162.6,2057"/>
		<path class="st17" d="M-277.9,2142.3c0,0,56.2-38.4,44.6-76.7c0,0-13.7-22.5-33,5.5c0,0-4.4-26.9-25.8-20.2
			C-313.4,2057.6-318.5,2080.5-277.9,2142.3"/>
		<path class="st20" d="M-331.8,1685.1c0,0,56.2-38.4,44.6-76.7c0,0-13.7-22.5-33,5.5c0,0-4.4-26.9-25.8-20.2
			C-367.4,1600.3-372.4,1623.2-331.8,1685.1"/>
		<path class="st29" d="M949.6,1190.1c0,0,95.4-104.8,130,50.1c25,112.1-88.8,243.8-307.8,312.8c0,0-71.9-145.4-27.1-311.6
			c0,0,23.4-119.1,124.4-144.5C970.1,1071.4,949.6,1190.1,949.6,1190.1"/>
		<path class="st22" d="M818.6,1491.6c0,0,87.8-271.4,110.9-256.8C929.5,1234.9,961.4,1224.7,818.6,1491.6"/>
		<path class="st30" d="M907.2,1272c42.7-77.8,145.5-71.6,145.5-71.6 M1021.1,1392.5c-35.1-99.5-99.9-134.9-99.9-134.9
			c52.5-37.2,136.9,36.4,136.9,36.4 M809.1,1170.4c0,0,70.7,15.1,115.6,72.6 M927.2,1244.2c9.4-76.7-50.1-126.7-50.1-126.7
			 M949.2,1439.6c2-46.7-52.3-113.4-52.3-113.4 M769.6,1266.2c107.9-26.4,143.5-6.7,143.5-6.7 M760.7,1386.1
			c73.5-57.6,115.2-47.7,115.2-47.7"/>
		<g class="st31">
			<path class="st32" d="M432.3-24c0,0,105.7,40.8,144.5,30.3c0,0-12,109.2-29.3,142.9c0,0-19.1-69.6-94.1-94.4
				c0,0,93.9,92.8,98.6,143.7c0,0-90,237.9-132.1,295.9c0,0,1.8-87-86-133.3c0,0,93.5,108.7,64.6,163.2c0,0-104.3,107.1-122.1,106
				c0,0-8.6-10-25.2-8.7l-7.4-69c0,0-18.5,12.8-14.9,78.4c0,0-27.5-22.6-19.6-57.1c0,0-27.9,19.6-13.6,39.6
				c14.3,20-42.5-22.7-15.3-92.9c0,0-5.3-43.1-41.9-30.5c0,0-30.8-141.5,18.6-325.9c0,0,91.8-255,178.3-289.8
				C335.2-125.6,347.4-75.3,432.3-24"/>
			<path class="st33" d="M130.8,320.3c67.8-52.2,192.1-26.5,192.1-26.5 M144.3,218.7c43.5-47,208.9-7.4,208.9-7.4 M536.6,242.9
				c-46.7-98-137.6-115.5-137.6-115.5 M503.4,298.8C490.6,251.3,369,174.1,369,174.1 M364.5,152.1
				c-157.4-72.3-194.2-22.7-194.2-22.7 M466.5,405.8c-7-75.9-125.5-132.7-125.5-132.7 M375.4,547.5c22.6-92-76.6-146.1-76.6-146.1
				 M135.5,413.6c48-75.1,168.2-63.9,168.2-63.9 M159.7,489.4c65.8-71.1,122.5-63.5,122.5-63.5 M172.7,557.6
				c70.9-88.1,100.4-84.5,100.4-84.5s39.2,73.5,28.6,142.1"/>
			<path class="st34" d="M536.6,169.1c-30.8-51.9-125-103.9-125-103.9 M216.6,26.4c25.8-1.4,179.6,33.5,179.6,33.5 M231.5-2.1
				C332.6,15,396.6,44.3,396.6,44.3 M269.3-56.9C360.8-27.4,413.7,9.1,413.7,9.1 M437.1,17.1c99.9-6.8,130.6,54.1,130.6,54.1
				 M564.8,87.2c-6.6-37.4-140.2-74.4-140.2-74.4"/>
			<path class="st34" d="M280.1,450c-50.3-12.6-140.2,70.6-140.2,70.6 M202.9,93.5c76.7-37,184.1,3.4,184.1,3.4 M386.1,144.9
				c115.8,43.9,132,125.5,132,125.5 M149.7,265.4c133.5-57.3,195.2-21.2,195.2-21.2 M410.6,447.4c8.5-78.1-73.1-137.5-73.1-137.5
				 M171,430.4c70.3-63.9,129-55.3,129-55.3 M329.1,535.7c9.4-71.3-33.1-99-33.1-99 M180.5,595.8c32.2-87.7,83.9-100,83.9-100
				 M251.1,621.6c21.4-43,9.8-97.4,9.8-97.4 M209.8,601.2c3.8-49.2,49.1-89.7,49.1-89.7 M516.5,96.1c-30.9-53.2-99-64.7-99-64.7
				 M562.9,33.1C487.4-7,424.4,4.5,424.4,4.5 M302.2-96.9c0,0,11.2,2.5,25.5,15.5c14.3,13,92.6,71.3,92.6,71.3 M279.1-76.6
				c72,26.9,131.2,81,131.2,81"/>
		</g>
		<path class="st29" d="M435.4-43.3c0,0-135.1,517.2-188.6,576.6l96.7-309.9l81.8-273L435.4-43.3z"/>
	</g>
</g>
<g>
	<path class="st35" d="M3.3,677.8c0,0-56.2-9.4-81.7,90.9c0,0-17,78.8,66.8,192.7c0,0,8.6,36.2,48.8,77.9c0,0,41.5,60.4,70.4,70.9
		c0,0,29.8,25.3,35.8,25.8c0,0,26,39.6,68.2,30.7c42.2-8.8,80.9-86.6,80.9-86.6s13.3-21.3,12-56.5c-1.3-35.2,5.9-151.1-62.1-265.4
		c0,0-126.2-190.9-222.9-92.9l-5.8,4.3L3.3,677.8z"/>
	<g>
		<path class="st36" d="M-15.2,645.7c0,0,129.3,230.5,201.2,424.2l15.1,57.4c0,0-5-131-67.3-223.5L-1.7,637.9L-15.2,645.7z"/>
		<path class="st37" d="M138.9,1083.5c0.1-48.7,34.8-67.4,34.8-67.4 M64.2,1038.7c0,0,33.2,13.6,47-4.9c13.7-18.5-16.5-25.3,11.2-44
			c27.7-18.7,22.6-48.7,22.6-48.7 M163.6,1147.4c-15-35.8,22.2-91,22.2-91 M245.2,1120.6c-14-24.7-54-54.8-54-54.8 M279.3,1061.3
			c-61.2,11.2-114.6-80.6-114.6-80.6 M258.7,970.9c-10.9-10.1-24.4-12-36-9.2c-11.6,2.7-23.6-0.5-40.4-14.3
			c-16.7-13.8-46.9-17.3-46.9-17.3 M287.6,909.8c0,0-56.3,27.7-88.8,4c-32.5-23.7-72.9-12.4-72.9-12.4 M23.6,942.4
			C8.2,906,88.9,832.4,88.9,832.4 M48.3,1004.6c15.8-27.1,20.3-49.5,16.9-68.3c-3.3-18.8,48.2-61.3,48.2-61.3 M-28.6,871.5
			c4.9,0.4,2.7-37.6,47.9-73.3c11-8.7,28.7-51.4,28.7-51.4 M219.2,777.5c-21.9-19.1-70.6-12.5-70.6-12.5
			c-35.5,11.8-92.8-4.7-92.8-4.7 M254.7,895c-17.3-21.9-19.1-15-83.4-22.9c-64.4-7.9-56.5-32.3-56.5-32.3
			c41.9-15.3,143.9,6.1,143.9,6.1"/>
		<path class="st37" d="M169.4,713.9c-67.8-67.6-124-27.8-124-27.8l14.3,37.4c0,0,35.9,19.9,128.1,13.6 M-58.7,819.2
			c-9.8-95.1,56.6-113.5,56.6-113.5l20,34.7c0,0-29.9,13.2-58.8,73.8"/>
	</g>
</g>
<rect y="349" class="st38" width="1813" height="900"/>
</svg>
