<?xml version="1.0" encoding="utf-8"?>
<!-- Generator: Adobe Illustrator 22.1.0, SVG Export Plug-In . SVG Version: 6.00 Build 0)  -->
<svg version="1.1" id="Capa_1" xmlns="http://www.w3.org/2000/svg" xmlns:xlink="http://www.w3.org/1999/xlink" x="0px" y="0px"
	 viewBox="0 0 1366 768" style="enable-background:new 0 0 1366 768;" xml:space="preserve">
<style type="text/css">
	.st0{fill:#1D1D1B;}
	.st1{fill:#571C0B;}
	.st2{fill:#E20613;}
	.st3{fill:#DDDB00;}
	.st4{opacity:0.86;fill:#2E2E2D;}
	.st5{fill:#2E2E2D;}
	.st6{fill:none;stroke:#1D1D1B;stroke-width:2;stroke-linecap:round;stroke-linejoin:round;stroke-miterlimit:10;}
	.st7{fill:none;stroke:#2E2E2D;stroke-width:2;stroke-linecap:round;stroke-linejoin:round;stroke-miterlimit:10;}
	.st8{opacity:0.3;fill:#908F20;}
	.st9{fill:#93C01F;}
	.st10{opacity:0.59;fill:#39A935;}
</style>
<g>
	<path class="st0" d="M1083.2,182.1c0,0-39.7-5.3-101.9,7.7H730.7V87C730.7,87,1031.4,69.9,1083.2,182.1z"/>
	<path class="st0" d="M654.2,185.3l-86.7-0.9c-22.8-0.2-41.2-22.9-40.9-50.4l0.4-42.8c0.3-27.5,19.1-49.8,41.9-49.6l85.2,0.6
		L654.2,185.3z"/>
	<ellipse class="st0" cx="661.1" cy="116.9" rx="96.3" ry="75"/>
	<polygon class="st0" points="606.9,62.9 741.1,65.7 741.1,106.7 589.2,74.4 	"/>
	<path class="st0" d="M330.4,726.4h-36.8c-13.6,0-24.7-11.1-24.7-24.7V463.1c0-13.6,11.1-24.7,24.7-24.7h36.8
		c13.6,0,24.7,11.1,24.7,24.7v238.6C355,715.3,343.9,726.4,330.4,726.4z"/>
	<path class="st0" d="M344.9,711.8h-8.8c-5.5,0-9.9-4.5-9.9-9.9V581.5c0-5.5,4.5-9.9,9.9-9.9h8.8c5.5,0,9.9,4.5,9.9,9.9v120.4
		C354.8,707.4,350.4,711.8,344.9,711.8z"/>
	<path class="st0" d="M317.4,726.4h-11.9c-6.3,0-11.5-5.2-11.5-11.5V583.2c0-6.3,5.2-11.5,11.5-11.5h11.9c6.3,0,11.5,5.2,11.5,11.5
		v131.7C328.9,721.2,323.7,726.4,317.4,726.4z"/>
	<path class="st0" d="M287.6,709.3h-8.8c-5.5,0-9.9-4.5-9.9-9.9V578.9c0-5.5,4.5-9.9,9.9-9.9h8.8c5.5,0,9.9,4.5,9.9,9.9v120.4
		C297.6,704.8,293.1,709.3,287.6,709.3z"/>
	<path class="st1" d="M285.6,679.1h-7.4c-5.1,0-9.2-4.2-9.2-9.2V541.8c0-5.1,4.2-9.2,9.2-9.2h7.4c5.1,0,9.2,4.2,9.2,9.2v128.1
		C294.8,675,290.7,679.1,285.6,679.1z"/>
	<path class="st1" d="M347,630.3h-10.5c-4.3,0-7.9-3.5-7.9-7.9v-80c0-4.3,3.5-7.9,7.9-7.9H347c4.3,0,7.9,3.5,7.9,7.9v80
		C354.8,626.7,351.3,630.3,347,630.3z"/>
	<path class="st2" d="M289.9,579.9h-12.6c-4.6,0-8.3-3.7-8.3-8.3v-79.1c0-4.6,3.7-8.3,8.3-8.3h12.6c4.6,0,8.3,3.7,8.3,8.3v79.1
		C298.2,576.1,294.5,579.9,289.9,579.9z"/>
	<path class="st1" d="M317.1,666.1h-10.7c-6.5,0-11.9-5.3-11.9-11.9V511.9c0-6.5,5.3-11.9,11.9-11.9h10.7c6.5,0,11.9,5.3,11.9,11.9
		v142.3C329,660.7,323.6,666.1,317.1,666.1z"/>
	<path class="st0" d="M730.7,67.1L584.5,156c0,0-25.9-6-65.4-1.6c0,0-63.6,11.9-112.3,60.5C337,284.4,273.9,405,269.3,468
		c0,0,264.6,67.6,352.2-116.1S745.4,94.8,745.4,94.8L730.7,67.1z"/>
	<path class="st3" d="M688.8,231.7l-86.7-0.9c-22.8-0.2-41.2-22.9-40.9-50.4l0.4-42.8c0.3-27.5,19.1-49.8,41.9-49.6l85.2,0.6
		L688.8,231.7z"/>
	<path class="st2" d="M599.4,328.4l-35.2,87.7c0,0,35.3-16.5,62.5-74.4L599.4,328.4z"/>
	<path class="st3" d="M730.7,102.5c0,0-108.9-19.3-147.8,10.9c0,0-44.9,18.5-1.7,81.6c0,0,38,59.6,0.9,177.1c0,0-4.3,35.4,25.9-4.3
		c0,0,28.5-29.4,57.9-84.7c0,0,19-72.6,75.2-93.3L730.7,102.5z"/>
	<path class="st2" d="M346.5,554.8h-13c-4.6,0-8.4-3.8-8.4-8.4v-79c0-4.6,3.8-8.4,8.4-8.4h13c4.6,0,8.4,3.8,8.4,8.4v79
		C354.8,551.1,351.1,554.8,346.5,554.8z"/>
	<path class="st2" d="M315.3,605.7h-11c-6,0-10.9-4.9-10.9-10.9V470c0-6,4.9-10.9,10.9-10.9h11c6,0,10.9,4.9,10.9,10.9v124.8
		C326.2,600.8,321.3,605.7,315.3,605.7z"/>
	<path class="st4" d="M286.6,554.8h-10c-4.3,0-7.7-3.5-7.7-7.7v-80.2c0-4.3,3.5-7.7,7.7-7.7h10c4.3,0,7.7,3.5,7.7,7.7v80.2
		C294.4,551.4,290.9,554.8,286.6,554.8z"/>
	<path class="st3" d="M730.7,65.7h211.7c0,0,128.7,24.2,154.7,122.7c0,0-21.6-18.1-87.1-24c-14.8-1.3-171.3-82.3-279.3-78.8V65.7z"
		/>
	<path class="st5" d="M525.4,271.1c0,0,0.7-2.4-5-1.7c-34.3,4-164.3,30.7-235.5,169.4L269.3,468C269.3,468,506,522.5,525.4,271.1z"
		/>
	<g>
		<g>
			<path class="st6" d="M438,567.7c0,0,37.4,2.6,43.9,18.6"/>
			<path class="st6" d="M469.3,600.3c-4.7-22-29.7-28.4-29.7-28.4s-11.1,16.4,10.8,36"/>
		</g>
		<line class="st6" x1="420.3" y1="537.8" x2="439.7" y2="571.9"/>
		<path class="st0" d="M334.4,475.6c0,0,40.1,63.1,87.9,68.5c1.1,0.1,2.3,0.2,3.4,0.3v-68.8C425.7,475.6,385.7,478.3,334.4,475.6z"
			/>
		<path class="st0" d="M355.2,476.8c0,0,32.5,63,81.8,65.6v-68.8C437,473.6,406.5,479.5,355.2,476.8z"/>
		<g>
			<path class="st7" d="M449.4,563.6c0,0,37.4,2.6,43.9,18.6"/>
			<path class="st7" d="M480.8,596.2c-4.7-22-29.7-28.4-29.7-28.4s-11.1,16.4,10.8,36"/>
		</g>
		<line class="st7" x1="431.8" y1="533.7" x2="451.1" y2="567.8"/>
	</g>
	<path class="st8" d="M711.3,208.8c8.5-7.3,18.4-13.9,29.8-19l-8.5-71.7c0,0-9.1,3.9-21.4,11l0-29.7l-66.8-0.5
		c-17.9-0.2-32.6,17.3-32.8,38.9l-0.3,33.6c-0.2,21.6,14.2,39.4,32.1,39.5l1.2,0c-13.2,46.6-32.1,121.1-45.4,149.3
		c-15.6,33,13.5,2.6,13.5,2.6s44.3-57.1,51.6-76.4c0,0,9.7-43.2,44-74.8l3,0L711.3,208.8z"/>
	<ellipse class="st9" cx="666.4" cy="110.2" rx="64.8" ry="49.7"/>
	<ellipse class="st10" cx="668.5" cy="109.9" rx="45.8" ry="35.1"/>
	<circle class="st0" cx="672" cy="94.8" r="13"/>
	<path class="st5" d="M527.6,365h-10.3c-4.3,0-7.8-3.5-7.8-7.8v-80.1c0-4.3,3.5-7.8,7.8-7.8h10.3c4.3,0,7.8,3.5,7.8,7.8v80.1
		C535.4,361.5,531.9,365,527.6,365z"/>
	<path class="st5" d="M503.8,400.3h-10.3c-4.3,0-7.8-3.5-7.8-7.8v-80.1c0-4.3,3.5-7.8,7.8-7.8h10.3c4.3,0,7.8,3.5,7.8,7.8v80.1
		C511.6,396.8,508.1,400.3,503.8,400.3z"/>
	<path class="st5" d="M479.7,436h-10.3c-4.3,0-7.8-3.5-7.8-7.8v-80.1c0-4.3,3.5-7.8,7.8-7.8h10.3c4.3,0,7.8,3.5,7.8,7.8v80.1
		C487.5,432.5,484,436,479.7,436z"/>
	<path class="st5" d="M455.1,459.1h-10.3c-4.3,0-7.8-3.5-7.8-7.8v-80.1c0-4.3,3.5-7.8,7.8-7.8h10.3c4.3,0,7.8,3.5,7.8,7.8v80.1
		C462.9,455.6,459.4,459.1,455.1,459.1z"/>
	<path class="st5" d="M429.5,473h-10.3c-4.3,0-7.8-3.5-7.8-7.8v-80.1c0-4.3,3.5-7.8,7.8-7.8h10.3c4.3,0,7.8,3.5,7.8,7.8v80.1
		C437.4,469.5,433.8,473,429.5,473z"/>
	<path class="st5" d="M405.4,496H395c-4.3,0-7.8-3.5-7.8-7.8v-80.1c0-4.3,3.5-7.8,7.8-7.8h10.3c4.3,0,7.8,3.5,7.8,7.8v80.1
		C413.2,492.5,409.6,496,405.4,496z"/>
	<path class="st5" d="M379.4,496h-10.3c-4.3,0-7.8-3.5-7.8-7.8v-80.1c0-4.3,3.5-7.8,7.8-7.8h10.3c4.3,0,7.8,3.5,7.8,7.8v80.1
		C387.2,492.5,383.7,496,379.4,496z"/>
	<path class="st5" d="M353.9,500.1h-10.3c-4.3,0-7.8-3.5-7.8-7.8v-80.1c0-4.3,3.5-7.8,7.8-7.8h10.3c4.3,0,7.8,3.5,7.8,7.8v80.1
		C361.8,496.5,358.2,500.1,353.9,500.1z"/>
	<path class="st5" d="M329.5,511.8h-10.3c-4.3,0-7.8-3.5-7.8-7.8v-80.1c0-4.3,3.5-7.8,7.8-7.8h10.3c4.3,0,7.8,3.5,7.8,7.8V504
		C337.4,508.3,333.8,511.8,329.5,511.8z"/>
	<path class="st5" d="M305.6,533.1h-10.3c-4.3,0-7.8-3.5-7.8-7.8v-80.1c0-4.3,3.5-7.8,7.8-7.8h10.3c4.3,0,7.8,3.5,7.8,7.8v80.1
		C313.4,529.6,309.9,533.1,305.6,533.1z"/>
	<path class="st5" d="M288.4,554.8h-10.3c-4.3,0-7.8-3.5-7.8-7.8V467c0-4.3,3.5-7.8,7.8-7.8h10.3c4.3,0,7.8,3.5,7.8,7.8V547
		C296.2,551.3,292.7,554.8,288.4,554.8z"/>
</g>
</svg>
